  0
SECTION
  2
HEADER
  9
$ACADVER
  1
AC1009
  0
ENDSEC
  0
SECTION
  2
ENTITIES
  0
LINE
  8
ValleyLine
  6
CONTINUOUS
 62
1
 10
4.09375
 20
7.1875
 11
3.8125
 21
7.09375
  0
LINE
  8
MountainLine
  6
CONTINUOUS
 62
5
 10
3.90625
 20
6.8125
 11
3.8125
 21
7.09375
  0
LINE
  8
MountainLine
  6
CONTINUOUS
 62
5
 10
4.09375
 20
7.1875
 11
4.1875
 21
6.90625
  0
LINE
  8
ValleyLine
  6
CONTINUOUS
 62
1
 10
3.90625
 20
6.8125
 11
4.1875
 21
6.90625
  0
LINE
  8
MountainLine
  6
CONTINUOUS
 62
5
 10
4.0
 20
7.84375
 11
4.28125
 21
7.9375
  0
LINE
  8
ValleyLine
  6
CONTINUOUS
 62
1
 10
4.0
 20
7.84375
 11
3.90625
 21
8.125
  0
LINE
  8
ValleyLine
  6
CONTINUOUS
 62
1
 10
4.28125
 20
7.9375
 11
4.1875
 21
8.21875
  0
LINE
  8
MountainLine
  6
CONTINUOUS
 62
5
 10
3.90625
 20
8.125
 11
4.1875
 21
8.21875
  0
LINE
  8
MountainLine
  6
CONTINUOUS
 62
5
 10
3.25
 20
8.03125
 11
3.15625
 21
8.3125
  0
LINE
  8
ValleyLine
  6
CONTINUOUS
 62
1
 10
3.25
 20
8.03125
 11
2.96875
 21
7.9375
  0
LINE
  8
ValleyLine
  6
CONTINUOUS
 62
1
 10
3.15625
 20
8.3125
 11
2.875
 21
8.21875
  0
LINE
  8
MountainLine
  6
CONTINUOUS
 62
5
 10
2.96875
 20
7.9375
 11
2.875
 21
8.21875
  0
LINE
  8
MountainLine
  6
CONTINUOUS
 62
5
 10
3.15625
 20
7.0
 11
2.875
 21
6.90625
  0
LINE
  8
ValleyLine
  6
CONTINUOUS
 62
1
 10
3.15625
 20
7.0
 11
3.0625
 21
7.28125
  0
LINE
  8
ValleyLine
  6
CONTINUOUS
 62
1
 10
2.875
 20
6.90625
 11
2.78125
 21
7.1875
  0
LINE
  8
MountainLine
  6
CONTINUOUS
 62
5
 10
3.0625
 20
7.28125
 11
2.78125
 21
7.1875
  0
LINE
  8
MountainLine
  6
CONTINUOUS
 62
5
 10
3.90625
 20
8.125
 11
3.8125
 21
8.03125
  0
LINE
  8
MountainLine
  6
CONTINUOUS
 62
5
 10
3.4375
 20
8.03125
 11
3.8125
 21
8.03125
  0
LINE
  8
MountainLine
  6
CONTINUOUS
 62
5
 10
2.96875
 20
7.9375
 11
3.0625
 21
7.84375
  0
LINE
  8
MountainLine
  6
CONTINUOUS
 62
5
 10
3.0625
 20
7.46875
 11
3.0625
 21
7.84375
  0
LINE
  8
MountainLine
  6
CONTINUOUS
 62
5
 10
3.15625
 20
7.0
 11
3.25
 21
7.09375
  0
LINE
  8
MountainLine
  6
CONTINUOUS
 62
5
 10
3.625
 20
7.09375
 11
3.25
 21
7.09375
  0
LINE
  8
MountainLine
  6
CONTINUOUS
 62
5
 10
4.09375
 20
7.1875
 11
4.0
 21
7.28125
  0
LINE
  8
MountainLine
  6
CONTINUOUS
 62
5
 10
4.0
 20
7.65625
 11
4.0
 21
7.28125
  0
LINE
  8
ValleyLine
  6
CONTINUOUS
 62
1
 10
4.0
 20
7.84375
 11
3.90625
 21
7.75
  0
LINE
  8
MountainLine
  6
CONTINUOUS
 62
5
 10
4.0
 20
7.65625
 11
3.90625
 21
7.75
  0
LINE
  8
MountainLine
  6
CONTINUOUS
 62
5
 10
3.8125
 20
8.03125
 11
3.90625
 21
7.75
  0
LINE
  8
ValleyLine
  6
CONTINUOUS
 62
1
 10
4.0
 20
7.65625
 11
3.625
 21
7.65625
  0
LINE
  8
ValleyLine
  6
CONTINUOUS
 62
1
 10
3.8125
 20
8.03125
 11
3.625
 21
7.65625
  0
LINE
  8
MountainLine
  6
CONTINUOUS
 62
5
 10
4.0
 20
7.28125
 11
3.625
 21
7.65625
  0
LINE
  8
MountainLine
  6
CONTINUOUS
 62
5
 10
3.625
 20
7.65625
 11
3.90625
 21
7.75
  0
LINE
  8
ValleyLine
  6
CONTINUOUS
 62
1
 10
3.25
 20
8.03125
 11
3.34375
 21
7.9375
  0
LINE
  8
MountainLine
  6
CONTINUOUS
 62
5
 10
3.4375
 20
8.03125
 11
3.34375
 21
7.9375
  0
LINE
  8
MountainLine
  6
CONTINUOUS
 62
5
 10
3.0625
 20
7.84375
 11
3.34375
 21
7.9375
  0
LINE
  8
ValleyLine
  6
CONTINUOUS
 62
1
 10
3.4375
 20
8.03125
 11
3.4375
 21
7.65625
  0
LINE
  8
MountainLine
  6
CONTINUOUS
 62
5
 10
3.8125
 20
8.03125
 11
3.4375
 21
7.65625
  0
LINE
  8
ValleyLine
  6
CONTINUOUS
 62
1
 10
3.0625
 20
7.84375
 11
3.4375
 21
7.65625
  0
LINE
  8
ValleyLine
  6
CONTINUOUS
 62
1
 10
3.625
 20
7.65625
 11
3.4375
 21
7.65625
  0
LINE
  8
MountainLine
  6
CONTINUOUS
 62
5
 10
3.34375
 20
7.9375
 11
3.4375
 21
7.65625
  0
LINE
  8
ValleyLine
  6
CONTINUOUS
 62
1
 10
3.0625
 20
7.28125
 11
3.15625
 21
7.375
  0
LINE
  8
MountainLine
  6
CONTINUOUS
 62
5
 10
3.0625
 20
7.46875
 11
3.15625
 21
7.375
  0
LINE
  8
MountainLine
  6
CONTINUOUS
 62
5
 10
3.25
 20
7.09375
 11
3.15625
 21
7.375
  0
LINE
  8
ValleyLine
  6
CONTINUOUS
 62
1
 10
3.0625
 20
7.46875
 11
3.4375
 21
7.46875
  0
LINE
  8
MountainLine
  6
CONTINUOUS
 62
5
 10
3.0625
 20
7.84375
 11
3.4375
 21
7.46875
  0
LINE
  8
ValleyLine
  6
CONTINUOUS
 62
1
 10
3.25
 20
7.09375
 11
3.4375
 21
7.46875
  0
LINE
  8
ValleyLine
  6
CONTINUOUS
 62
1
 10
3.4375
 20
7.65625
 11
3.4375
 21
7.46875
  0
LINE
  8
MountainLine
  6
CONTINUOUS
 62
5
 10
3.15625
 20
7.375
 11
3.4375
 21
7.46875
  0
LINE
  8
ValleyLine
  6
CONTINUOUS
 62
1
 10
3.8125
 20
7.09375
 11
3.71875
 21
7.1875
  0
LINE
  8
MountainLine
  6
CONTINUOUS
 62
5
 10
3.625
 20
7.09375
 11
3.71875
 21
7.1875
  0
LINE
  8
MountainLine
  6
CONTINUOUS
 62
5
 10
4.0
 20
7.28125
 11
3.71875
 21
7.1875
  0
LINE
  8
ValleyLine
  6
CONTINUOUS
 62
1
 10
3.625
 20
7.09375
 11
3.625
 21
7.46875
  0
LINE
  8
MountainLine
  6
CONTINUOUS
 62
5
 10
3.25
 20
7.09375
 11
3.625
 21
7.46875
  0
LINE
  8
ValleyLine
  6
CONTINUOUS
 62
1
 10
4.0
 20
7.28125
 11
3.625
 21
7.46875
  0
LINE
  8
ValleyLine
  6
CONTINUOUS
 62
1
 10
3.625
 20
7.65625
 11
3.625
 21
7.46875
  0
LINE
  8
ValleyLine
  6
CONTINUOUS
 62
1
 10
3.4375
 20
7.46875
 11
3.625
 21
7.46875
  0
LINE
  8
MountainLine
  6
CONTINUOUS
 62
5
 10
3.625
 20
7.46875
 11
3.71875
 21
7.1875
  0
LINE
  8
MountainLine
  6
CONTINUOUS
 62
5
 10
4.9375
 20
8.03125
 11
5.03125
 21
7.75
  0
LINE
  8
ValleyLine
  6
CONTINUOUS
 62
1
 10
5.3125
 20
7.84375
 11
5.03125
 21
7.75
  0
LINE
  8
ValleyLine
  6
CONTINUOUS
 62
1
 10
4.9375
 20
8.03125
 11
5.21875
 21
8.125
  0
LINE
  8
MountainLine
  6
CONTINUOUS
 62
5
 10
5.3125
 20
7.84375
 11
5.21875
 21
8.125
  0
LINE
  8
MountainLine
  6
CONTINUOUS
 62
5
 10
4.84375
 20
7.0
 11
5.125
 21
7.09375
  0
LINE
  8
ValleyLine
  6
CONTINUOUS
 62
1
 10
4.84375
 20
7.0
 11
4.9375
 21
6.71875
  0
LINE
  8
ValleyLine
  6
CONTINUOUS
 62
1
 10
5.125
 20
7.09375
 11
5.21875
 21
6.8125
  0
LINE
  8
MountainLine
  6
CONTINUOUS
 62
5
 10
4.9375
 20
6.71875
 11
5.21875
 21
6.8125
  0
LINE
  8
MountainLine
  6
CONTINUOUS
 62
5
 10
4.28125
 20
7.9375
 11
4.375
 21
7.84375
  0
LINE
  8
MountainLine
  6
CONTINUOUS
 62
5
 10
5.03125
 20
7.75
 11
4.9375
 21
7.65625
  0
LINE
  8
MountainLine
  6
CONTINUOUS
 62
5
 10
4.84375
 20
7.0
 11
4.75
 21
7.09375
  0
LINE
  8
MountainLine
  6
CONTINUOUS
 62
5
 10
4.09375
 20
7.1875
 11
4.1875
 21
7.28125
  0
LINE
  8
ValleyLine
  6
CONTINUOUS
 62
1
 10
4.375
 20
7.84375
 11
4.46875
 21
7.9375
  0
LINE
  8
ValleyLine
  6
CONTINUOUS
 62
1
 10
4.0
 20
7.28125
 11
4.09375
 21
7.375
  0
LINE
  8
ValleyLine
  6
CONTINUOUS
 62
1
 10
4.1875
 20
7.28125
 11
4.09375
 21
7.375
  0
LINE
  8
ValleyLine
  6
CONTINUOUS
 62
1
 10
4.75
 20
7.09375
 11
4.65625
 21
7.0
  0
LINE
  8
ValleyLine
  6
CONTINUOUS
 62
1
 10
4.9375
 20
7.65625
 11
5.03125
 21
7.5625
  0
LINE
  8
ValleyLine
  6
CONTINUOUS
 62
1
 10
4.0
 20
7.84375
 11
4.09375
 21
7.75
  0
LINE
  8
MountainLine
  6
CONTINUOUS
 62
5
 10
4.0
 20
7.65625
 11
4.09375
 21
7.75
  0
LINE
  8
ValleyLine
  6
CONTINUOUS
 62
1
 10
4.375
 20
7.84375
 11
4.09375
 21
7.75
  0
LINE
  8
ValleyLine
  6
CONTINUOUS
 62
1
 10
4.09375
 20
7.375
 11
4.09375
 21
7.75
  0
LINE
  8
ValleyLine
  6
CONTINUOUS
 62
1
 10
4.375
 20
7.84375
 11
4.46875
 21
7.5625
  0
LINE
  8
MountainLine
  6
CONTINUOUS
 62
5
 10
4.46875
 20
7.9375
 11
4.46875
 21
7.5625
  0
LINE
  8
MountainLine
  6
CONTINUOUS
 62
5
 10
4.09375
 20
7.75
 11
4.46875
 21
7.5625
  0
LINE
  8
ValleyLine
  6
CONTINUOUS
 62
1
 10
4.1875
 20
6.90625
 11
4.28125
 21
7.0
  0
LINE
  8
ValleyLine
  6
CONTINUOUS
 62
1
 10
4.1875
 20
7.28125
 11
4.28125
 21
7.0
  0
LINE
  8
ValleyLine
  6
CONTINUOUS
 62
1
 10
4.1875
 20
7.28125
 11
4.46875
 21
7.375
  0
LINE
  8
MountainLine
  6
CONTINUOUS
 62
5
 10
4.09375
 20
7.375
 11
4.46875
 21
7.375
  0
LINE
  8
ValleyLine
  6
CONTINUOUS
 62
1
 10
4.65625
 20
7.0
 11
4.28125
 21
7.0
  0
LINE
  8
ValleyLine
  6
CONTINUOUS
 62
1
 10
4.09375
 20
7.75
 11
4.46875
 21
7.375
  0
LINE
  8
MountainLine
  6
CONTINUOUS
 62
5
 10
4.46875
 20
7.5625
 11
4.46875
 21
7.375
  0
LINE
  8
MountainLine
  6
CONTINUOUS
 62
5
 10
4.46875
 20
7.375
 11
4.28125
 21
7.0
  0
LINE
  8
ValleyLine
  6
CONTINUOUS
 62
1
 10
5.125
 20
7.09375
 11
5.03125
 21
7.1875
  0
LINE
  8
ValleyLine
  6
CONTINUOUS
 62
1
 10
4.75
 20
7.09375
 11
5.03125
 21
7.1875
  0
LINE
  8
ValleyLine
  6
CONTINUOUS
 62
1
 10
4.75
 20
7.09375
 11
4.65625
 21
7.375
  0
LINE
  8
MountainLine
  6
CONTINUOUS
 62
5
 10
4.65625
 20
7.0
 11
4.65625
 21
7.375
  0
LINE
  8
ValleyLine
  6
CONTINUOUS
 62
1
 10
5.03125
 20
7.5625
 11
5.03125
 21
7.1875
  0
LINE
  8
ValleyLine
  6
CONTINUOUS
 62
1
 10
4.28125
 20
7.0
 11
4.65625
 21
7.375
  0
LINE
  8
MountainLine
  6
CONTINUOUS
 62
5
 10
4.46875
 20
7.375
 11
4.65625
 21
7.375
  0
LINE
  8
MountainLine
  6
CONTINUOUS
 62
5
 10
4.65625
 20
7.375
 11
5.03125
 21
7.1875
  0
LINE
  8
ValleyLine
  6
CONTINUOUS
 62
1
 10
4.9375
 20
8.03125
 11
4.84375
 21
7.9375
  0
LINE
  8
ValleyLine
  6
CONTINUOUS
 62
1
 10
4.9375
 20
7.65625
 11
4.84375
 21
7.9375
  0
LINE
  8
ValleyLine
  6
CONTINUOUS
 62
1
 10
4.46875
 20
7.9375
 11
4.84375
 21
7.9375
  0
LINE
  8
ValleyLine
  6
CONTINUOUS
 62
1
 10
4.9375
 20
7.65625
 11
4.65625
 21
7.5625
  0
LINE
  8
MountainLine
  6
CONTINUOUS
 62
5
 10
5.03125
 20
7.5625
 11
4.65625
 21
7.5625
  0
LINE
  8
ValleyLine
  6
CONTINUOUS
 62
1
 10
4.46875
 20
7.5625
 11
4.84375
 21
7.9375
  0
LINE
  8
MountainLine
  6
CONTINUOUS
 62
5
 10
4.46875
 20
7.5625
 11
4.65625
 21
7.5625
  0
LINE
  8
ValleyLine
  6
CONTINUOUS
 62
1
 10
5.03125
 20
7.1875
 11
4.65625
 21
7.5625
  0
LINE
  8
MountainLine
  6
CONTINUOUS
 62
5
 10
4.65625
 20
7.375
 11
4.65625
 21
7.5625
  0
LINE
  8
MountainLine
  6
CONTINUOUS
 62
5
 10
4.84375
 20
7.9375
 11
4.65625
 21
7.5625
  0
LINE
  8
ValleyLine
  6
CONTINUOUS
 62
1
 10
5.03125
 20
9.0625
 11
5.125
 21
8.78125
  0
LINE
  8
MountainLine
  6
CONTINUOUS
 62
5
 10
5.125
 20
8.78125
 11
5.40625
 21
8.875
  0
LINE
  8
MountainLine
  6
CONTINUOUS
 62
5
 10
6.0625
 20
8.96875
 11
6.15625
 21
8.6875
  0
LINE
  8
CutLine
  6
CONTINUOUS
 62
250
 10
7.0
 20
8.78125
 11
7.0
 21
8.59375
  0
LINE
  8
ValleyLine
  6
CONTINUOUS
 62
1
 10
6.8125
 20
7.09375
 11
6.25
 21
7.09375
  0
LINE
  8
MountainLine
  6
CONTINUOUS
 62
5
 10
6.25
 20
7.09375
 11
6.15625
 21
7.0
  0
LINE
  8
ValleyLine
  6
CONTINUOUS
 62
1
 10
6.8125
 20
6.71875
 11
6.25
 21
6.71875
  0
LINE
  8
ValleyLine
  6
CONTINUOUS
 62
1
 10
6.25
 20
7.09375
 11
6.25
 21
6.71875
  0
LINE
  8
MountainLine
  6
CONTINUOUS
 62
5
 10
6.15625
 20
7.0
 11
6.25
 21
6.71875
  0
LINE
  8
ValleyLine
  6
CONTINUOUS
 62
1
 10
6.15625
 20
7.0
 11
5.875
 21
6.90625
  0
LINE
  8
ValleyLine
  6
CONTINUOUS
 62
1
 10
6.25
 20
6.71875
 11
5.96875
 21
6.625
  0
LINE
  8
MountainLine
  6
CONTINUOUS
 62
5
 10
5.875
 20
6.90625
 11
5.96875
 21
6.625
  0
LINE
  8
CutLine
  6
CONTINUOUS
 62
250
 10
7.0
 20
10.0
 11
7.0
 21
8.78125
  0
LINE
  8
ValleyLine
  6
CONTINUOUS
 62
1
 10
6.0625
 20
8.96875
 11
6.34375
 21
9.0625
  0
LINE
  8
MountainLine
  6
CONTINUOUS
 62
5
 10
6.34375
 20
10.0
 11
6.34375
 21
9.0625
  0
LINE
  8
ValleyLine
  6
CONTINUOUS
 62
1
 10
7.0
 20
8.78125
 11
6.4375
 21
8.78125
  0
LINE
  8
ValleyLine
  6
CONTINUOUS
 62
1
 10
6.15625
 20
8.6875
 11
6.4375
 21
8.78125
  0
LINE
  8
CutLine
  6
CONTINUOUS
 62
250
 10
7.0
 20
10.0
 11
6.4375
 21
10.0
  0
LINE
  8
CutLine
  6
CONTINUOUS
 62
250
 10
6.343750000000001
 20
10.0
 11
6.4375
 21
10.0
  0
LINE
  8
MountainLine
  6
CONTINUOUS
 62
5
 10
6.34375
 20
9.0625
 11
6.4375
 21
8.78125
  0
LINE
  8
ValleyLine
  6
CONTINUOUS
 62
1
 10
6.4375
 20
10.0
 11
6.4375
 21
8.78125
  0
LINE
  8
MountainLine
  6
CONTINUOUS
 62
5
 10
5.40625
 20
8.875
 11
5.5
 21
8.96875
  0
LINE
  8
MountainLine
  6
CONTINUOUS
 62
5
 10
5.5
 20
10.0
 11
5.5
 21
8.96875
  0
LINE
  8
CutLine
  6
CONTINUOUS
 62
250
 10
4.84375
 20
10.0
 11
4.9375
 21
10.0
  0
LINE
  8
MountainLine
  6
CONTINUOUS
 62
5
 10
5.03125
 20
9.0625
 11
4.9375
 21
9.15625
  0
LINE
  8
ValleyLine
  6
CONTINUOUS
 62
1
 10
4.9375
 20
10.0
 11
4.9375
 21
9.15625
  0
LINE
  8
CutLine
  6
CONTINUOUS
 62
250
 10
5.5
 20
10.0
 11
5.3125
 21
10.0
  0
LINE
  8
CutLine
  6
CONTINUOUS
 62
250
 10
4.9375
 20
10.0
 11
5.3125
 21
10.0
  0
LINE
  8
MountainLine
  6
CONTINUOUS
 62
5
 10
5.03125
 20
9.0625
 11
5.3125
 21
9.15625
  0
LINE
  8
ValleyLine
  6
CONTINUOUS
 62
1
 10
5.40625
 20
8.875
 11
5.3125
 21
9.15625
  0
LINE
  8
ValleyLine
  6
CONTINUOUS
 62
1
 10
4.9375
 20
9.15625
 11
5.3125
 21
9.15625
  0
LINE
  8
ValleyLine
  6
CONTINUOUS
 62
1
 10
5.3125
 20
10.0
 11
5.3125
 21
9.15625
  0
LINE
  8
MountainLine
  6
CONTINUOUS
 62
5
 10
3.4375
 20
10.0
 11
3.4375
 21
9.15625
  0
LINE
  8
ValleyLine
  6
CONTINUOUS
 62
1
 10
3.0625
 20
8.96875
 11
2.96875
 21
9.25
  0
LINE
  8
MountainLine
  6
CONTINUOUS
 62
5
 10
3.0625
 20
8.96875
 11
3.34375
 21
9.0625
  0
LINE
  8
MountainLine
  6
CONTINUOUS
 62
5
 10
3.4375
 20
9.15625
 11
3.34375
 21
9.0625
  0
LINE
  8
CutLine
  6
CONTINUOUS
 62
250
 10
3.4375
 20
10.0
 11
3.25
 21
10.0
  0
LINE
  8
MountainLine
  6
CONTINUOUS
 62
5
 10
2.96875
 20
9.25
 11
3.25
 21
9.34375
  0
LINE
  8
ValleyLine
  6
CONTINUOUS
 62
1
 10
3.34375
 20
9.0625
 11
3.25
 21
9.34375
  0
LINE
  8
ValleyLine
  6
CONTINUOUS
 62
1
 10
3.25
 20
10.0
 11
3.25
 21
9.34375
  0
LINE
  8
MountainLine
  6
CONTINUOUS
 62
5
 10
2.6875
 20
6.15625
 11
2.78125
 21
5.875
  0
LINE
  8
MountainLine
  6
CONTINUOUS
 62
5
 10
3.71875
 20
6.0625
 11
3.625
 21
5.96875
  0
LINE
  8
ValleyLine
  6
CONTINUOUS
 62
1
 10
2.78125
 20
5.875
 11
3.0625
 21
5.96875
  0
LINE
  8
MountainLine
  6
CONTINUOUS
 62
5
 10
3.71875
 20
5.6875
 11
3.625
 21
5.96875
  0
LINE
  8
MountainLine
  6
CONTINUOUS
 62
5
 10
3.25
 20
5.96875
 11
3.625
 21
5.96875
  0
LINE
  8
MountainLine
  6
CONTINUOUS
 62
5
 10
2.78125
 20
5.875
 11
2.875
 21
5.78125
  0
LINE
  8
ValleyLine
  6
CONTINUOUS
 62
1
 10
3.0625
 20
5.96875
 11
3.15625
 21
5.875
  0
LINE
  8
MountainLine
  6
CONTINUOUS
 62
5
 10
3.25
 20
5.96875
 11
3.15625
 21
5.875
  0
LINE
  8
ValleyLine
  6
CONTINUOUS
 62
1
 10
3.25
 20
5.96875
 11
3.25
 21
5.59375
  0
LINE
  8
MountainLine
  6
CONTINUOUS
 62
5
 10
2.59375
 20
5.125
 11
2.875
 21
5.21875
  0
LINE
  8
ValleyLine
  6
CONTINUOUS
 62
1
 10
2.96875
 20
4.9375
 11
2.875
 21
5.21875
  0
LINE
  8
MountainLine
  6
CONTINUOUS
 62
5
 10
3.15625
 20
5.875
 11
2.875
 21
5.78125
  0
LINE
  8
MountainLine
  6
CONTINUOUS
 62
5
 10
2.875
 20
5.40625
 11
2.875
 21
5.78125
  0
LINE
  8
MountainLine
  6
CONTINUOUS
 62
5
 10
2.96875
 20
4.9375
 11
3.0625
 21
5.03125
  0
LINE
  8
MountainLine
  6
CONTINUOUS
 62
5
 10
3.625
 20
5.96875
 11
3.25
 21
5.59375
  0
LINE
  8
MountainLine
  6
CONTINUOUS
 62
5
 10
3.15625
 20
5.875
 11
3.25
 21
5.59375
  0
LINE
  8
ValleyLine
  6
CONTINUOUS
 62
1
 10
2.875
 20
5.78125
 11
3.25
 21
5.59375
  0
LINE
  8
ValleyLine
  6
CONTINUOUS
 62
1
 10
2.875
 20
5.21875
 11
2.96875
 21
5.3125
  0
LINE
  8
MountainLine
  6
CONTINUOUS
 62
5
 10
2.875
 20
5.40625
 11
2.96875
 21
5.3125
  0
LINE
  8
ValleyLine
  6
CONTINUOUS
 62
1
 10
2.875
 20
5.40625
 11
3.25
 21
5.40625
  0
LINE
  8
MountainLine
  6
CONTINUOUS
 62
5
 10
2.96875
 20
5.3125
 11
3.0625
 21
5.03125
  0
LINE
  8
MountainLine
  6
CONTINUOUS
 62
5
 10
3.4375
 20
5.03125
 11
3.0625
 21
5.03125
  0
LINE
  8
MountainLine
  6
CONTINUOUS
 62
5
 10
3.71875
 20
5.6875
 11
3.4375
 21
5.59375
  0
LINE
  8
ValleyLine
  6
CONTINUOUS
 62
1
 10
3.625
 20
5.96875
 11
3.4375
 21
5.59375
  0
LINE
  8
ValleyLine
  6
CONTINUOUS
 62
1
 10
3.25
 20
5.59375
 11
3.4375
 21
5.59375
  0
LINE
  8
MountainLine
  6
CONTINUOUS
 62
5
 10
2.875
 20
5.78125
 11
3.25
 21
5.40625
  0
LINE
  8
ValleyLine
  6
CONTINUOUS
 62
1
 10
3.25
 20
5.59375
 11
3.25
 21
5.40625
  0
LINE
  8
MountainLine
  6
CONTINUOUS
 62
5
 10
2.96875
 20
5.3125
 11
3.25
 21
5.40625
  0
LINE
  8
ValleyLine
  6
CONTINUOUS
 62
1
 10
3.0625
 20
5.03125
 11
3.25
 21
5.40625
  0
LINE
  8
ValleyLine
  6
CONTINUOUS
 62
1
 10
3.625
 20
5.03125
 11
3.53125
 21
5.125
  0
LINE
  8
MountainLine
  6
CONTINUOUS
 62
5
 10
3.4375
 20
5.03125
 11
3.53125
 21
5.125
  0
LINE
  8
ValleyLine
  6
CONTINUOUS
 62
1
 10
3.4375
 20
5.03125
 11
3.4375
 21
5.40625
  0
LINE
  8
MountainLine
  6
CONTINUOUS
 62
5
 10
3.0625
 20
5.03125
 11
3.4375
 21
5.40625
  0
LINE
  8
ValleyLine
  6
CONTINUOUS
 62
1
 10
3.4375
 20
5.59375
 11
3.4375
 21
5.40625
  0
LINE
  8
ValleyLine
  6
CONTINUOUS
 62
1
 10
3.25
 20
5.40625
 11
3.4375
 21
5.40625
  0
LINE
  8
MountainLine
  6
CONTINUOUS
 62
5
 10
3.4375
 20
5.40625
 11
3.53125
 21
5.125
  0
LINE
  8
ValleyLine
  6
CONTINUOUS
 62
1
 10
3.625
 20
5.03125
 11
3.90625
 21
5.125
  0
LINE
  8
MountainLine
  6
CONTINUOUS
 62
5
 10
3.4375
 20
5.59375
 11
3.8125
 21
5.21875
  0
LINE
  8
MountainLine
  6
CONTINUOUS
 62
5
 10
3.53125
 20
5.125
 11
3.8125
 21
5.21875
  0
LINE
  8
ValleyLine
  6
CONTINUOUS
 62
1
 10
3.4375
 20
5.40625
 11
3.8125
 21
5.21875
  0
LINE
  8
MountainLine
  6
CONTINUOUS
 62
5
 10
3.90625
 20
5.125
 11
3.8125
 21
5.21875
  0
LINE
  8
ValleyLine
  6
CONTINUOUS
 62
1
 10
3.71875
 20
6.0625
 11
3.8125
 21
5.78125
  0
LINE
  8
ValleyLine
  6
CONTINUOUS
 62
1
 10
3.71875
 20
5.6875
 11
3.8125
 21
5.78125
  0
LINE
  8
MountainLine
  6
CONTINUOUS
 62
5
 10
4.09375
 20
5.875
 11
3.8125
 21
5.78125
  0
LINE
  8
MountainLine
  6
CONTINUOUS
 62
5
 10
3.71875
 20
5.6875
 11
3.8125
 21
5.59375
  0
LINE
  8
ValleyLine
  6
CONTINUOUS
 62
1
 10
3.4375
 20
5.59375
 11
3.8125
 21
5.59375
  0
LINE
  8
MountainLine
  6
CONTINUOUS
 62
5
 10
3.8125
 20
5.21875
 11
3.8125
 21
5.59375
  0
LINE
  8
MountainLine
  6
CONTINUOUS
 62
5
 10
3.90625
 20
5.125
 11
4.0
 21
4.84375
  0
LINE
  8
ValleyLine
  6
CONTINUOUS
 62
1
 10
2.6875
 20
6.15625
 11
2.96875
 21
6.25
  0
LINE
  8
MountainLine
  6
CONTINUOUS
 62
5
 10
3.0625
 20
5.96875
 11
2.96875
 21
6.25
  0
LINE
  8
MountainLine
  6
CONTINUOUS
 62
5
 10
3.71875
 20
6.0625
 11
4.0
 21
6.15625
  0
LINE
  8
ValleyLine
  6
CONTINUOUS
 62
1
 10
4.09375
 20
5.875
 11
4.0
 21
6.15625
  0
LINE
  8
CutLine
  6
CONTINUOUS
 62
250
 10
1.0
 20
4.0
 11
1.0
 21
5.03125
  0
LINE
  8
CutLine
  6
CONTINUOUS
 62
250
 10
1.0
 20
5.59375
 11
1.0
 21
5.53125
  0
LINE
  8
MountainLine
  6
CONTINUOUS
 62
5
 10
1.84375
 20
5.3125
 11
1.9375
 21
5.03125
  0
LINE
  8
CutLine
  6
CONTINUOUS
 62
250
 10
1.0
 20
6.03125
 11
1.0
 21
6.15625
  0
LINE
  8
MountainLine
  6
CONTINUOUS
 62
5
 10
1.75
 20
5.96875
 11
2.03125
 21
6.0625
  0
LINE
  8
ValleyLine
  6
CONTINUOUS
 62
1
 10
2.03125
 20
6.0625
 11
1.9375
 21
6.34375
  0
LINE
  8
CutLine
  6
CONTINUOUS
 62
250
 10
1.0
 20
7.03125
 11
1.0
 21
7.15625
  0
LINE
  8
CutLine
  6
CONTINUOUS
 62
250
 10
1.0
 20
8.15625
 11
1.0
 21
8.03125
  0
LINE
  8
ValleyLine
  6
CONTINUOUS
 62
1
 10
1.84375
 20
7.0
 11
2.125
 21
7.09375
  0
LINE
  8
MountainLine
  6
CONTINUOUS
 62
5
 10
2.03125
 20
7.375
 11
2.125
 21
7.09375
  0
LINE
  8
MountainLine
  6
CONTINUOUS
 62
5
 10
1.9375
 20
8.03125
 11
2.21875
 21
8.125
  0
LINE
  8
ValleyLine
  6
CONTINUOUS
 62
1
 10
2.21875
 20
8.125
 11
2.125
 21
8.40625
  0
LINE
  8
CutLine
  6
CONTINUOUS
 62
250
 10
1.0
 20
10.0
 11
1.0
 21
9.59375
  0
LINE
  8
CutLine
  6
CONTINUOUS
 62
250
 10
1.0
 20
9.59375
 11
1.0
 21
9.46875
  0
LINE
  8
CutLine
  6
CONTINUOUS
 62
250
 10
1.0
 20
10.0
 11
1.09375
 21
10.0
  0
LINE
  8
CutLine
  6
CONTINUOUS
 62
250
 10
1.09375
 20
10.0
 11
1.1875
 21
10.0
  0
LINE
  8
CutLine
  6
CONTINUOUS
 62
250
 10
1.5625
 20
10.0
 11
1.65625
 21
10.0
  0
LINE
  8
CutLine
  6
CONTINUOUS
 62
250
 10
1.5625
 20
10.0
 11
1.5312500000000004
 21
10.0
  0
LINE
  8
CutLine
  6
CONTINUOUS
 62
250
 10
1.5312500000000004
 20
10.0
 11
1.3750000000000004
 21
10.0
  0
LINE
  8
CutLine
  6
CONTINUOUS
 62
250
 10
1.65625
 20
10.0
 11
1.796875
 21
10.0
  0
LINE
  8
CutLine
  6
CONTINUOUS
 62
250
 10
1.1875
 20
10.0
 11
1.28125
 21
10.0
  0
LINE
  8
CutLine
  6
CONTINUOUS
 62
250
 10
1.3750000000000004
 20
10.0
 11
1.28125
 21
10.0
  0
LINE
  8
CutLine
  6
CONTINUOUS
 62
250
 10
1.796875
 20
10.0
 11
2.03125
 21
10.0
  0
LINE
  8
CutLine
  6
CONTINUOUS
 62
250
 10
7.0
 20
7.75
 11
7.0
 21
8.125
  0
LINE
  8
MountainLine
  6
CONTINUOUS
 62
5
 10
6.8125
 20
6.53125
 11
7.0
 21
6.53125
  0
LINE
  8
MountainLine
  6
CONTINUOUS
 62
5
 10
7.0
 20
8.125
 11
6.34375
 21
8.125
  0
LINE
  8
ValleyLine
  6
CONTINUOUS
 62
1
 10
6.8125
 20
7.09375
 11
7.0
 21
7.09375
  0
LINE
  8
CutLine
  6
CONTINUOUS
 62
250
 10
7.0
 20
6.53125
 11
7.0
 21
6.71875
  0
LINE
  8
CutLine
  6
CONTINUOUS
 62
250
 10
7.0
 20
7.09375
 11
7.0
 21
6.71875
  0
LINE
  8
ValleyLine
  6
CONTINUOUS
 62
1
 10
6.8125
 20
6.71875
 11
7.0
 21
6.71875
  0
LINE
  8
ValleyLine
  6
CONTINUOUS
 62
1
 10
5.96875
 20
7.9375
 11
6.0625
 21
7.65625
  0
LINE
  8
MountainLine
  6
CONTINUOUS
 62
5
 10
7.0
 20
7.75
 11
6.34375
 21
7.75
  0
LINE
  8
MountainLine
  6
CONTINUOUS
 62
5
 10
6.34375
 20
8.125
 11
6.34375
 21
7.75
  0
LINE
  8
ValleyLine
  6
CONTINUOUS
 62
1
 10
6.34375
 20
8.125
 11
6.25
 21
8.03125
  0
LINE
  8
MountainLine
  6
CONTINUOUS
 62
5
 10
5.96875
 20
7.9375
 11
6.25
 21
8.03125
  0
LINE
  8
MountainLine
  6
CONTINUOUS
 62
5
 10
6.0625
 20
7.65625
 11
6.34375
 21
7.75
  0
LINE
  8
ValleyLine
  6
CONTINUOUS
 62
1
 10
6.25
 20
8.03125
 11
6.34375
 21
7.75
  0
LINE
  8
CutLine
  6
CONTINUOUS
 62
250
 10
7.0
 20
7.75
 11
7.0
 21
7.5625
  0
LINE
  8
ValleyLine
  6
CONTINUOUS
 62
1
 10
6.0625
 20
7.65625
 11
6.15625
 21
7.5625
  0
LINE
  8
ValleyLine
  6
CONTINUOUS
 62
1
 10
7.0
 20
7.5625
 11
6.15625
 21
7.5625
  0
LINE
  8
MountainLine
  6
CONTINUOUS
 62
5
 10
6.15625
 20
8.6875
 11
6.25
 21
8.59375
  0
LINE
  8
MountainLine
  6
CONTINUOUS
 62
5
 10
7.0
 20
8.59375
 11
6.25
 21
8.59375
  0
LINE
  8
MountainLine
  6
CONTINUOUS
 62
5
 10
4.84375
 20
5.6875
 11
4.75
 21
5.96875
  0
LINE
  8
ValleyLine
  6
CONTINUOUS
 62
1
 10
4.75
 20
5.96875
 11
5.03125
 21
6.0625
  0
LINE
  8
ValleyLine
  6
CONTINUOUS
 62
1
 10
4.84375
 20
5.6875
 11
5.125
 21
5.78125
  0
LINE
  8
MountainLine
  6
CONTINUOUS
 62
5
 10
5.03125
 20
6.0625
 11
5.125
 21
5.78125
  0
LINE
  8
MountainLine
  6
CONTINUOUS
 62
5
 10
6.8125
 20
5.6875
 11
6.15625
 21
5.6875
  0
LINE
  8
ValleyLine
  6
CONTINUOUS
 62
1
 10
5.78125
 20
5.875
 11
5.875
 21
5.59375
  0
LINE
  8
MountainLine
  6
CONTINUOUS
 62
5
 10
6.15625
 20
5.6875
 11
5.875
 21
5.59375
  0
LINE
  8
ValleyLine
  6
CONTINUOUS
 62
1
 10
5.875
 20
5.59375
 11
5.96875
 21
5.5
  0
LINE
  8
ValleyLine
  6
CONTINUOUS
 62
1
 10
6.8125
 20
5.5
 11
5.96875
 21
5.5
  0
LINE
  8
MountainLine
  6
CONTINUOUS
 62
5
 10
6.8125
 20
6.0625
 11
6.15625
 21
6.0625
  0
LINE
  8
MountainLine
  6
CONTINUOUS
 62
5
 10
6.15625
 20
5.6875
 11
6.15625
 21
6.0625
  0
LINE
  8
MountainLine
  6
CONTINUOUS
 62
5
 10
5.96875
 20
6.625
 11
6.0625
 21
6.53125
  0
LINE
  8
MountainLine
  6
CONTINUOUS
 62
5
 10
6.8125
 20
6.53125
 11
6.0625
 21
6.53125
  0
LINE
  8
MountainLine
  6
CONTINUOUS
 62
5
 10
5.78125
 20
5.875
 11
6.0625
 21
5.96875
  0
LINE
  8
ValleyLine
  6
CONTINUOUS
 62
1
 10
6.15625
 20
5.6875
 11
6.0625
 21
5.96875
  0
LINE
  8
ValleyLine
  6
CONTINUOUS
 62
1
 10
6.15625
 20
6.0625
 11
6.0625
 21
5.96875
  0
LINE
  8
ValleyLine
  6
CONTINUOUS
 62
1
 10
6.625
 20
4.65625
 11
6.0625
 21
4.65625
  0
LINE
  8
ValleyLine
  6
CONTINUOUS
 62
1
 10
6.625
 20
5.03125
 11
6.8125
 21
5.03125
  0
LINE
  8
ValleyLine
  6
CONTINUOUS
 62
1
 10
6.625
 20
4.65625
 11
6.8125
 21
4.65625
  0
LINE
  8
ValleyLine
  6
CONTINUOUS
 62
1
 10
6.625
 20
5.03125
 11
6.0625
 21
5.03125
  0
LINE
  8
ValleyLine
  6
CONTINUOUS
 62
1
 10
6.0625
 20
4.65625
 11
6.0625
 21
5.03125
  0
LINE
  8
MountainLine
  6
CONTINUOUS
 62
5
 10
6.0625
 20
4.65625
 11
5.96875
 21
4.9375
  0
LINE
  8
ValleyLine
  6
CONTINUOUS
 62
1
 10
5.6875
 20
4.84375
 11
5.96875
 21
4.9375
  0
LINE
  8
MountainLine
  6
CONTINUOUS
 62
5
 10
6.0625
 20
5.03125
 11
5.96875
 21
4.9375
  0
LINE
  8
MountainLine
  6
CONTINUOUS
 62
5
 10
4.0
 20
9.15625
 11
4.09375
 21
8.875
  0
LINE
  8
ValleyLine
  6
CONTINUOUS
 62
1
 10
4.09375
 20
8.875
 11
4.375
 21
8.96875
  0
LINE
  8
ValleyLine
  6
CONTINUOUS
 62
1
 10
4.0
 20
9.15625
 11
4.28125
 21
9.25
  0
LINE
  8
MountainLine
  6
CONTINUOUS
 62
5
 10
4.375
 20
8.96875
 11
4.28125
 21
9.25
  0
LINE
  8
MountainLine
  6
CONTINUOUS
 62
5
 10
4.28125
 20
10.0
 11
4.28125
 21
9.25
  0
LINE
  8
ValleyLine
  6
CONTINUOUS
 62
1
 10
4.0
 20
9.15625
 11
3.90625
 21
9.25
  0
LINE
  8
CutLine
  6
CONTINUOUS
 62
250
 10
4.28125
 20
10.0
 11
3.90625
 21
10.0
  0
LINE
  8
MountainLine
  6
CONTINUOUS
 62
5
 10
4.28125
 20
9.25
 11
3.90625
 21
9.25
  0
LINE
  8
MountainLine
  6
CONTINUOUS
 62
5
 10
3.90625
 20
10.0
 11
3.90625
 21
9.25
  0
LINE
  8
MountainLine
  6
CONTINUOUS
 62
5
 10
3.4375
 20
9.15625
 11
3.8125
 21
9.15625
  0
LINE
  8
MountainLine
  6
CONTINUOUS
 62
5
 10
3.90625
 20
9.25
 11
3.8125
 21
9.15625
  0
LINE
  8
CutLine
  6
CONTINUOUS
 62
250
 10
3.4375
 20
10.0
 11
3.8125
 21
10.0
  0
LINE
  8
CutLine
  6
CONTINUOUS
 62
250
 10
3.90625
 20
10.0
 11
3.8125
 21
10.0
  0
LINE
  8
ValleyLine
  6
CONTINUOUS
 62
1
 10
3.8125
 20
10.0
 11
3.8125
 21
9.15625
  0
LINE
  8
MountainLine
  6
CONTINUOUS
 62
5
 10
4.84375
 20
10.0
 11
4.84375
 21
9.0625
  0
LINE
  8
ValleyLine
  6
CONTINUOUS
 62
1
 10
4.9375
 20
9.15625
 11
4.84375
 21
9.0625
  0
LINE
  8
CutLine
  6
CONTINUOUS
 62
250
 10
4.84375
 20
10.0
 11
4.46875
 21
10.0
  0
LINE
  8
CutLine
  6
CONTINUOUS
 62
250
 10
4.28125
 20
10.0
 11
4.46875
 21
10.0
  0
LINE
  8
ValleyLine
  6
CONTINUOUS
 62
1
 10
4.375
 20
8.96875
 11
4.46875
 21
9.0625
  0
LINE
  8
ValleyLine
  6
CONTINUOUS
 62
1
 10
4.84375
 20
9.0625
 11
4.46875
 21
9.0625
  0
LINE
  8
ValleyLine
  6
CONTINUOUS
 62
1
 10
4.46875
 20
10.0
 11
4.46875
 21
9.0625
  0
LINE
  8
ValleyLine
  6
CONTINUOUS
 62
1
 10
6.8125
 20
5.5
 11
7.0
 21
5.5
  0
LINE
  8
ValleyLine
  6
CONTINUOUS
 62
1
 10
6.8125
 20
5.03125
 11
7.0
 21
5.03125
  0
LINE
  8
CutLine
  6
CONTINUOUS
 62
250
 10
7.0
 20
5.03125
 11
7.0
 21
4.65625
  0
LINE
  8
ValleyLine
  6
CONTINUOUS
 62
1
 10
6.8125
 20
4.65625
 11
7.0
 21
4.65625
  0
LINE
  8
MountainLine
  6
CONTINUOUS
 62
5
 10
2.96875
 20
9.25
 11
2.875
 21
9.34375
  0
LINE
  8
CutLine
  6
CONTINUOUS
 62
250
 10
3.25
 20
10.0
 11
2.875
 21
10.0
  0
LINE
  8
ValleyLine
  6
CONTINUOUS
 62
1
 10
3.25
 20
9.34375
 11
2.875
 21
9.34375
  0
LINE
  8
ValleyLine
  6
CONTINUOUS
 62
1
 10
2.875
 20
10.0
 11
2.875
 21
9.34375
  0
LINE
  8
ValleyLine
  6
CONTINUOUS
 62
1
 10
2.3125
 20
9.15625
 11
2.40625
 21
9.25
  0
LINE
  8
ValleyLine
  6
CONTINUOUS
 62
1
 10
2.40625
 20
10.0
 11
2.40625
 21
9.25
  0
LINE
  8
CutLine
  6
CONTINUOUS
 62
250
 10
2.875
 20
10.0
 11
2.78125
 21
10.0
  0
LINE
  8
ValleyLine
  6
CONTINUOUS
 62
1
 10
2.875
 20
9.34375
 11
2.78125
 21
9.25
  0
LINE
  8
CutLine
  6
CONTINUOUS
 62
250
 10
2.40625
 20
10.0
 11
2.78125
 21
10.0
  0
LINE
  8
ValleyLine
  6
CONTINUOUS
 62
1
 10
2.40625
 20
9.25
 11
2.78125
 21
9.25
  0
LINE
  8
MountainLine
  6
CONTINUOUS
 62
5
 10
2.78125
 20
10.0
 11
2.78125
 21
9.25
  0
LINE
  8
CutLine
  6
CONTINUOUS
 62
250
 10
2.03125
 20
10.0
 11
2.21875
 21
10.0
  0
LINE
  8
CutLine
  6
CONTINUOUS
 62
250
 10
2.40625
 20
10.0
 11
2.21875
 21
10.0
  0
LINE
  8
ValleyLine
  6
CONTINUOUS
 62
1
 10
6.0625
 20
8.96875
 11
5.96875
 21
9.0625
  0
LINE
  8
MountainLine
  6
CONTINUOUS
 62
5
 10
6.34375
 20
9.0625
 11
5.96875
 21
9.0625
  0
LINE
  8
CutLine
  6
CONTINUOUS
 62
250
 10
6.343750000000001
 20
10.0
 11
5.96875
 21
10.0
  0
LINE
  8
MountainLine
  6
CONTINUOUS
 62
5
 10
5.96875
 20
10.0
 11
5.96875
 21
9.0625
  0
LINE
  8
MountainLine
  6
CONTINUOUS
 62
5
 10
5.5
 20
8.96875
 11
5.875
 21
8.96875
  0
LINE
  8
MountainLine
  6
CONTINUOUS
 62
5
 10
5.96875
 20
9.0625
 11
5.875
 21
8.96875
  0
LINE
  8
CutLine
  6
CONTINUOUS
 62
250
 10
5.5
 20
10.0
 11
5.875
 21
10.0
  0
LINE
  8
CutLine
  6
CONTINUOUS
 62
250
 10
5.96875
 20
10.0
 11
5.875
 21
10.0
  0
LINE
  8
ValleyLine
  6
CONTINUOUS
 62
1
 10
5.875
 20
10.0
 11
5.875
 21
8.96875
  0
LINE
  8
CutLine
  6
CONTINUOUS
 62
250
 10
1.0
 20
9.15625
 11
1.0
 21
9.34375
  0
LINE
  8
ValleyLine
  6
CONTINUOUS
 62
1
 10
1.0
 20
9.34375
 11
1.9375
 21
9.34375
  0
LINE
  8
CutLine
  6
CONTINUOUS
 62
250
 10
1.0
 20
9.15625
 11
1.0
 21
8.96875
  0
LINE
  8
ValleyLine
  6
CONTINUOUS
 62
1
 10
2.3125
 20
9.15625
 11
2.03125
 21
9.0625
  0
LINE
  8
MountainLine
  6
CONTINUOUS
 62
5
 10
1.9375
 20
9.34375
 11
2.03125
 21
9.0625
  0
LINE
  8
ValleyLine
  6
CONTINUOUS
 62
1
 10
1.9375
 20
9.34375
 11
1.9375
 21
8.96875
  0
LINE
  8
ValleyLine
  6
CONTINUOUS
 62
1
 10
1.0
 20
8.96875
 11
1.9375
 21
8.96875
  0
LINE
  8
MountainLine
  6
CONTINUOUS
 62
5
 10
2.03125
 20
9.0625
 11
1.9375
 21
8.96875
  0
LINE
  8
MountainLine
  6
CONTINUOUS
 62
5
 10
2.3125
 20
9.15625
 11
2.21875
 21
9.4375
  0
LINE
  8
MountainLine
  6
CONTINUOUS
 62
5
 10
2.21875
 20
10.0
 11
2.21875
 21
9.4375
  0
LINE
  8
CutLine
  6
CONTINUOUS
 62
250
 10
1.0
 20
9.46875
 11
1.0
 21
9.4375
  0
LINE
  8
CutLine
  6
CONTINUOUS
 62
250
 10
1.0
 20
9.34375
 11
1.0
 21
9.4375
  0
LINE
  8
ValleyLine
  6
CONTINUOUS
 62
1
 10
1.9375
 20
9.34375
 11
2.21875
 21
9.4375
  0
LINE
  8
MountainLine
  6
CONTINUOUS
 62
5
 10
1.0
 20
9.4375
 11
2.21875
 21
9.4375
  0
LINE
  8
CutLine
  6
CONTINUOUS
 62
250
 10
1.0
 20
8.46875
 11
1.0
 21
8.5
  0
LINE
  8
CutLine
  6
CONTINUOUS
 62
250
 10
1.0
 20
8.59375
 11
1.0
 21
8.5
  0
LINE
  8
ValleyLine
  6
CONTINUOUS
 62
1
 10
2.125
 20
8.40625
 11
2.03125
 21
8.5
  0
LINE
  8
ValleyLine
  6
CONTINUOUS
 62
1
 10
1.0
 20
8.5
 11
2.03125
 21
8.5
  0
LINE
  8
CutLine
  6
CONTINUOUS
 62
250
 10
1.0
 20
8.59375
 11
1.0
 21
8.875
  0
LINE
  8
CutLine
  6
CONTINUOUS
 62
250
 10
1.0
 20
8.96875
 11
1.0
 21
8.875
  0
LINE
  8
ValleyLine
  6
CONTINUOUS
 62
1
 10
1.9375
 20
8.96875
 11
2.03125
 21
8.875
  0
LINE
  8
ValleyLine
  6
CONTINUOUS
 62
1
 10
2.03125
 20
8.5
 11
2.03125
 21
8.875
  0
LINE
  8
MountainLine
  6
CONTINUOUS
 62
5
 10
1.0
 20
8.875
 11
2.03125
 21
8.875
  0
LINE
  8
CutLine
  6
CONTINUOUS
 62
250
 10
1.0
 20
8.03125
 11
1.0
 21
7.9375
  0
LINE
  8
CutLine
  6
CONTINUOUS
 62
250
 10
1.0
 20
8.15625
 11
1.0
 21
8.3125
  0
LINE
  8
CutLine
  6
CONTINUOUS
 62
250
 10
1.0
 20
8.46875
 11
1.0
 21
8.3125
  0
LINE
  8
ValleyLine
  6
CONTINUOUS
 62
1
 10
1.9375
 20
8.03125
 11
1.84375
 21
7.9375
  0
LINE
  8
MountainLine
  6
CONTINUOUS
 62
5
 10
1.0
 20
7.9375
 11
1.84375
 21
7.9375
  0
LINE
  8
ValleyLine
  6
CONTINUOUS
 62
1
 10
1.9375
 20
8.03125
 11
1.84375
 21
8.3125
  0
LINE
  8
MountainLine
  6
CONTINUOUS
 62
5
 10
2.125
 20
8.40625
 11
1.84375
 21
8.3125
  0
LINE
  8
MountainLine
  6
CONTINUOUS
 62
5
 10
1.0
 20
8.3125
 11
1.84375
 21
8.3125
  0
LINE
  8
MountainLine
  6
CONTINUOUS
 62
5
 10
1.84375
 20
8.3125
 11
1.84375
 21
7.9375
  0
LINE
  8
CutLine
  6
CONTINUOUS
 62
250
 10
1.0
 20
7.65625
 11
1.0
 21
7.84375
  0
LINE
  8
CutLine
  6
CONTINUOUS
 62
250
 10
1.0
 20
7.9375
 11
1.0
 21
7.84375
  0
LINE
  8
MountainLine
  6
CONTINUOUS
 62
5
 10
1.84375
 20
7.9375
 11
1.9375
 21
7.84375
  0
LINE
  8
ValleyLine
  6
CONTINUOUS
 62
1
 10
1.0
 20
7.84375
 11
1.9375
 21
7.84375
  0
LINE
  8
CutLine
  6
CONTINUOUS
 62
250
 10
1.0
 20
7.15625
 11
1.0
 21
7.28125
  0
LINE
  8
MountainLine
  6
CONTINUOUS
 62
5
 10
1.84375
 20
7.0
 11
1.75
 21
7.28125
  0
LINE
  8
ValleyLine
  6
CONTINUOUS
 62
1
 10
2.03125
 20
7.375
 11
1.75
 21
7.28125
  0
LINE
  8
ValleyLine
  6
CONTINUOUS
 62
1
 10
1.0
 20
7.28125
 11
1.75
 21
7.28125
  0
LINE
  8
CutLine
  6
CONTINUOUS
 62
250
 10
1.0
 20
7.03125
 11
1.0
 21
6.90625
  0
LINE
  8
MountainLine
  6
CONTINUOUS
 62
5
 10
1.84375
 20
7.0
 11
1.75
 21
6.90625
  0
LINE
  8
ValleyLine
  6
CONTINUOUS
 62
1
 10
1.75
 20
7.28125
 11
1.75
 21
6.90625
  0
LINE
  8
ValleyLine
  6
CONTINUOUS
 62
1
 10
1.0
 20
6.90625
 11
1.75
 21
6.90625
  0
LINE
  8
CutLine
  6
CONTINUOUS
 62
250
 10
1.0
 20
7.65625
 11
1.0
 21
7.46875
  0
LINE
  8
MountainLine
  6
CONTINUOUS
 62
5
 10
2.03125
 20
7.375
 11
1.9375
 21
7.46875
  0
LINE
  8
MountainLine
  6
CONTINUOUS
 62
5
 10
1.9375
 20
7.84375
 11
1.9375
 21
7.46875
  0
LINE
  8
CutLine
  6
CONTINUOUS
 62
250
 10
1.0
 20
7.28125
 11
1.0
 21
7.46875
  0
LINE
  8
MountainLine
  6
CONTINUOUS
 62
5
 10
1.0
 20
7.46875
 11
1.9375
 21
7.46875
  0
LINE
  8
CutLine
  6
CONTINUOUS
 62
250
 10
1.0
 20
6.53125
 11
1.0
 21
6.8125
  0
LINE
  8
CutLine
  6
CONTINUOUS
 62
250
 10
1.0
 20
6.90625
 11
1.0
 21
6.8125
  0
LINE
  8
ValleyLine
  6
CONTINUOUS
 62
1
 10
1.75
 20
6.90625
 11
1.84375
 21
6.8125
  0
LINE
  8
MountainLine
  6
CONTINUOUS
 62
5
 10
1.0
 20
6.8125
 11
1.84375
 21
6.8125
  0
LINE
  8
CutLine
  6
CONTINUOUS
 62
250
 10
1.0
 20
6.53125
 11
1.0
 21
6.4375
  0
LINE
  8
ValleyLine
  6
CONTINUOUS
 62
1
 10
1.9375
 20
6.34375
 11
1.84375
 21
6.4375
  0
LINE
  8
ValleyLine
  6
CONTINUOUS
 62
1
 10
1.84375
 20
6.8125
 11
1.84375
 21
6.4375
  0
LINE
  8
ValleyLine
  6
CONTINUOUS
 62
1
 10
1.0
 20
6.4375
 11
1.84375
 21
6.4375
  0
LINE
  8
CutLine
  6
CONTINUOUS
 62
250
 10
1.0
 20
6.15625
 11
1.0
 21
6.25
  0
LINE
  8
CutLine
  6
CONTINUOUS
 62
250
 10
1.0
 20
6.4375
 11
1.0
 21
6.25
  0
LINE
  8
ValleyLine
  6
CONTINUOUS
 62
1
 10
1.75
 20
5.96875
 11
1.65625
 21
6.25
  0
LINE
  8
MountainLine
  6
CONTINUOUS
 62
5
 10
1.9375
 20
6.34375
 11
1.65625
 21
6.25
  0
LINE
  8
MountainLine
  6
CONTINUOUS
 62
5
 10
1.0
 20
6.25
 11
1.65625
 21
6.25
  0
LINE
  8
CutLine
  6
CONTINUOUS
 62
250
 10
1.0
 20
6.03125
 11
1.0
 21
5.875
  0
LINE
  8
ValleyLine
  6
CONTINUOUS
 62
1
 10
1.75
 20
5.96875
 11
1.65625
 21
5.875
  0
LINE
  8
MountainLine
  6
CONTINUOUS
 62
5
 10
1.65625
 20
6.25
 11
1.65625
 21
5.875
  0
LINE
  8
MountainLine
  6
CONTINUOUS
 62
5
 10
1.0
 20
5.875
 11
1.65625
 21
5.875
  0
LINE
  8
CutLine
  6
CONTINUOUS
 62
250
 10
1.0
 20
5.59375
 11
1.0
 21
5.78125
  0
LINE
  8
CutLine
  6
CONTINUOUS
 62
250
 10
1.0
 20
5.875
 11
1.0
 21
5.78125
  0
LINE
  8
MountainLine
  6
CONTINUOUS
 62
5
 10
1.65625
 20
5.875
 11
1.75
 21
5.78125
  0
LINE
  8
ValleyLine
  6
CONTINUOUS
 62
1
 10
1.0
 20
5.78125
 11
1.75
 21
5.78125
  0
LINE
  8
CutLine
  6
CONTINUOUS
 62
250
 10
1.0
 20
5.53125
 11
1.0
 21
5.40625
  0
LINE
  8
MountainLine
  6
CONTINUOUS
 62
5
 10
1.84375
 20
5.3125
 11
1.75
 21
5.40625
  0
LINE
  8
MountainLine
  6
CONTINUOUS
 62
5
 10
1.75
 20
5.78125
 11
1.75
 21
5.40625
  0
LINE
  8
MountainLine
  6
CONTINUOUS
 62
5
 10
1.0
 20
5.40625
 11
1.75
 21
5.40625
  0
LINE
  8
CutLine
  6
CONTINUOUS
 62
250
 10
1.0
 20
5.03125
 11
1.0
 21
5.21875
  0
LINE
  8
CutLine
  6
CONTINUOUS
 62
250
 10
1.0
 20
5.40625
 11
1.0
 21
5.21875
  0
LINE
  8
CutLine
  6
CONTINUOUS
 62
250
 10
1.0
 20
4.0
 11
1.5625
 21
4.0
  0
LINE
  8
ValleyLine
  6
CONTINUOUS
 62
1
 10
1.84375
 20
5.3125
 11
1.5625
 21
5.21875
  0
LINE
  8
ValleyLine
  6
CONTINUOUS
 62
1
 10
1.0
 20
5.21875
 11
1.5625
 21
5.21875
  0
LINE
  8
ValleyLine
  6
CONTINUOUS
 62
1
 10
1.5625
 20
5.21875
 11
1.5625
 21
4.0
  0
LINE
  8
CutLine
  6
CONTINUOUS
 62
250
 10
1.5625
 20
4.0
 11
1.65625
 21
4.0
  0
LINE
  8
ValleyLine
  6
CONTINUOUS
 62
1
 10
1.9375
 20
5.03125
 11
1.65625
 21
4.9375
  0
LINE
  8
MountainLine
  6
CONTINUOUS
 62
5
 10
1.5625
 20
5.21875
 11
1.65625
 21
4.9375
  0
LINE
  8
MountainLine
  6
CONTINUOUS
 62
5
 10
1.65625
 20
4.0
 11
1.65625
 21
4.9375
  0
LINE
  8
CutLine
  6
CONTINUOUS
 62
250
 10
1.65625
 20
4.0
 11
2.0312500000000004
 21
4.0
  0
LINE
  8
ValleyLine
  6
CONTINUOUS
 62
1
 10
1.9375
 20
5.03125
 11
2.03125
 21
4.9375
  0
LINE
  8
MountainLine
  6
CONTINUOUS
 62
5
 10
1.65625
 20
4.9375
 11
2.03125
 21
4.9375
  0
LINE
  8
MountainLine
  6
CONTINUOUS
 62
5
 10
2.03125
 20
4.9375
 11
2.03125
 21
4.0
  0
LINE
  8
MountainLine
  6
CONTINUOUS
 62
5
 10
2.59375
 20
5.125
 11
2.5
 21
5.03125
  0
LINE
  8
MountainLine
  6
CONTINUOUS
 62
5
 10
2.5
 20
5.03125
 11
2.5
 21
4.0
  0
LINE
  8
ValleyLine
  6
CONTINUOUS
 62
1
 10
3.0625
 20
5.03125
 11
3.15625
 21
4.9375
  0
LINE
  8
MountainLine
  6
CONTINUOUS
 62
5
 10
3.15625
 20
4.9375
 11
3.15625
 21
4.0
  0
LINE
  8
MountainLine
  6
CONTINUOUS
 62
5
 10
2.03125
 20
4.9375
 11
2.125
 21
5.03125
  0
LINE
  8
MountainLine
  6
CONTINUOUS
 62
5
 10
2.5
 20
5.03125
 11
2.125
 21
5.03125
  0
LINE
  8
CutLine
  6
CONTINUOUS
 62
250
 10
2.0312500000000004
 20
4.0
 11
2.125
 21
4.0
  0
LINE
  8
CutLine
  6
CONTINUOUS
 62
250
 10
2.5
 20
4.0
 11
2.125
 21
4.0
  0
LINE
  8
ValleyLine
  6
CONTINUOUS
 62
1
 10
2.125
 20
5.03125
 11
2.125
 21
4.0
  0
LINE
  8
CutLine
  6
CONTINUOUS
 62
250
 10
2.5
 20
4.0
 11
2.6875
 21
4.0
  0
LINE
  8
ValleyLine
  6
CONTINUOUS
 62
1
 10
2.59375
 20
5.125
 11
2.6875
 21
4.84375
  0
LINE
  8
MountainLine
  6
CONTINUOUS
 62
5
 10
2.96875
 20
4.9375
 11
2.6875
 21
4.84375
  0
LINE
  8
ValleyLine
  6
CONTINUOUS
 62
1
 10
2.6875
 20
4.0
 11
2.6875
 21
4.84375
  0
LINE
  8
CutLine
  6
CONTINUOUS
 62
250
 10
3.15625
 20
4.0
 11
3.0625
 21
4.0
  0
LINE
  8
CutLine
  6
CONTINUOUS
 62
250
 10
2.6875
 20
4.0
 11
3.0625
 21
4.0
  0
LINE
  8
MountainLine
  6
CONTINUOUS
 62
5
 10
2.96875
 20
4.9375
 11
3.0625
 21
4.84375
  0
LINE
  8
ValleyLine
  6
CONTINUOUS
 62
1
 10
3.15625
 20
4.9375
 11
3.0625
 21
4.84375
  0
LINE
  8
ValleyLine
  6
CONTINUOUS
 62
1
 10
2.6875
 20
4.84375
 11
3.0625
 21
4.84375
  0
LINE
  8
ValleyLine
  6
CONTINUOUS
 62
1
 10
3.0625
 20
4.84375
 11
3.0625
 21
4.0
  0
LINE
  8
ValleyLine
  6
CONTINUOUS
 62
1
 10
3.625
 20
5.03125
 11
3.53125
 21
4.9375
  0
LINE
  8
MountainLine
  6
CONTINUOUS
 62
5
 10
3.4375
 20
5.03125
 11
3.53125
 21
4.9375
  0
LINE
  8
ValleyLine
  6
CONTINUOUS
 62
1
 10
3.15625
 20
4.9375
 11
3.53125
 21
4.9375
  0
LINE
  8
CutLine
  6
CONTINUOUS
 62
250
 10
3.15625
 20
4.0
 11
3.53125
 21
4.0
  0
LINE
  8
ValleyLine
  6
CONTINUOUS
 62
1
 10
3.53125
 20
4.9375
 11
3.53125
 21
4.0
  0
LINE
  8
ValleyLine
  6
CONTINUOUS
 62
1
 10
4.65625
 20
4.9375
 11
4.75
 21
4.65625
  0
LINE
  8
MountainLine
  6
CONTINUOUS
 62
5
 10
5.03125
 20
4.75
 11
4.75
 21
4.65625
  0
LINE
  8
ValleyLine
  6
CONTINUOUS
 62
1
 10
4.75
 20
4.0
 11
4.75
 21
4.65625
  0
LINE
  8
CutLine
  6
CONTINUOUS
 62
250
 10
4.75
 20
4.0
 11
5.125
 21
4.0
  0
LINE
  8
MountainLine
  6
CONTINUOUS
 62
5
 10
5.03125
 20
4.75
 11
5.125
 21
4.65625
  0
LINE
  8
ValleyLine
  6
CONTINUOUS
 62
1
 10
4.75
 20
4.65625
 11
5.125
 21
4.65625
  0
LINE
  8
ValleyLine
  6
CONTINUOUS
 62
1
 10
5.125
 20
4.65625
 11
5.125
 21
4.0
  0
LINE
  8
CutLine
  6
CONTINUOUS
 62
250
 10
3.53125
 20
4.0
 11
3.71875
 21
4.0
  0
LINE
  8
MountainLine
  6
CONTINUOUS
 62
5
 10
3.625
 20
5.03125
 11
3.71875
 21
4.75
  0
LINE
  8
ValleyLine
  6
CONTINUOUS
 62
1
 10
4.0
 20
4.84375
 11
3.71875
 21
4.75
  0
LINE
  8
MountainLine
  6
CONTINUOUS
 62
5
 10
3.71875
 20
4.0
 11
3.71875
 21
4.75
  0
LINE
  8
CutLine
  6
CONTINUOUS
 62
250
 10
3.71875
 20
4.0
 11
4.09375
 21
4.0
  0
LINE
  8
ValleyLine
  6
CONTINUOUS
 62
1
 10
4.0
 20
4.84375
 11
4.09375
 21
4.75
  0
LINE
  8
MountainLine
  6
CONTINUOUS
 62
5
 10
3.71875
 20
4.75
 11
4.09375
 21
4.75
  0
LINE
  8
MountainLine
  6
CONTINUOUS
 62
5
 10
4.09375
 20
4.75
 11
4.09375
 21
4.0
  0
LINE
  8
CutLine
  6
CONTINUOUS
 62
250
 10
4.09375
 20
4.0
 11
4.1875
 21
4.0
  0
LINE
  8
MountainLine
  6
CONTINUOUS
 62
5
 10
4.09375
 20
4.75
 11
4.1875
 21
4.84375
  0
LINE
  8
ValleyLine
  6
CONTINUOUS
 62
1
 10
4.1875
 20
4.84375
 11
4.1875
 21
4.0
  0
LINE
  8
MountainLine
  6
CONTINUOUS
 62
5
 10
4.65625
 20
4.9375
 11
4.5625
 21
4.84375
  0
LINE
  8
MountainLine
  6
CONTINUOUS
 62
5
 10
4.1875
 20
4.84375
 11
4.5625
 21
4.84375
  0
LINE
  8
CutLine
  6
CONTINUOUS
 62
250
 10
4.75
 20
4.0
 11
4.5625
 21
4.0
  0
LINE
  8
CutLine
  6
CONTINUOUS
 62
250
 10
4.1875
 20
4.0
 11
4.5625
 21
4.0
  0
LINE
  8
MountainLine
  6
CONTINUOUS
 62
5
 10
4.5625
 20
4.84375
 11
4.5625
 21
4.0
  0
LINE
  8
CutLine
  6
CONTINUOUS
 62
250
 10
5.125
 20
4.0
 11
5.21875
 21
4.0
  0
LINE
  8
ValleyLine
  6
CONTINUOUS
 62
1
 10
5.125
 20
4.65625
 11
5.21875
 21
4.75
  0
LINE
  8
MountainLine
  6
CONTINUOUS
 62
5
 10
5.21875
 20
4.75
 11
5.21875
 21
4.0
  0
LINE
  8
ValleyLine
  6
CONTINUOUS
 62
1
 10
5.6875
 20
4.84375
 11
5.59375
 21
4.75
  0
LINE
  8
ValleyLine
  6
CONTINUOUS
 62
1
 10
5.21875
 20
4.75
 11
5.59375
 21
4.75
  0
LINE
  8
CutLine
  6
CONTINUOUS
 62
250
 10
5.21875
 20
4.0
 11
5.59375
 21
4.0
  0
LINE
  8
ValleyLine
  6
CONTINUOUS
 62
1
 10
5.59375
 20
4.75
 11
5.59375
 21
4.0
  0
LINE
  8
CutLine
  6
CONTINUOUS
 62
250
 10
7.0
 20
4.0
 11
5.78125
 21
4.0
  0
LINE
  8
CutLine
  6
CONTINUOUS
 62
250
 10
5.59375
 20
4.0
 11
5.78125
 21
4.0
  0
LINE
  8
CutLine
  6
CONTINUOUS
 62
250
 10
7.0
 20
4.0
 11
7.0
 21
4.5625
  0
LINE
  8
CutLine
  6
CONTINUOUS
 62
250
 10
7.0
 20
4.65625
 11
7.0
 21
4.5625
  0
LINE
  8
ValleyLine
  6
CONTINUOUS
 62
1
 10
6.0625
 20
4.65625
 11
5.78125
 21
4.5625
  0
LINE
  8
MountainLine
  6
CONTINUOUS
 62
5
 10
5.6875
 20
4.84375
 11
5.78125
 21
4.5625
  0
LINE
  8
MountainLine
  6
CONTINUOUS
 62
5
 10
5.78125
 20
4.0
 11
5.78125
 21
4.5625
  0
LINE
  8
MountainLine
  6
CONTINUOUS
 62
5
 10
5.78125
 20
4.5625
 11
7.0
 21
4.5625
  0
LINE
  8
CutLine
  6
CONTINUOUS
 62
250
 10
7.0
 20
5.5
 11
7.0
 21
5.6875
  0
LINE
  8
MountainLine
  6
CONTINUOUS
 62
5
 10
6.8125
 20
5.6875
 11
7.0
 21
5.6875
  0
LINE
  8
CutLine
  6
CONTINUOUS
 62
250
 10
7.0
 20
5.6875
 11
7.0
 21
6.0625
  0
LINE
  8
MountainLine
  6
CONTINUOUS
 62
5
 10
6.8125
 20
6.0625
 11
7.0
 21
6.0625
  0
LINE
  8
ValleyLine
  6
CONTINUOUS
 62
1
 10
5.96875
 20
5.5
 11
5.96875
 21
5.125
  0
LINE
  8
ValleyLine
  6
CONTINUOUS
 62
1
 10
6.0625
 20
5.03125
 11
5.96875
 21
5.125
  0
LINE
  8
CutLine
  6
CONTINUOUS
 62
250
 10
7.0
 20
5.5
 11
7.0
 21
5.125
  0
LINE
  8
CutLine
  6
CONTINUOUS
 62
250
 10
7.0
 20
5.03125
 11
7.0
 21
5.125
  0
LINE
  8
MountainLine
  6
CONTINUOUS
 62
5
 10
5.96875
 20
5.125
 11
7.0
 21
5.125
  0
LINE
  8
CutLine
  6
CONTINUOUS
 62
250
 10
7.0
 20
7.09375
 11
7.0
 21
7.1875
  0
LINE
  8
CutLine
  6
CONTINUOUS
 62
250
 10
7.0
 20
7.5625
 11
7.0
 21
7.1875
  0
LINE
  8
ValleyLine
  6
CONTINUOUS
 62
1
 10
6.25
 20
7.09375
 11
6.15625
 21
7.1875
  0
LINE
  8
ValleyLine
  6
CONTINUOUS
 62
1
 10
6.15625
 20
7.5625
 11
6.15625
 21
7.1875
  0
LINE
  8
MountainLine
  6
CONTINUOUS
 62
5
 10
6.15625
 20
7.1875
 11
7.0
 21
7.1875
  0
LINE
  8
MountainLine
  6
CONTINUOUS
 62
5
 10
6.15625
 20
6.0625
 11
6.0625
 21
6.15625
  0
LINE
  8
MountainLine
  6
CONTINUOUS
 62
5
 10
6.0625
 20
6.53125
 11
6.0625
 21
6.15625
  0
LINE
  8
CutLine
  6
CONTINUOUS
 62
250
 10
7.0
 20
6.53125
 11
7.0
 21
6.15625
  0
LINE
  8
CutLine
  6
CONTINUOUS
 62
250
 10
7.0
 20
6.0625
 11
7.0
 21
6.15625
  0
LINE
  8
ValleyLine
  6
CONTINUOUS
 62
1
 10
6.0625
 20
6.15625
 11
7.0
 21
6.15625
  0
LINE
  8
CutLine
  6
CONTINUOUS
 62
250
 10
7.0
 20
8.59375
 11
7.0
 21
8.21875
  0
LINE
  8
CutLine
  6
CONTINUOUS
 62
250
 10
7.0
 20
8.125
 11
7.0
 21
8.21875
  0
LINE
  8
MountainLine
  6
CONTINUOUS
 62
5
 10
6.34375
 20
8.125
 11
6.25
 21
8.21875
  0
LINE
  8
MountainLine
  6
CONTINUOUS
 62
5
 10
6.25
 20
8.59375
 11
6.25
 21
8.21875
  0
LINE
  8
ValleyLine
  6
CONTINUOUS
 62
1
 10
6.25
 20
8.21875
 11
7.0
 21
8.21875
  0
LINE
  8
MountainLine
  6
CONTINUOUS
 62
5
 10
2.96875
 20
9.25
 11
2.875
 21
9.15625
  0
LINE
  8
ValleyLine
  6
CONTINUOUS
 62
1
 10
3.0625
 20
8.96875
 11
2.96875
 21
8.875
  0
LINE
  8
MountainLine
  6
CONTINUOUS
 62
5
 10
3.0625
 20
8.78125
 11
2.96875
 21
8.875
  0
LINE
  8
MountainLine
  6
CONTINUOUS
 62
5
 10
2.40625
 20
9.25
 11
2.5
 21
9.15625
  0
LINE
  8
ValleyLine
  6
CONTINUOUS
 62
1
 10
2.78125
 20
9.25
 11
2.875
 21
9.15625
  0
LINE
  8
MountainLine
  6
CONTINUOUS
 62
5
 10
2.96875
 20
8.875
 11
2.875
 21
9.15625
  0
LINE
  8
MountainLine
  6
CONTINUOUS
 62
5
 10
2.5
 20
9.15625
 11
2.875
 21
9.15625
  0
LINE
  8
MountainLine
  6
CONTINUOUS
 62
5
 10
2.03125
 20
9.0625
 11
2.125
 21
8.96875
  0
LINE
  8
ValleyLine
  6
CONTINUOUS
 62
1
 10
2.3125
 20
9.15625
 11
2.40625
 21
9.0625
  0
LINE
  8
MountainLine
  6
CONTINUOUS
 62
5
 10
2.5
 20
9.15625
 11
2.40625
 21
9.0625
  0
LINE
  8
ValleyLine
  6
CONTINUOUS
 62
1
 10
2.5
 20
9.15625
 11
2.5
 21
8.78125
  0
LINE
  8
MountainLine
  6
CONTINUOUS
 62
5
 10
2.03125
 20
8.5
 11
2.125
 21
8.59375
  0
LINE
  8
ValleyLine
  6
CONTINUOUS
 62
1
 10
2.03125
 20
8.875
 11
2.125
 21
8.96875
  0
LINE
  8
MountainLine
  6
CONTINUOUS
 62
5
 10
2.40625
 20
9.0625
 11
2.125
 21
8.96875
  0
LINE
  8
MountainLine
  6
CONTINUOUS
 62
5
 10
2.125
 20
8.59375
 11
2.125
 21
8.96875
  0
LINE
  8
MountainLine
  6
CONTINUOUS
 62
5
 10
2.21875
 20
8.125
 11
2.3125
 21
8.21875
  0
LINE
  8
MountainLine
  6
CONTINUOUS
 62
5
 10
2.875
 20
9.15625
 11
2.5
 21
8.78125
  0
LINE
  8
MountainLine
  6
CONTINUOUS
 62
5
 10
2.40625
 20
9.0625
 11
2.5
 21
8.78125
  0
LINE
  8
ValleyLine
  6
CONTINUOUS
 62
1
 10
2.125
 20
8.96875
 11
2.5
 21
8.78125
  0
LINE
  8
ValleyLine
  6
CONTINUOUS
 62
1
 10
2.125
 20
8.40625
 11
2.21875
 21
8.5
  0
LINE
  8
MountainLine
  6
CONTINUOUS
 62
5
 10
2.125
 20
8.59375
 11
2.21875
 21
8.5
  0
LINE
  8
ValleyLine
  6
CONTINUOUS
 62
1
 10
2.125
 20
8.59375
 11
2.5
 21
8.59375
  0
LINE
  8
MountainLine
  6
CONTINUOUS
 62
5
 10
2.21875
 20
8.5
 11
2.3125
 21
8.21875
  0
LINE
  8
MountainLine
  6
CONTINUOUS
 62
5
 10
2.6875
 20
8.21875
 11
2.3125
 21
8.21875
  0
LINE
  8
MountainLine
  6
CONTINUOUS
 62
5
 10
3.15625
 20
8.3125
 11
3.0625
 21
8.40625
  0
LINE
  8
MountainLine
  6
CONTINUOUS
 62
5
 10
3.0625
 20
8.78125
 11
3.0625
 21
8.40625
  0
LINE
  8
ValleyLine
  6
CONTINUOUS
 62
1
 10
3.0625
 20
8.78125
 11
2.6875
 21
8.78125
  0
LINE
  8
MountainLine
  6
CONTINUOUS
 62
5
 10
2.96875
 20
8.875
 11
2.6875
 21
8.78125
  0
LINE
  8
ValleyLine
  6
CONTINUOUS
 62
1
 10
2.875
 20
9.15625
 11
2.6875
 21
8.78125
  0
LINE
  8
ValleyLine
  6
CONTINUOUS
 62
1
 10
2.5
 20
8.78125
 11
2.6875
 21
8.78125
  0
LINE
  8
MountainLine
  6
CONTINUOUS
 62
5
 10
3.0625
 20
8.40625
 11
2.6875
 21
8.78125
  0
LINE
  8
MountainLine
  6
CONTINUOUS
 62
5
 10
2.125
 20
8.96875
 11
2.5
 21
8.59375
  0
LINE
  8
ValleyLine
  6
CONTINUOUS
 62
1
 10
2.5
 20
8.78125
 11
2.5
 21
8.59375
  0
LINE
  8
MountainLine
  6
CONTINUOUS
 62
5
 10
2.21875
 20
8.5
 11
2.5
 21
8.59375
  0
LINE
  8
ValleyLine
  6
CONTINUOUS
 62
1
 10
2.3125
 20
8.21875
 11
2.5
 21
8.59375
  0
LINE
  8
ValleyLine
  6
CONTINUOUS
 62
1
 10
2.875
 20
8.21875
 11
2.78125
 21
8.3125
  0
LINE
  8
MountainLine
  6
CONTINUOUS
 62
5
 10
2.6875
 20
8.21875
 11
2.78125
 21
8.3125
  0
LINE
  8
MountainLine
  6
CONTINUOUS
 62
5
 10
3.0625
 20
8.40625
 11
2.78125
 21
8.3125
  0
LINE
  8
ValleyLine
  6
CONTINUOUS
 62
1
 10
2.6875
 20
8.21875
 11
2.6875
 21
8.59375
  0
LINE
  8
MountainLine
  6
CONTINUOUS
 62
5
 10
2.3125
 20
8.21875
 11
2.6875
 21
8.59375
  0
LINE
  8
ValleyLine
  6
CONTINUOUS
 62
1
 10
3.0625
 20
8.40625
 11
2.6875
 21
8.59375
  0
LINE
  8
ValleyLine
  6
CONTINUOUS
 62
1
 10
2.6875
 20
8.78125
 11
2.6875
 21
8.59375
  0
LINE
  8
ValleyLine
  6
CONTINUOUS
 62
1
 10
2.5
 20
8.59375
 11
2.6875
 21
8.59375
  0
LINE
  8
MountainLine
  6
CONTINUOUS
 62
5
 10
2.6875
 20
8.59375
 11
2.78125
 21
8.3125
  0
LINE
  8
MountainLine
  6
CONTINUOUS
 62
5
 10
4.84375
 20
7.0
 11
4.75
 21
6.90625
  0
LINE
  8
ValleyLine
  6
CONTINUOUS
 62
1
 10
4.9375
 20
6.71875
 11
4.84375
 21
6.625
  0
LINE
  8
MountainLine
  6
CONTINUOUS
 62
5
 10
4.9375
 20
6.53125
 11
4.84375
 21
6.625
  0
LINE
  8
MountainLine
  6
CONTINUOUS
 62
5
 10
4.28125
 20
7.0
 11
4.375
 21
6.90625
  0
LINE
  8
ValleyLine
  6
CONTINUOUS
 62
1
 10
4.65625
 20
7.0
 11
4.75
 21
6.90625
  0
LINE
  8
MountainLine
  6
CONTINUOUS
 62
5
 10
4.84375
 20
6.625
 11
4.75
 21
6.90625
  0
LINE
  8
MountainLine
  6
CONTINUOUS
 62
5
 10
4.375
 20
6.90625
 11
4.75
 21
6.90625
  0
LINE
  8
MountainLine
  6
CONTINUOUS
 62
5
 10
3.90625
 20
6.8125
 11
4.0
 21
6.71875
  0
LINE
  8
ValleyLine
  6
CONTINUOUS
 62
1
 10
4.1875
 20
6.90625
 11
4.28125
 21
6.8125
  0
LINE
  8
MountainLine
  6
CONTINUOUS
 62
5
 10
4.375
 20
6.90625
 11
4.28125
 21
6.8125
  0
LINE
  8
ValleyLine
  6
CONTINUOUS
 62
1
 10
4.375
 20
6.90625
 11
4.375
 21
6.53125
  0
LINE
  8
MountainLine
  6
CONTINUOUS
 62
5
 10
4.28125
 20
6.8125
 11
4.0
 21
6.71875
  0
LINE
  8
MountainLine
  6
CONTINUOUS
 62
5
 10
4.0
 20
6.34375
 11
4.0
 21
6.71875
  0
LINE
  8
MountainLine
  6
CONTINUOUS
 62
5
 10
4.09375
 20
5.875
 11
4.1875
 21
5.96875
  0
LINE
  8
MountainLine
  6
CONTINUOUS
 62
5
 10
4.75
 20
6.90625
 11
4.375
 21
6.53125
  0
LINE
  8
MountainLine
  6
CONTINUOUS
 62
5
 10
4.28125
 20
6.8125
 11
4.375
 21
6.53125
  0
LINE
  8
ValleyLine
  6
CONTINUOUS
 62
1
 10
4.0
 20
6.71875
 11
4.375
 21
6.53125
  0
LINE
  8
ValleyLine
  6
CONTINUOUS
 62
1
 10
4.0
 20
6.15625
 11
4.09375
 21
6.25
  0
LINE
  8
MountainLine
  6
CONTINUOUS
 62
5
 10
4.0
 20
6.34375
 11
4.09375
 21
6.25
  0
LINE
  8
ValleyLine
  6
CONTINUOUS
 62
1
 10
4.0
 20
6.34375
 11
4.375
 21
6.34375
  0
LINE
  8
MountainLine
  6
CONTINUOUS
 62
5
 10
4.09375
 20
6.25
 11
4.1875
 21
5.96875
  0
LINE
  8
MountainLine
  6
CONTINUOUS
 62
5
 10
4.5625
 20
5.96875
 11
4.1875
 21
5.96875
  0
LINE
  8
MountainLine
  6
CONTINUOUS
 62
5
 10
5.03125
 20
6.0625
 11
4.9375
 21
6.15625
  0
LINE
  8
MountainLine
  6
CONTINUOUS
 62
5
 10
4.9375
 20
6.53125
 11
4.9375
 21
6.15625
  0
LINE
  8
ValleyLine
  6
CONTINUOUS
 62
1
 10
4.9375
 20
6.53125
 11
4.5625
 21
6.53125
  0
LINE
  8
MountainLine
  6
CONTINUOUS
 62
5
 10
4.84375
 20
6.625
 11
4.5625
 21
6.53125
  0
LINE
  8
ValleyLine
  6
CONTINUOUS
 62
1
 10
4.75
 20
6.90625
 11
4.5625
 21
6.53125
  0
LINE
  8
ValleyLine
  6
CONTINUOUS
 62
1
 10
4.375
 20
6.53125
 11
4.5625
 21
6.53125
  0
LINE
  8
MountainLine
  6
CONTINUOUS
 62
5
 10
4.9375
 20
6.15625
 11
4.5625
 21
6.53125
  0
LINE
  8
MountainLine
  6
CONTINUOUS
 62
5
 10
4.0
 20
6.71875
 11
4.375
 21
6.34375
  0
LINE
  8
ValleyLine
  6
CONTINUOUS
 62
1
 10
4.375
 20
6.53125
 11
4.375
 21
6.34375
  0
LINE
  8
MountainLine
  6
CONTINUOUS
 62
5
 10
4.09375
 20
6.25
 11
4.375
 21
6.34375
  0
LINE
  8
ValleyLine
  6
CONTINUOUS
 62
1
 10
4.1875
 20
5.96875
 11
4.375
 21
6.34375
  0
LINE
  8
ValleyLine
  6
CONTINUOUS
 62
1
 10
4.75
 20
5.96875
 11
4.65625
 21
6.0625
  0
LINE
  8
MountainLine
  6
CONTINUOUS
 62
5
 10
4.5625
 20
5.96875
 11
4.65625
 21
6.0625
  0
LINE
  8
MountainLine
  6
CONTINUOUS
 62
5
 10
4.9375
 20
6.15625
 11
4.65625
 21
6.0625
  0
LINE
  8
ValleyLine
  6
CONTINUOUS
 62
1
 10
4.5625
 20
5.96875
 11
4.5625
 21
6.34375
  0
LINE
  8
MountainLine
  6
CONTINUOUS
 62
5
 10
4.1875
 20
5.96875
 11
4.5625
 21
6.34375
  0
LINE
  8
ValleyLine
  6
CONTINUOUS
 62
1
 10
4.9375
 20
6.15625
 11
4.5625
 21
6.34375
  0
LINE
  8
ValleyLine
  6
CONTINUOUS
 62
1
 10
4.5625
 20
6.53125
 11
4.5625
 21
6.34375
  0
LINE
  8
ValleyLine
  6
CONTINUOUS
 62
1
 10
4.375
 20
6.34375
 11
4.5625
 21
6.34375
  0
LINE
  8
MountainLine
  6
CONTINUOUS
 62
5
 10
4.5625
 20
6.34375
 11
4.65625
 21
6.0625
  0
LINE
  8
MountainLine
  6
CONTINUOUS
 62
5
 10
6.15625
 20
7.5625
 11
6.0625
 21
7.46875
  0
LINE
  8
MountainLine
  6
CONTINUOUS
 62
5
 10
5.96875
 20
7.9375
 11
5.875
 21
7.84375
  0
LINE
  8
ValleyLine
  6
CONTINUOUS
 62
1
 10
6.0625
 20
7.65625
 11
5.96875
 21
7.5625
  0
LINE
  8
MountainLine
  6
CONTINUOUS
 62
5
 10
6.0625
 20
7.46875
 11
5.96875
 21
7.5625
  0
LINE
  8
MountainLine
  6
CONTINUOUS
 62
5
 10
5.96875
 20
7.5625
 11
5.875
 21
7.84375
  0
LINE
  8
MountainLine
  6
CONTINUOUS
 62
5
 10
5.5
 20
7.84375
 11
5.875
 21
7.84375
  0
LINE
  8
MountainLine
  6
CONTINUOUS
 62
5
 10
5.03125
 20
7.75
 11
5.125
 21
7.65625
  0
LINE
  8
ValleyLine
  6
CONTINUOUS
 62
1
 10
5.3125
 20
7.84375
 11
5.40625
 21
7.75
  0
LINE
  8
MountainLine
  6
CONTINUOUS
 62
5
 10
5.5
 20
7.84375
 11
5.40625
 21
7.75
  0
LINE
  8
ValleyLine
  6
CONTINUOUS
 62
1
 10
5.5
 20
7.84375
 11
5.5
 21
7.46875
  0
LINE
  8
MountainLine
  6
CONTINUOUS
 62
5
 10
5.03125
 20
7.1875
 11
5.125
 21
7.28125
  0
LINE
  8
ValleyLine
  6
CONTINUOUS
 62
1
 10
5.03125
 20
7.5625
 11
5.125
 21
7.65625
  0
LINE
  8
MountainLine
  6
CONTINUOUS
 62
5
 10
5.40625
 20
7.75
 11
5.125
 21
7.65625
  0
LINE
  8
MountainLine
  6
CONTINUOUS
 62
5
 10
5.125
 20
7.28125
 11
5.125
 21
7.65625
  0
LINE
  8
MountainLine
  6
CONTINUOUS
 62
5
 10
5.21875
 20
6.8125
 11
5.3125
 21
6.90625
  0
LINE
  8
MountainLine
  6
CONTINUOUS
 62
5
 10
5.875
 20
7.84375
 11
5.5
 21
7.46875
  0
LINE
  8
MountainLine
  6
CONTINUOUS
 62
5
 10
5.40625
 20
7.75
 11
5.5
 21
7.46875
  0
LINE
  8
ValleyLine
  6
CONTINUOUS
 62
1
 10
5.125
 20
7.65625
 11
5.5
 21
7.46875
  0
LINE
  8
ValleyLine
  6
CONTINUOUS
 62
1
 10
5.125
 20
7.09375
 11
5.21875
 21
7.1875
  0
LINE
  8
MountainLine
  6
CONTINUOUS
 62
5
 10
5.125
 20
7.28125
 11
5.21875
 21
7.1875
  0
LINE
  8
ValleyLine
  6
CONTINUOUS
 62
1
 10
5.125
 20
7.28125
 11
5.5
 21
7.28125
  0
LINE
  8
MountainLine
  6
CONTINUOUS
 62
5
 10
5.21875
 20
7.1875
 11
5.3125
 21
6.90625
  0
LINE
  8
MountainLine
  6
CONTINUOUS
 62
5
 10
5.6875
 20
6.90625
 11
5.3125
 21
6.90625
  0
LINE
  8
MountainLine
  6
CONTINUOUS
 62
5
 10
6.15625
 20
7.0
 11
6.0625
 21
7.09375
  0
LINE
  8
ValleyLine
  6
CONTINUOUS
 62
1
 10
6.15625
 20
7.1875
 11
6.0625
 21
7.09375
  0
LINE
  8
MountainLine
  6
CONTINUOUS
 62
5
 10
6.0625
 20
7.46875
 11
6.0625
 21
7.09375
  0
LINE
  8
ValleyLine
  6
CONTINUOUS
 62
1
 10
6.0625
 20
7.46875
 11
5.6875
 21
7.46875
  0
LINE
  8
MountainLine
  6
CONTINUOUS
 62
5
 10
5.96875
 20
7.5625
 11
5.6875
 21
7.46875
  0
LINE
  8
ValleyLine
  6
CONTINUOUS
 62
1
 10
5.875
 20
7.84375
 11
5.6875
 21
7.46875
  0
LINE
  8
ValleyLine
  6
CONTINUOUS
 62
1
 10
5.5
 20
7.46875
 11
5.6875
 21
7.46875
  0
LINE
  8
MountainLine
  6
CONTINUOUS
 62
5
 10
6.0625
 20
7.09375
 11
5.6875
 21
7.46875
  0
LINE
  8
MountainLine
  6
CONTINUOUS
 62
5
 10
5.125
 20
7.65625
 11
5.5
 21
7.28125
  0
LINE
  8
ValleyLine
  6
CONTINUOUS
 62
1
 10
5.5
 20
7.46875
 11
5.5
 21
7.28125
  0
LINE
  8
MountainLine
  6
CONTINUOUS
 62
5
 10
5.21875
 20
7.1875
 11
5.5
 21
7.28125
  0
LINE
  8
ValleyLine
  6
CONTINUOUS
 62
1
 10
5.3125
 20
6.90625
 11
5.5
 21
7.28125
  0
LINE
  8
ValleyLine
  6
CONTINUOUS
 62
1
 10
5.875
 20
6.90625
 11
5.78125
 21
7.0
  0
LINE
  8
MountainLine
  6
CONTINUOUS
 62
5
 10
5.6875
 20
6.90625
 11
5.78125
 21
7.0
  0
LINE
  8
MountainLine
  6
CONTINUOUS
 62
5
 10
6.0625
 20
7.09375
 11
5.78125
 21
7.0
  0
LINE
  8
ValleyLine
  6
CONTINUOUS
 62
1
 10
5.6875
 20
6.90625
 11
5.6875
 21
7.28125
  0
LINE
  8
MountainLine
  6
CONTINUOUS
 62
5
 10
5.3125
 20
6.90625
 11
5.6875
 21
7.28125
  0
LINE
  8
ValleyLine
  6
CONTINUOUS
 62
1
 10
6.0625
 20
7.09375
 11
5.6875
 21
7.28125
  0
LINE
  8
ValleyLine
  6
CONTINUOUS
 62
1
 10
5.6875
 20
7.46875
 11
5.6875
 21
7.28125
  0
LINE
  8
ValleyLine
  6
CONTINUOUS
 62
1
 10
5.5
 20
7.28125
 11
5.6875
 21
7.28125
  0
LINE
  8
MountainLine
  6
CONTINUOUS
 62
5
 10
5.6875
 20
7.28125
 11
5.78125
 21
7.0
  0
LINE
  8
MountainLine
  6
CONTINUOUS
 62
5
 10
5.03125
 20
9.0625
 11
4.9375
 21
8.96875
  0
LINE
  8
ValleyLine
  6
CONTINUOUS
 62
1
 10
5.125
 20
8.78125
 11
5.03125
 21
8.6875
  0
LINE
  8
MountainLine
  6
CONTINUOUS
 62
5
 10
5.125
 20
8.59375
 11
5.03125
 21
8.6875
  0
LINE
  8
MountainLine
  6
CONTINUOUS
 62
5
 10
4.46875
 20
9.0625
 11
4.5625
 21
8.96875
  0
LINE
  8
ValleyLine
  6
CONTINUOUS
 62
1
 10
4.84375
 20
9.0625
 11
4.9375
 21
8.96875
  0
LINE
  8
MountainLine
  6
CONTINUOUS
 62
5
 10
5.03125
 20
8.6875
 11
4.9375
 21
8.96875
  0
LINE
  8
MountainLine
  6
CONTINUOUS
 62
5
 10
4.5625
 20
8.96875
 11
4.9375
 21
8.96875
  0
LINE
  8
MountainLine
  6
CONTINUOUS
 62
5
 10
4.09375
 20
8.875
 11
4.1875
 21
8.78125
  0
LINE
  8
ValleyLine
  6
CONTINUOUS
 62
1
 10
4.375
 20
8.96875
 11
4.46875
 21
8.875
  0
LINE
  8
MountainLine
  6
CONTINUOUS
 62
5
 10
4.5625
 20
8.96875
 11
4.46875
 21
8.875
  0
LINE
  8
ValleyLine
  6
CONTINUOUS
 62
1
 10
4.5625
 20
8.96875
 11
4.5625
 21
8.59375
  0
LINE
  8
MountainLine
  6
CONTINUOUS
 62
5
 10
4.46875
 20
8.875
 11
4.1875
 21
8.78125
  0
LINE
  8
MountainLine
  6
CONTINUOUS
 62
5
 10
4.1875
 20
8.40625
 11
4.1875
 21
8.78125
  0
LINE
  8
MountainLine
  6
CONTINUOUS
 62
5
 10
4.28125
 20
7.9375
 11
4.375
 21
8.03125
  0
LINE
  8
MountainLine
  6
CONTINUOUS
 62
5
 10
4.9375
 20
8.96875
 11
4.5625
 21
8.59375
  0
LINE
  8
MountainLine
  6
CONTINUOUS
 62
5
 10
4.46875
 20
8.875
 11
4.5625
 21
8.59375
  0
LINE
  8
ValleyLine
  6
CONTINUOUS
 62
1
 10
4.1875
 20
8.78125
 11
4.5625
 21
8.59375
  0
LINE
  8
ValleyLine
  6
CONTINUOUS
 62
1
 10
4.1875
 20
8.21875
 11
4.28125
 21
8.3125
  0
LINE
  8
MountainLine
  6
CONTINUOUS
 62
5
 10
4.1875
 20
8.40625
 11
4.28125
 21
8.3125
  0
LINE
  8
ValleyLine
  6
CONTINUOUS
 62
1
 10
4.1875
 20
8.40625
 11
4.5625
 21
8.40625
  0
LINE
  8
MountainLine
  6
CONTINUOUS
 62
5
 10
4.84375
 20
7.9375
 11
4.75
 21
8.03125
  0
LINE
  8
ValleyLine
  6
CONTINUOUS
 62
1
 10
4.46875
 20
7.9375
 11
4.375
 21
8.03125
  0
LINE
  8
MountainLine
  6
CONTINUOUS
 62
5
 10
4.28125
 20
8.3125
 11
4.375
 21
8.03125
  0
LINE
  8
MountainLine
  6
CONTINUOUS
 62
5
 10
4.75
 20
8.03125
 11
4.375
 21
8.03125
  0
LINE
  8
MountainLine
  6
CONTINUOUS
 62
5
 10
5.21875
 20
8.125
 11
5.125
 21
8.21875
  0
LINE
  8
MountainLine
  6
CONTINUOUS
 62
5
 10
5.125
 20
8.59375
 11
5.125
 21
8.21875
  0
LINE
  8
ValleyLine
  6
CONTINUOUS
 62
1
 10
5.125
 20
8.59375
 11
4.75
 21
8.59375
  0
LINE
  8
MountainLine
  6
CONTINUOUS
 62
5
 10
5.03125
 20
8.6875
 11
4.75
 21
8.59375
  0
LINE
  8
ValleyLine
  6
CONTINUOUS
 62
1
 10
4.9375
 20
8.96875
 11
4.75
 21
8.59375
  0
LINE
  8
ValleyLine
  6
CONTINUOUS
 62
1
 10
4.5625
 20
8.59375
 11
4.75
 21
8.59375
  0
LINE
  8
MountainLine
  6
CONTINUOUS
 62
5
 10
5.125
 20
8.21875
 11
4.75
 21
8.59375
  0
LINE
  8
MountainLine
  6
CONTINUOUS
 62
5
 10
4.1875
 20
8.78125
 11
4.5625
 21
8.40625
  0
LINE
  8
ValleyLine
  6
CONTINUOUS
 62
1
 10
4.5625
 20
8.59375
 11
4.5625
 21
8.40625
  0
LINE
  8
MountainLine
  6
CONTINUOUS
 62
5
 10
4.28125
 20
8.3125
 11
4.5625
 21
8.40625
  0
LINE
  8
ValleyLine
  6
CONTINUOUS
 62
1
 10
4.375
 20
8.03125
 11
4.5625
 21
8.40625
  0
LINE
  8
ValleyLine
  6
CONTINUOUS
 62
1
 10
4.9375
 20
8.03125
 11
4.84375
 21
8.125
  0
LINE
  8
MountainLine
  6
CONTINUOUS
 62
5
 10
4.75
 20
8.03125
 11
4.84375
 21
8.125
  0
LINE
  8
MountainLine
  6
CONTINUOUS
 62
5
 10
5.125
 20
8.21875
 11
4.84375
 21
8.125
  0
LINE
  8
ValleyLine
  6
CONTINUOUS
 62
1
 10
4.75
 20
8.03125
 11
4.75
 21
8.40625
  0
LINE
  8
MountainLine
  6
CONTINUOUS
 62
5
 10
4.375
 20
8.03125
 11
4.75
 21
8.40625
  0
LINE
  8
ValleyLine
  6
CONTINUOUS
 62
1
 10
5.125
 20
8.21875
 11
4.75
 21
8.40625
  0
LINE
  8
ValleyLine
  6
CONTINUOUS
 62
1
 10
4.75
 20
8.59375
 11
4.75
 21
8.40625
  0
LINE
  8
ValleyLine
  6
CONTINUOUS
 62
1
 10
4.5625
 20
8.40625
 11
4.75
 21
8.40625
  0
LINE
  8
MountainLine
  6
CONTINUOUS
 62
5
 10
4.75
 20
8.40625
 11
4.84375
 21
8.125
  0
LINE
  8
MountainLine
  6
CONTINUOUS
 62
5
 10
2.78125
 20
7.1875
 11
2.6875
 21
7.09375
  0
LINE
  8
ValleyLine
  6
CONTINUOUS
 62
1
 10
2.875
 20
6.90625
 11
2.78125
 21
6.8125
  0
LINE
  8
MountainLine
  6
CONTINUOUS
 62
5
 10
2.875
 20
6.71875
 11
2.78125
 21
6.8125
  0
LINE
  8
MountainLine
  6
CONTINUOUS
 62
5
 10
2.78125
 20
6.8125
 11
2.6875
 21
7.09375
  0
LINE
  8
MountainLine
  6
CONTINUOUS
 62
5
 10
2.3125
 20
7.09375
 11
2.6875
 21
7.09375
  0
LINE
  8
MountainLine
  6
CONTINUOUS
 62
5
 10
1.84375
 20
7.0
 11
1.9375
 21
6.90625
  0
LINE
  8
ValleyLine
  6
CONTINUOUS
 62
1
 10
2.125
 20
7.09375
 11
2.21875
 21
7.0
  0
LINE
  8
MountainLine
  6
CONTINUOUS
 62
5
 10
2.3125
 20
7.09375
 11
2.21875
 21
7.0
  0
LINE
  8
ValleyLine
  6
CONTINUOUS
 62
1
 10
2.3125
 20
7.09375
 11
2.3125
 21
6.71875
  0
LINE
  8
MountainLine
  6
CONTINUOUS
 62
5
 10
1.84375
 20
6.4375
 11
1.9375
 21
6.53125
  0
LINE
  8
ValleyLine
  6
CONTINUOUS
 62
1
 10
1.84375
 20
6.8125
 11
1.9375
 21
6.90625
  0
LINE
  8
MountainLine
  6
CONTINUOUS
 62
5
 10
2.21875
 20
7.0
 11
1.9375
 21
6.90625
  0
LINE
  8
MountainLine
  6
CONTINUOUS
 62
5
 10
1.9375
 20
6.53125
 11
1.9375
 21
6.90625
  0
LINE
  8
MountainLine
  6
CONTINUOUS
 62
5
 10
2.03125
 20
6.0625
 11
2.125
 21
6.15625
  0
LINE
  8
MountainLine
  6
CONTINUOUS
 62
5
 10
2.6875
 20
7.09375
 11
2.3125
 21
6.71875
  0
LINE
  8
MountainLine
  6
CONTINUOUS
 62
5
 10
2.21875
 20
7.0
 11
2.3125
 21
6.71875
  0
LINE
  8
ValleyLine
  6
CONTINUOUS
 62
1
 10
1.9375
 20
6.90625
 11
2.3125
 21
6.71875
  0
LINE
  8
ValleyLine
  6
CONTINUOUS
 62
1
 10
1.9375
 20
6.34375
 11
2.03125
 21
6.4375
  0
LINE
  8
MountainLine
  6
CONTINUOUS
 62
5
 10
1.9375
 20
6.53125
 11
2.03125
 21
6.4375
  0
LINE
  8
ValleyLine
  6
CONTINUOUS
 62
1
 10
1.9375
 20
6.53125
 11
2.3125
 21
6.53125
  0
LINE
  8
MountainLine
  6
CONTINUOUS
 62
5
 10
2.03125
 20
6.4375
 11
2.125
 21
6.15625
  0
LINE
  8
MountainLine
  6
CONTINUOUS
 62
5
 10
2.5
 20
6.15625
 11
2.125
 21
6.15625
  0
LINE
  8
MountainLine
  6
CONTINUOUS
 62
5
 10
2.96875
 20
6.25
 11
2.875
 21
6.34375
  0
LINE
  8
MountainLine
  6
CONTINUOUS
 62
5
 10
2.875
 20
6.71875
 11
2.875
 21
6.34375
  0
LINE
  8
ValleyLine
  6
CONTINUOUS
 62
1
 10
2.875
 20
6.71875
 11
2.5
 21
6.71875
  0
LINE
  8
MountainLine
  6
CONTINUOUS
 62
5
 10
2.78125
 20
6.8125
 11
2.5
 21
6.71875
  0
LINE
  8
ValleyLine
  6
CONTINUOUS
 62
1
 10
2.6875
 20
7.09375
 11
2.5
 21
6.71875
  0
LINE
  8
ValleyLine
  6
CONTINUOUS
 62
1
 10
2.3125
 20
6.71875
 11
2.5
 21
6.71875
  0
LINE
  8
MountainLine
  6
CONTINUOUS
 62
5
 10
2.875
 20
6.34375
 11
2.5
 21
6.71875
  0
LINE
  8
MountainLine
  6
CONTINUOUS
 62
5
 10
1.9375
 20
6.90625
 11
2.3125
 21
6.53125
  0
LINE
  8
ValleyLine
  6
CONTINUOUS
 62
1
 10
2.3125
 20
6.71875
 11
2.3125
 21
6.53125
  0
LINE
  8
MountainLine
  6
CONTINUOUS
 62
5
 10
2.03125
 20
6.4375
 11
2.3125
 21
6.53125
  0
LINE
  8
ValleyLine
  6
CONTINUOUS
 62
1
 10
2.125
 20
6.15625
 11
2.3125
 21
6.53125
  0
LINE
  8
ValleyLine
  6
CONTINUOUS
 62
1
 10
2.6875
 20
6.15625
 11
2.59375
 21
6.25
  0
LINE
  8
MountainLine
  6
CONTINUOUS
 62
5
 10
2.5
 20
6.15625
 11
2.59375
 21
6.25
  0
LINE
  8
MountainLine
  6
CONTINUOUS
 62
5
 10
2.875
 20
6.34375
 11
2.59375
 21
6.25
  0
LINE
  8
ValleyLine
  6
CONTINUOUS
 62
1
 10
2.5
 20
6.15625
 11
2.5
 21
6.53125
  0
LINE
  8
MountainLine
  6
CONTINUOUS
 62
5
 10
2.125
 20
6.15625
 11
2.5
 21
6.53125
  0
LINE
  8
ValleyLine
  6
CONTINUOUS
 62
1
 10
2.875
 20
6.34375
 11
2.5
 21
6.53125
  0
LINE
  8
ValleyLine
  6
CONTINUOUS
 62
1
 10
2.5
 20
6.71875
 11
2.5
 21
6.53125
  0
LINE
  8
ValleyLine
  6
CONTINUOUS
 62
1
 10
2.3125
 20
6.53125
 11
2.5
 21
6.53125
  0
LINE
  8
MountainLine
  6
CONTINUOUS
 62
5
 10
2.5
 20
6.53125
 11
2.59375
 21
6.25
  0
LINE
  8
MountainLine
  6
CONTINUOUS
 62
5
 10
5.96875
 20
5.5
 11
5.875
 21
5.40625
  0
LINE
  8
MountainLine
  6
CONTINUOUS
 62
5
 10
5.78125
 20
5.875
 11
5.6875
 21
5.78125
  0
LINE
  8
ValleyLine
  6
CONTINUOUS
 62
1
 10
5.875
 20
5.59375
 11
5.78125
 21
5.5
  0
LINE
  8
MountainLine
  6
CONTINUOUS
 62
5
 10
5.875
 20
5.40625
 11
5.78125
 21
5.5
  0
LINE
  8
MountainLine
  6
CONTINUOUS
 62
5
 10
5.78125
 20
5.5
 11
5.6875
 21
5.78125
  0
LINE
  8
MountainLine
  6
CONTINUOUS
 62
5
 10
5.3125
 20
5.78125
 11
5.6875
 21
5.78125
  0
LINE
  8
MountainLine
  6
CONTINUOUS
 62
5
 10
4.84375
 20
5.6875
 11
4.9375
 21
5.59375
  0
LINE
  8
ValleyLine
  6
CONTINUOUS
 62
1
 10
5.125
 20
5.78125
 11
5.21875
 21
5.6875
  0
LINE
  8
MountainLine
  6
CONTINUOUS
 62
5
 10
5.3125
 20
5.78125
 11
5.21875
 21
5.6875
  0
LINE
  8
ValleyLine
  6
CONTINUOUS
 62
1
 10
5.3125
 20
5.78125
 11
5.3125
 21
5.40625
  0
LINE
  8
MountainLine
  6
CONTINUOUS
 62
5
 10
5.21875
 20
5.6875
 11
4.9375
 21
5.59375
  0
LINE
  8
MountainLine
  6
CONTINUOUS
 62
5
 10
4.9375
 20
5.21875
 11
4.9375
 21
5.59375
  0
LINE
  8
MountainLine
  6
CONTINUOUS
 62
5
 10
5.03125
 20
4.75
 11
5.125
 21
4.84375
  0
LINE
  8
MountainLine
  6
CONTINUOUS
 62
5
 10
5.6875
 20
5.78125
 11
5.3125
 21
5.40625
  0
LINE
  8
MountainLine
  6
CONTINUOUS
 62
5
 10
5.21875
 20
5.6875
 11
5.3125
 21
5.40625
  0
LINE
  8
ValleyLine
  6
CONTINUOUS
 62
1
 10
4.9375
 20
5.59375
 11
5.3125
 21
5.40625
  0
LINE
  8
ValleyLine
  6
CONTINUOUS
 62
1
 10
4.9375
 20
5.21875
 11
5.3125
 21
5.21875
  0
LINE
  8
MountainLine
  6
CONTINUOUS
 62
5
 10
5.59375
 20
4.75
 11
5.5
 21
4.84375
  0
LINE
  8
ValleyLine
  6
CONTINUOUS
 62
1
 10
5.21875
 20
4.75
 11
5.125
 21
4.84375
  0
LINE
  8
MountainLine
  6
CONTINUOUS
 62
5
 10
5.5
 20
4.84375
 11
5.125
 21
4.84375
  0
LINE
  8
MountainLine
  6
CONTINUOUS
 62
5
 10
5.96875
 20
4.9375
 11
5.875
 21
5.03125
  0
LINE
  8
ValleyLine
  6
CONTINUOUS
 62
1
 10
5.96875
 20
5.125
 11
5.875
 21
5.03125
  0
LINE
  8
MountainLine
  6
CONTINUOUS
 62
5
 10
5.875
 20
5.40625
 11
5.875
 21
5.03125
  0
LINE
  8
ValleyLine
  6
CONTINUOUS
 62
1
 10
5.875
 20
5.40625
 11
5.5
 21
5.40625
  0
LINE
  8
MountainLine
  6
CONTINUOUS
 62
5
 10
5.78125
 20
5.5
 11
5.5
 21
5.40625
  0
LINE
  8
ValleyLine
  6
CONTINUOUS
 62
1
 10
5.6875
 20
5.78125
 11
5.5
 21
5.40625
  0
LINE
  8
ValleyLine
  6
CONTINUOUS
 62
1
 10
5.3125
 20
5.40625
 11
5.5
 21
5.40625
  0
LINE
  8
MountainLine
  6
CONTINUOUS
 62
5
 10
5.875
 20
5.03125
 11
5.5
 21
5.40625
  0
LINE
  8
MountainLine
  6
CONTINUOUS
 62
5
 10
4.9375
 20
5.59375
 11
5.3125
 21
5.21875
  0
LINE
  8
ValleyLine
  6
CONTINUOUS
 62
1
 10
5.3125
 20
5.40625
 11
5.3125
 21
5.21875
  0
LINE
  8
ValleyLine
  6
CONTINUOUS
 62
1
 10
5.125
 20
4.84375
 11
5.3125
 21
5.21875
  0
LINE
  8
ValleyLine
  6
CONTINUOUS
 62
1
 10
5.6875
 20
4.84375
 11
5.59375
 21
4.9375
  0
LINE
  8
MountainLine
  6
CONTINUOUS
 62
5
 10
5.5
 20
4.84375
 11
5.59375
 21
4.9375
  0
LINE
  8
MountainLine
  6
CONTINUOUS
 62
5
 10
5.875
 20
5.03125
 11
5.59375
 21
4.9375
  0
LINE
  8
ValleyLine
  6
CONTINUOUS
 62
1
 10
5.5
 20
4.84375
 11
5.5
 21
5.21875
  0
LINE
  8
MountainLine
  6
CONTINUOUS
 62
5
 10
5.125
 20
4.84375
 11
5.5
 21
5.21875
  0
LINE
  8
ValleyLine
  6
CONTINUOUS
 62
1
 10
5.875
 20
5.03125
 11
5.5
 21
5.21875
  0
LINE
  8
ValleyLine
  6
CONTINUOUS
 62
1
 10
5.5
 20
5.40625
 11
5.5
 21
5.21875
  0
LINE
  8
ValleyLine
  6
CONTINUOUS
 62
1
 10
5.3125
 20
5.21875
 11
5.5
 21
5.21875
  0
LINE
  8
MountainLine
  6
CONTINUOUS
 62
5
 10
5.5
 20
5.21875
 11
5.59375
 21
4.9375
  0
LINE
  8
MountainLine
  6
CONTINUOUS
 62
5
 10
3.34375
 20
9.0625
 11
3.4375
 21
8.96875
  0
LINE
  8
ValleyLine
  6
CONTINUOUS
 62
1
 10
3.4375
 20
9.15625
 11
3.53125
 21
9.0625
  0
LINE
  8
ValleyLine
  6
CONTINUOUS
 62
1
 10
3.4375
 20
8.96875
 11
3.53125
 21
9.0625
  0
LINE
  8
ValleyLine
  6
CONTINUOUS
 62
1
 10
3.0625
 20
8.96875
 11
3.15625
 21
8.875
  0
LINE
  8
MountainLine
  6
CONTINUOUS
 62
5
 10
3.15625
 20
8.3125
 11
3.25
 21
8.40625
  0
LINE
  8
ValleyLine
  6
CONTINUOUS
 62
1
 10
3.0625
 20
8.40625
 11
3.15625
 21
8.5
  0
LINE
  8
ValleyLine
  6
CONTINUOUS
 62
1
 10
3.25
 20
8.40625
 11
3.15625
 21
8.5
  0
LINE
  8
MountainLine
  6
CONTINUOUS
 62
5
 10
3.0625
 20
8.78125
 11
3.15625
 21
8.875
  0
LINE
  8
ValleyLine
  6
CONTINUOUS
 62
1
 10
3.4375
 20
8.96875
 11
3.15625
 21
8.875
  0
LINE
  8
ValleyLine
  6
CONTINUOUS
 62
1
 10
3.15625
 20
8.5
 11
3.15625
 21
8.875
  0
LINE
  8
ValleyLine
  6
CONTINUOUS
 62
1
 10
3.25
 20
8.03125
 11
3.34375
 21
8.125
  0
LINE
  8
MountainLine
  6
CONTINUOUS
 62
5
 10
3.15625
 20
8.5
 11
3.53125
 21
8.5
  0
LINE
  8
MountainLine
  6
CONTINUOUS
 62
5
 10
3.90625
 20
8.125
 11
3.8125
 21
8.21875
  0
LINE
  8
ValleyLine
  6
CONTINUOUS
 62
1
 10
3.8125
 20
8.03125
 11
3.71875
 21
8.125
  0
LINE
  8
ValleyLine
  6
CONTINUOUS
 62
1
 10
3.8125
 20
8.21875
 11
3.71875
 21
8.125
  0
LINE
  8
MountainLine
  6
CONTINUOUS
 62
5
 10
3.4375
 20
8.03125
 11
3.34375
 21
8.125
  0
LINE
  8
ValleyLine
  6
CONTINUOUS
 62
1
 10
3.25
 20
8.40625
 11
3.34375
 21
8.125
  0
LINE
  8
ValleyLine
  6
CONTINUOUS
 62
1
 10
3.71875
 20
8.125
 11
3.34375
 21
8.125
  0
LINE
  8
ValleyLine
  6
CONTINUOUS
 62
1
 10
3.25
 20
8.40625
 11
3.53125
 21
8.5
  0
LINE
  8
ValleyLine
  6
CONTINUOUS
 62
1
 10
3.15625
 20
8.875
 11
3.53125
 21
8.5
  0
LINE
  8
MountainLine
  6
CONTINUOUS
 62
5
 10
3.34375
 20
8.125
 11
3.53125
 21
8.5
  0
LINE
  8
ValleyLine
  6
CONTINUOUS
 62
1
 10
4.1875
 20
8.21875
 11
4.09375
 21
8.3125
  0
LINE
  8
MountainLine
  6
CONTINUOUS
 62
5
 10
3.71875
 20
8.125
 11
3.71875
 21
8.5
  0
LINE
  8
MountainLine
  6
CONTINUOUS
 62
5
 10
4.09375
 20
8.875
 11
4.0
 21
8.78125
  0
LINE
  8
ValleyLine
  6
CONTINUOUS
 62
1
 10
4.1875
 20
8.78125
 11
4.09375
 21
8.6875
  0
LINE
  8
ValleyLine
  6
CONTINUOUS
 62
1
 10
4.0
 20
8.78125
 11
4.09375
 21
8.6875
  0
LINE
  8
MountainLine
  6
CONTINUOUS
 62
5
 10
3.53125
 20
9.0625
 11
3.53125
 21
8.6875
  0
LINE
  8
ValleyLine
  6
CONTINUOUS
 62
1
 10
3.4375
 20
8.96875
 11
3.53125
 21
8.6875
  0
LINE
  8
MountainLine
  6
CONTINUOUS
 62
5
 10
3.15625
 20
8.875
 11
3.53125
 21
8.6875
  0
LINE
  8
MountainLine
  6
CONTINUOUS
 62
5
 10
3.53125
 20
8.5
 11
3.53125
 21
8.6875
  0
LINE
  8
MountainLine
  6
CONTINUOUS
 62
5
 10
4.1875
 20
8.40625
 11
4.09375
 21
8.3125
  0
LINE
  8
ValleyLine
  6
CONTINUOUS
 62
1
 10
3.8125
 20
8.21875
 11
4.09375
 21
8.3125
  0
LINE
  8
ValleyLine
  6
CONTINUOUS
 62
1
 10
4.09375
 20
8.6875
 11
4.09375
 21
8.3125
  0
LINE
  8
ValleyLine
  6
CONTINUOUS
 62
1
 10
3.8125
 20
8.21875
 11
3.71875
 21
8.5
  0
LINE
  8
ValleyLine
  6
CONTINUOUS
 62
1
 10
3.34375
 20
8.125
 11
3.71875
 21
8.5
  0
LINE
  8
MountainLine
  6
CONTINUOUS
 62
5
 10
3.53125
 20
8.5
 11
3.71875
 21
8.5
  0
LINE
  8
MountainLine
  6
CONTINUOUS
 62
5
 10
4.09375
 20
8.3125
 11
3.71875
 21
8.5
  0
LINE
  8
ValleyLine
  6
CONTINUOUS
 62
1
 10
4.0
 20
9.15625
 11
3.90625
 21
9.0625
  0
LINE
  8
MountainLine
  6
CONTINUOUS
 62
5
 10
3.8125
 20
9.15625
 11
3.90625
 21
9.0625
  0
LINE
  8
ValleyLine
  6
CONTINUOUS
 62
1
 10
3.53125
 20
9.0625
 11
3.90625
 21
9.0625
  0
LINE
  8
ValleyLine
  6
CONTINUOUS
 62
1
 10
4.0
 20
8.78125
 11
3.90625
 21
9.0625
  0
LINE
  8
ValleyLine
  6
CONTINUOUS
 62
1
 10
3.53125
 20
8.6875
 11
3.90625
 21
9.0625
  0
LINE
  8
MountainLine
  6
CONTINUOUS
 62
5
 10
4.09375
 20
8.6875
 11
3.71875
 21
8.6875
  0
LINE
  8
ValleyLine
  6
CONTINUOUS
 62
1
 10
4.0
 20
8.78125
 11
3.71875
 21
8.6875
  0
LINE
  8
MountainLine
  6
CONTINUOUS
 62
5
 10
3.53125
 20
8.6875
 11
3.71875
 21
8.6875
  0
LINE
  8
ValleyLine
  6
CONTINUOUS
 62
1
 10
4.09375
 20
8.3125
 11
3.71875
 21
8.6875
  0
LINE
  8
MountainLine
  6
CONTINUOUS
 62
5
 10
3.71875
 20
8.5
 11
3.71875
 21
8.6875
  0
LINE
  8
MountainLine
  6
CONTINUOUS
 62
5
 10
3.90625
 20
9.0625
 11
3.71875
 21
8.6875
  0
LINE
  8
MountainLine
  6
CONTINUOUS
 62
5
 10
5.40625
 20
8.875
 11
5.5
 21
8.78125
  0
LINE
  8
ValleyLine
  6
CONTINUOUS
 62
1
 10
5.5
 20
8.96875
 11
5.59375
 21
8.875
  0
LINE
  8
ValleyLine
  6
CONTINUOUS
 62
1
 10
5.5
 20
8.78125
 11
5.59375
 21
8.875
  0
LINE
  8
ValleyLine
  6
CONTINUOUS
 62
1
 10
5.125
 20
8.78125
 11
5.21875
 21
8.6875
  0
LINE
  8
MountainLine
  6
CONTINUOUS
 62
5
 10
5.21875
 20
8.125
 11
5.3125
 21
8.21875
  0
LINE
  8
ValleyLine
  6
CONTINUOUS
 62
1
 10
5.125
 20
8.21875
 11
5.21875
 21
8.3125
  0
LINE
  8
ValleyLine
  6
CONTINUOUS
 62
1
 10
5.3125
 20
8.21875
 11
5.21875
 21
8.3125
  0
LINE
  8
MountainLine
  6
CONTINUOUS
 62
5
 10
5.125
 20
8.59375
 11
5.21875
 21
8.6875
  0
LINE
  8
ValleyLine
  6
CONTINUOUS
 62
1
 10
5.5
 20
8.78125
 11
5.21875
 21
8.6875
  0
LINE
  8
ValleyLine
  6
CONTINUOUS
 62
1
 10
5.21875
 20
8.3125
 11
5.21875
 21
8.6875
  0
LINE
  8
ValleyLine
  6
CONTINUOUS
 62
1
 10
5.3125
 20
7.84375
 11
5.40625
 21
7.9375
  0
LINE
  8
MountainLine
  6
CONTINUOUS
 62
5
 10
5.21875
 20
8.3125
 11
5.59375
 21
8.3125
  0
LINE
  8
MountainLine
  6
CONTINUOUS
 62
5
 10
5.96875
 20
7.9375
 11
5.875
 21
8.03125
  0
LINE
  8
ValleyLine
  6
CONTINUOUS
 62
1
 10
5.875
 20
7.84375
 11
5.78125
 21
7.9375
  0
LINE
  8
ValleyLine
  6
CONTINUOUS
 62
1
 10
5.875
 20
8.03125
 11
5.78125
 21
7.9375
  0
LINE
  8
MountainLine
  6
CONTINUOUS
 62
5
 10
5.5
 20
7.84375
 11
5.40625
 21
7.9375
  0
LINE
  8
ValleyLine
  6
CONTINUOUS
 62
1
 10
5.3125
 20
8.21875
 11
5.40625
 21
7.9375
  0
LINE
  8
ValleyLine
  6
CONTINUOUS
 62
1
 10
5.78125
 20
7.9375
 11
5.40625
 21
7.9375
  0
LINE
  8
ValleyLine
  6
CONTINUOUS
 62
1
 10
5.3125
 20
8.21875
 11
5.59375
 21
8.3125
  0
LINE
  8
ValleyLine
  6
CONTINUOUS
 62
1
 10
5.21875
 20
8.6875
 11
5.59375
 21
8.3125
  0
LINE
  8
MountainLine
  6
CONTINUOUS
 62
5
 10
5.40625
 20
7.9375
 11
5.59375
 21
8.3125
  0
LINE
  8
ValleyLine
  6
CONTINUOUS
 62
1
 10
6.25
 20
8.03125
 11
6.15625
 21
8.125
  0
LINE
  8
MountainLine
  6
CONTINUOUS
 62
5
 10
5.78125
 20
7.9375
 11
5.78125
 21
8.3125
  0
LINE
  8
MountainLine
  6
CONTINUOUS
 62
5
 10
6.15625
 20
8.6875
 11
6.0625
 21
8.59375
  0
LINE
  8
ValleyLine
  6
CONTINUOUS
 62
1
 10
6.25
 20
8.59375
 11
6.15625
 21
8.5
  0
LINE
  8
ValleyLine
  6
CONTINUOUS
 62
1
 10
6.0625
 20
8.59375
 11
6.15625
 21
8.5
  0
LINE
  8
MountainLine
  6
CONTINUOUS
 62
5
 10
5.59375
 20
8.875
 11
5.59375
 21
8.5
  0
LINE
  8
ValleyLine
  6
CONTINUOUS
 62
1
 10
5.5
 20
8.78125
 11
5.59375
 21
8.5
  0
LINE
  8
MountainLine
  6
CONTINUOUS
 62
5
 10
5.21875
 20
8.6875
 11
5.59375
 21
8.5
  0
LINE
  8
MountainLine
  6
CONTINUOUS
 62
5
 10
5.59375
 20
8.3125
 11
5.59375
 21
8.5
  0
LINE
  8
MountainLine
  6
CONTINUOUS
 62
5
 10
6.25
 20
8.21875
 11
6.15625
 21
8.125
  0
LINE
  8
ValleyLine
  6
CONTINUOUS
 62
1
 10
5.875
 20
8.03125
 11
6.15625
 21
8.125
  0
LINE
  8
ValleyLine
  6
CONTINUOUS
 62
1
 10
6.15625
 20
8.5
 11
6.15625
 21
8.125
  0
LINE
  8
ValleyLine
  6
CONTINUOUS
 62
1
 10
5.875
 20
8.03125
 11
5.78125
 21
8.3125
  0
LINE
  8
ValleyLine
  6
CONTINUOUS
 62
1
 10
5.40625
 20
7.9375
 11
5.78125
 21
8.3125
  0
LINE
  8
MountainLine
  6
CONTINUOUS
 62
5
 10
5.59375
 20
8.3125
 11
5.78125
 21
8.3125
  0
LINE
  8
MountainLine
  6
CONTINUOUS
 62
5
 10
6.15625
 20
8.125
 11
5.78125
 21
8.3125
  0
LINE
  8
ValleyLine
  6
CONTINUOUS
 62
1
 10
6.0625
 20
8.96875
 11
5.96875
 21
8.875
  0
LINE
  8
MountainLine
  6
CONTINUOUS
 62
5
 10
5.875
 20
8.96875
 11
5.96875
 21
8.875
  0
LINE
  8
ValleyLine
  6
CONTINUOUS
 62
1
 10
5.59375
 20
8.875
 11
5.96875
 21
8.875
  0
LINE
  8
ValleyLine
  6
CONTINUOUS
 62
1
 10
6.0625
 20
8.59375
 11
5.96875
 21
8.875
  0
LINE
  8
ValleyLine
  6
CONTINUOUS
 62
1
 10
5.59375
 20
8.5
 11
5.96875
 21
8.875
  0
LINE
  8
MountainLine
  6
CONTINUOUS
 62
5
 10
6.15625
 20
8.5
 11
5.78125
 21
8.5
  0
LINE
  8
ValleyLine
  6
CONTINUOUS
 62
1
 10
6.0625
 20
8.59375
 11
5.78125
 21
8.5
  0
LINE
  8
MountainLine
  6
CONTINUOUS
 62
5
 10
5.59375
 20
8.5
 11
5.78125
 21
8.5
  0
LINE
  8
ValleyLine
  6
CONTINUOUS
 62
1
 10
6.15625
 20
8.125
 11
5.78125
 21
8.5
  0
LINE
  8
MountainLine
  6
CONTINUOUS
 62
5
 10
5.78125
 20
8.3125
 11
5.78125
 21
8.5
  0
LINE
  8
MountainLine
  6
CONTINUOUS
 62
5
 10
5.96875
 20
8.875
 11
5.78125
 21
8.5
  0
LINE
  8
MountainLine
  6
CONTINUOUS
 62
5
 10
5.21875
 20
6.8125
 11
5.3125
 21
6.71875
  0
LINE
  8
ValleyLine
  6
CONTINUOUS
 62
1
 10
5.3125
 20
6.90625
 11
5.40625
 21
6.8125
  0
LINE
  8
ValleyLine
  6
CONTINUOUS
 62
1
 10
5.3125
 20
6.71875
 11
5.40625
 21
6.8125
  0
LINE
  8
ValleyLine
  6
CONTINUOUS
 62
1
 10
4.9375
 20
6.71875
 11
5.03125
 21
6.625
  0
LINE
  8
MountainLine
  6
CONTINUOUS
 62
5
 10
5.03125
 20
6.0625
 11
5.125
 21
6.15625
  0
LINE
  8
ValleyLine
  6
CONTINUOUS
 62
1
 10
4.9375
 20
6.15625
 11
5.03125
 21
6.25
  0
LINE
  8
ValleyLine
  6
CONTINUOUS
 62
1
 10
5.125
 20
6.15625
 11
5.03125
 21
6.25
  0
LINE
  8
MountainLine
  6
CONTINUOUS
 62
5
 10
4.9375
 20
6.53125
 11
5.03125
 21
6.625
  0
LINE
  8
ValleyLine
  6
CONTINUOUS
 62
1
 10
5.3125
 20
6.71875
 11
5.03125
 21
6.625
  0
LINE
  8
ValleyLine
  6
CONTINUOUS
 62
1
 10
5.03125
 20
6.25
 11
5.03125
 21
6.625
  0
LINE
  8
ValleyLine
  6
CONTINUOUS
 62
1
 10
5.125
 20
5.78125
 11
5.21875
 21
5.875
  0
LINE
  8
MountainLine
  6
CONTINUOUS
 62
5
 10
5.03125
 20
6.25
 11
5.40625
 21
6.25
  0
LINE
  8
MountainLine
  6
CONTINUOUS
 62
5
 10
5.78125
 20
5.875
 11
5.6875
 21
5.96875
  0
LINE
  8
ValleyLine
  6
CONTINUOUS
 62
1
 10
5.6875
 20
5.78125
 11
5.59375
 21
5.875
  0
LINE
  8
ValleyLine
  6
CONTINUOUS
 62
1
 10
5.6875
 20
5.96875
 11
5.59375
 21
5.875
  0
LINE
  8
MountainLine
  6
CONTINUOUS
 62
5
 10
5.3125
 20
5.78125
 11
5.21875
 21
5.875
  0
LINE
  8
ValleyLine
  6
CONTINUOUS
 62
1
 10
5.125
 20
6.15625
 11
5.21875
 21
5.875
  0
LINE
  8
ValleyLine
  6
CONTINUOUS
 62
1
 10
5.59375
 20
5.875
 11
5.21875
 21
5.875
  0
LINE
  8
ValleyLine
  6
CONTINUOUS
 62
1
 10
5.125
 20
6.15625
 11
5.40625
 21
6.25
  0
LINE
  8
ValleyLine
  6
CONTINUOUS
 62
1
 10
5.03125
 20
6.625
 11
5.40625
 21
6.25
  0
LINE
  8
MountainLine
  6
CONTINUOUS
 62
5
 10
5.21875
 20
5.875
 11
5.40625
 21
6.25
  0
LINE
  8
ValleyLine
  6
CONTINUOUS
 62
1
 10
6.0625
 20
5.96875
 11
5.96875
 21
6.0625
  0
LINE
  8
MountainLine
  6
CONTINUOUS
 62
5
 10
5.59375
 20
5.875
 11
5.59375
 21
6.25
  0
LINE
  8
MountainLine
  6
CONTINUOUS
 62
5
 10
5.96875
 20
6.625
 11
5.875
 21
6.53125
  0
LINE
  8
ValleyLine
  6
CONTINUOUS
 62
1
 10
6.0625
 20
6.53125
 11
5.96875
 21
6.4375
  0
LINE
  8
ValleyLine
  6
CONTINUOUS
 62
1
 10
5.875
 20
6.53125
 11
5.96875
 21
6.4375
  0
LINE
  8
MountainLine
  6
CONTINUOUS
 62
5
 10
5.40625
 20
6.8125
 11
5.40625
 21
6.4375
  0
LINE
  8
ValleyLine
  6
CONTINUOUS
 62
1
 10
5.3125
 20
6.71875
 11
5.40625
 21
6.4375
  0
LINE
  8
MountainLine
  6
CONTINUOUS
 62
5
 10
5.03125
 20
6.625
 11
5.40625
 21
6.4375
  0
LINE
  8
MountainLine
  6
CONTINUOUS
 62
5
 10
5.40625
 20
6.25
 11
5.40625
 21
6.4375
  0
LINE
  8
MountainLine
  6
CONTINUOUS
 62
5
 10
6.0625
 20
6.15625
 11
5.96875
 21
6.0625
  0
LINE
  8
ValleyLine
  6
CONTINUOUS
 62
1
 10
5.6875
 20
5.96875
 11
5.96875
 21
6.0625
  0
LINE
  8
ValleyLine
  6
CONTINUOUS
 62
1
 10
5.96875
 20
6.4375
 11
5.96875
 21
6.0625
  0
LINE
  8
ValleyLine
  6
CONTINUOUS
 62
1
 10
5.6875
 20
5.96875
 11
5.59375
 21
6.25
  0
LINE
  8
ValleyLine
  6
CONTINUOUS
 62
1
 10
5.21875
 20
5.875
 11
5.59375
 21
6.25
  0
LINE
  8
MountainLine
  6
CONTINUOUS
 62
5
 10
5.40625
 20
6.25
 11
5.59375
 21
6.25
  0
LINE
  8
MountainLine
  6
CONTINUOUS
 62
5
 10
5.96875
 20
6.0625
 11
5.59375
 21
6.25
  0
LINE
  8
ValleyLine
  6
CONTINUOUS
 62
1
 10
5.875
 20
6.90625
 11
5.78125
 21
6.8125
  0
LINE
  8
MountainLine
  6
CONTINUOUS
 62
5
 10
5.6875
 20
6.90625
 11
5.78125
 21
6.8125
  0
LINE
  8
ValleyLine
  6
CONTINUOUS
 62
1
 10
5.40625
 20
6.8125
 11
5.78125
 21
6.8125
  0
LINE
  8
ValleyLine
  6
CONTINUOUS
 62
1
 10
5.875
 20
6.53125
 11
5.78125
 21
6.8125
  0
LINE
  8
ValleyLine
  6
CONTINUOUS
 62
1
 10
5.40625
 20
6.4375
 11
5.78125
 21
6.8125
  0
LINE
  8
MountainLine
  6
CONTINUOUS
 62
5
 10
5.96875
 20
6.4375
 11
5.59375
 21
6.4375
  0
LINE
  8
ValleyLine
  6
CONTINUOUS
 62
1
 10
5.875
 20
6.53125
 11
5.59375
 21
6.4375
  0
LINE
  8
MountainLine
  6
CONTINUOUS
 62
5
 10
5.40625
 20
6.4375
 11
5.59375
 21
6.4375
  0
LINE
  8
ValleyLine
  6
CONTINUOUS
 62
1
 10
5.96875
 20
6.0625
 11
5.59375
 21
6.4375
  0
LINE
  8
MountainLine
  6
CONTINUOUS
 62
5
 10
5.59375
 20
6.25
 11
5.59375
 21
6.4375
  0
LINE
  8
MountainLine
  6
CONTINUOUS
 62
5
 10
5.78125
 20
6.8125
 11
5.59375
 21
6.4375
  0
LINE
  8
MountainLine
  6
CONTINUOUS
 62
5
 10
3.15625
 20
7.0
 11
3.25
 21
6.90625
  0
LINE
  8
ValleyLine
  6
CONTINUOUS
 62
1
 10
3.25
 20
7.09375
 11
3.34375
 21
7.0
  0
LINE
  8
ValleyLine
  6
CONTINUOUS
 62
1
 10
3.25
 20
6.90625
 11
3.34375
 21
7.0
  0
LINE
  8
ValleyLine
  6
CONTINUOUS
 62
1
 10
2.875
 20
6.90625
 11
2.96875
 21
6.8125
  0
LINE
  8
MountainLine
  6
CONTINUOUS
 62
5
 10
2.96875
 20
6.25
 11
3.0625
 21
6.34375
  0
LINE
  8
ValleyLine
  6
CONTINUOUS
 62
1
 10
2.875
 20
6.34375
 11
2.96875
 21
6.4375
  0
LINE
  8
ValleyLine
  6
CONTINUOUS
 62
1
 10
3.0625
 20
6.34375
 11
2.96875
 21
6.4375
  0
LINE
  8
MountainLine
  6
CONTINUOUS
 62
5
 10
2.875
 20
6.71875
 11
2.96875
 21
6.8125
  0
LINE
  8
ValleyLine
  6
CONTINUOUS
 62
1
 10
3.25
 20
6.90625
 11
2.96875
 21
6.8125
  0
LINE
  8
ValleyLine
  6
CONTINUOUS
 62
1
 10
2.96875
 20
6.4375
 11
2.96875
 21
6.8125
  0
LINE
  8
ValleyLine
  6
CONTINUOUS
 62
1
 10
3.0625
 20
5.96875
 11
3.15625
 21
6.0625
  0
LINE
  8
MountainLine
  6
CONTINUOUS
 62
5
 10
2.96875
 20
6.4375
 11
3.34375
 21
6.4375
  0
LINE
  8
MountainLine
  6
CONTINUOUS
 62
5
 10
3.71875
 20
6.0625
 11
3.625
 21
6.15625
  0
LINE
  8
ValleyLine
  6
CONTINUOUS
 62
1
 10
3.625
 20
5.96875
 11
3.53125
 21
6.0625
  0
LINE
  8
ValleyLine
  6
CONTINUOUS
 62
1
 10
3.625
 20
6.15625
 11
3.53125
 21
6.0625
  0
LINE
  8
MountainLine
  6
CONTINUOUS
 62
5
 10
3.25
 20
5.96875
 11
3.15625
 21
6.0625
  0
LINE
  8
ValleyLine
  6
CONTINUOUS
 62
1
 10
3.0625
 20
6.34375
 11
3.15625
 21
6.0625
  0
LINE
  8
ValleyLine
  6
CONTINUOUS
 62
1
 10
3.53125
 20
6.0625
 11
3.15625
 21
6.0625
  0
LINE
  8
ValleyLine
  6
CONTINUOUS
 62
1
 10
3.0625
 20
6.34375
 11
3.34375
 21
6.4375
  0
LINE
  8
ValleyLine
  6
CONTINUOUS
 62
1
 10
2.96875
 20
6.8125
 11
3.34375
 21
6.4375
  0
LINE
  8
MountainLine
  6
CONTINUOUS
 62
5
 10
3.15625
 20
6.0625
 11
3.34375
 21
6.4375
  0
LINE
  8
ValleyLine
  6
CONTINUOUS
 62
1
 10
4.0
 20
6.15625
 11
3.90625
 21
6.25
  0
LINE
  8
MountainLine
  6
CONTINUOUS
 62
5
 10
3.53125
 20
6.0625
 11
3.53125
 21
6.4375
  0
LINE
  8
MountainLine
  6
CONTINUOUS
 62
5
 10
3.90625
 20
6.8125
 11
3.8125
 21
6.71875
  0
LINE
  8
ValleyLine
  6
CONTINUOUS
 62
1
 10
4.0
 20
6.71875
 11
3.90625
 21
6.625
  0
LINE
  8
ValleyLine
  6
CONTINUOUS
 62
1
 10
3.8125
 20
6.71875
 11
3.90625
 21
6.625
  0
LINE
  8
MountainLine
  6
CONTINUOUS
 62
5
 10
3.34375
 20
7.0
 11
3.34375
 21
6.625
  0
LINE
  8
ValleyLine
  6
CONTINUOUS
 62
1
 10
3.25
 20
6.90625
 11
3.34375
 21
6.625
  0
LINE
  8
MountainLine
  6
CONTINUOUS
 62
5
 10
2.96875
 20
6.8125
 11
3.34375
 21
6.625
  0
LINE
  8
MountainLine
  6
CONTINUOUS
 62
5
 10
3.34375
 20
6.4375
 11
3.34375
 21
6.625
  0
LINE
  8
MountainLine
  6
CONTINUOUS
 62
5
 10
4.0
 20
6.34375
 11
3.90625
 21
6.25
  0
LINE
  8
ValleyLine
  6
CONTINUOUS
 62
1
 10
3.625
 20
6.15625
 11
3.90625
 21
6.25
  0
LINE
  8
ValleyLine
  6
CONTINUOUS
 62
1
 10
3.90625
 20
6.625
 11
3.90625
 21
6.25
  0
LINE
  8
ValleyLine
  6
CONTINUOUS
 62
1
 10
3.625
 20
6.15625
 11
3.53125
 21
6.4375
  0
LINE
  8
ValleyLine
  6
CONTINUOUS
 62
1
 10
3.15625
 20
6.0625
 11
3.53125
 21
6.4375
  0
LINE
  8
MountainLine
  6
CONTINUOUS
 62
5
 10
3.34375
 20
6.4375
 11
3.53125
 21
6.4375
  0
LINE
  8
MountainLine
  6
CONTINUOUS
 62
5
 10
3.90625
 20
6.25
 11
3.53125
 21
6.4375
  0
LINE
  8
ValleyLine
  6
CONTINUOUS
 62
1
 10
3.8125
 20
7.09375
 11
3.71875
 21
7.0
  0
LINE
  8
MountainLine
  6
CONTINUOUS
 62
5
 10
3.625
 20
7.09375
 11
3.71875
 21
7.0
  0
LINE
  8
ValleyLine
  6
CONTINUOUS
 62
1
 10
3.34375
 20
7.0
 11
3.71875
 21
7.0
  0
LINE
  8
ValleyLine
  6
CONTINUOUS
 62
1
 10
3.8125
 20
6.71875
 11
3.71875
 21
7.0
  0
LINE
  8
ValleyLine
  6
CONTINUOUS
 62
1
 10
3.34375
 20
6.625
 11
3.71875
 21
7.0
  0
LINE
  8
MountainLine
  6
CONTINUOUS
 62
5
 10
3.90625
 20
6.625
 11
3.53125
 21
6.625
  0
LINE
  8
ValleyLine
  6
CONTINUOUS
 62
1
 10
3.8125
 20
6.71875
 11
3.53125
 21
6.625
  0
LINE
  8
MountainLine
  6
CONTINUOUS
 62
5
 10
3.34375
 20
6.625
 11
3.53125
 21
6.625
  0
LINE
  8
ValleyLine
  6
CONTINUOUS
 62
1
 10
3.90625
 20
6.25
 11
3.53125
 21
6.625
  0
LINE
  8
MountainLine
  6
CONTINUOUS
 62
5
 10
3.53125
 20
6.4375
 11
3.53125
 21
6.625
  0
LINE
  8
MountainLine
  6
CONTINUOUS
 62
5
 10
3.71875
 20
7.0
 11
3.53125
 21
6.625
  0
LINE
  8
MountainLine
  6
CONTINUOUS
 62
5
 10
4.09375
 20
5.875
 11
4.1875
 21
5.78125
  0
LINE
  8
ValleyLine
  6
CONTINUOUS
 62
1
 10
4.1875
 20
5.96875
 11
4.28125
 21
5.875
  0
LINE
  8
ValleyLine
  6
CONTINUOUS
 62
1
 10
4.1875
 20
5.78125
 11
4.28125
 21
5.875
  0
LINE
  8
ValleyLine
  6
CONTINUOUS
 62
1
 10
3.8125
 20
5.78125
 11
3.90625
 21
5.6875
  0
LINE
  8
MountainLine
  6
CONTINUOUS
 62
5
 10
3.90625
 20
5.125
 11
4.0
 21
5.21875
  0
LINE
  8
ValleyLine
  6
CONTINUOUS
 62
1
 10
3.8125
 20
5.21875
 11
3.90625
 21
5.3125
  0
LINE
  8
ValleyLine
  6
CONTINUOUS
 62
1
 10
4.0
 20
5.21875
 11
3.90625
 21
5.3125
  0
LINE
  8
MountainLine
  6
CONTINUOUS
 62
5
 10
3.8125
 20
5.59375
 11
3.90625
 21
5.6875
  0
LINE
  8
ValleyLine
  6
CONTINUOUS
 62
1
 10
4.1875
 20
5.78125
 11
3.90625
 21
5.6875
  0
LINE
  8
ValleyLine
  6
CONTINUOUS
 62
1
 10
3.90625
 20
5.3125
 11
3.90625
 21
5.6875
  0
LINE
  8
ValleyLine
  6
CONTINUOUS
 62
1
 10
4.0
 20
4.84375
 11
4.09375
 21
4.9375
  0
LINE
  8
MountainLine
  6
CONTINUOUS
 62
5
 10
3.90625
 20
5.3125
 11
4.28125
 21
5.3125
  0
LINE
  8
MountainLine
  6
CONTINUOUS
 62
5
 10
4.65625
 20
4.9375
 11
4.5625
 21
5.03125
  0
LINE
  8
ValleyLine
  6
CONTINUOUS
 62
1
 10
4.5625
 20
4.84375
 11
4.46875
 21
4.9375
  0
LINE
  8
ValleyLine
  6
CONTINUOUS
 62
1
 10
4.5625
 20
5.03125
 11
4.46875
 21
4.9375
  0
LINE
  8
MountainLine
  6
CONTINUOUS
 62
5
 10
4.1875
 20
4.84375
 11
4.09375
 21
4.9375
  0
LINE
  8
ValleyLine
  6
CONTINUOUS
 62
1
 10
4.0
 20
5.21875
 11
4.09375
 21
4.9375
  0
LINE
  8
ValleyLine
  6
CONTINUOUS
 62
1
 10
4.46875
 20
4.9375
 11
4.09375
 21
4.9375
  0
LINE
  8
ValleyLine
  6
CONTINUOUS
 62
1
 10
4.0
 20
5.21875
 11
4.28125
 21
5.3125
  0
LINE
  8
ValleyLine
  6
CONTINUOUS
 62
1
 10
3.90625
 20
5.6875
 11
4.28125
 21
5.3125
  0
LINE
  8
MountainLine
  6
CONTINUOUS
 62
5
 10
4.09375
 20
4.9375
 11
4.28125
 21
5.3125
  0
LINE
  8
MountainLine
  6
CONTINUOUS
 62
5
 10
4.46875
 20
4.9375
 11
4.46875
 21
5.3125
  0
LINE
  8
MountainLine
  6
CONTINUOUS
 62
5
 10
4.84375
 20
5.6875
 11
4.75
 21
5.59375
  0
LINE
  8
ValleyLine
  6
CONTINUOUS
 62
1
 10
4.9375
 20
5.59375
 11
4.84375
 21
5.5
  0
LINE
  8
ValleyLine
  6
CONTINUOUS
 62
1
 10
4.75
 20
5.59375
 11
4.84375
 21
5.5
  0
LINE
  8
MountainLine
  6
CONTINUOUS
 62
5
 10
4.28125
 20
5.875
 11
4.28125
 21
5.5
  0
LINE
  8
ValleyLine
  6
CONTINUOUS
 62
1
 10
4.1875
 20
5.78125
 11
4.28125
 21
5.5
  0
LINE
  8
MountainLine
  6
CONTINUOUS
 62
5
 10
3.90625
 20
5.6875
 11
4.28125
 21
5.5
  0
LINE
  8
MountainLine
  6
CONTINUOUS
 62
5
 10
4.28125
 20
5.3125
 11
4.28125
 21
5.5
  0
LINE
  8
MountainLine
  6
CONTINUOUS
 62
5
 10
4.9375
 20
5.21875
 11
4.84375
 21
5.125
  0
LINE
  8
ValleyLine
  6
CONTINUOUS
 62
1
 10
4.5625
 20
5.03125
 11
4.84375
 21
5.125
  0
LINE
  8
ValleyLine
  6
CONTINUOUS
 62
1
 10
4.84375
 20
5.5
 11
4.84375
 21
5.125
  0
LINE
  8
ValleyLine
  6
CONTINUOUS
 62
1
 10
4.5625
 20
5.03125
 11
4.46875
 21
5.3125
  0
LINE
  8
ValleyLine
  6
CONTINUOUS
 62
1
 10
4.09375
 20
4.9375
 11
4.46875
 21
5.3125
  0
LINE
  8
MountainLine
  6
CONTINUOUS
 62
5
 10
4.28125
 20
5.3125
 11
4.46875
 21
5.3125
  0
LINE
  8
MountainLine
  6
CONTINUOUS
 62
5
 10
4.84375
 20
5.125
 11
4.46875
 21
5.3125
  0
LINE
  8
ValleyLine
  6
CONTINUOUS
 62
1
 10
4.75
 20
5.96875
 11
4.65625
 21
5.875
  0
LINE
  8
MountainLine
  6
CONTINUOUS
 62
5
 10
4.5625
 20
5.96875
 11
4.65625
 21
5.875
  0
LINE
  8
ValleyLine
  6
CONTINUOUS
 62
1
 10
4.28125
 20
5.875
 11
4.65625
 21
5.875
  0
LINE
  8
ValleyLine
  6
CONTINUOUS
 62
1
 10
4.75
 20
5.59375
 11
4.65625
 21
5.875
  0
LINE
  8
ValleyLine
  6
CONTINUOUS
 62
1
 10
4.28125
 20
5.5
 11
4.65625
 21
5.875
  0
LINE
  8
MountainLine
  6
CONTINUOUS
 62
5
 10
4.84375
 20
5.5
 11
4.46875
 21
5.5
  0
LINE
  8
ValleyLine
  6
CONTINUOUS
 62
1
 10
4.75
 20
5.59375
 11
4.46875
 21
5.5
  0
LINE
  8
MountainLine
  6
CONTINUOUS
 62
5
 10
4.28125
 20
5.5
 11
4.46875
 21
5.5
  0
LINE
  8
ValleyLine
  6
CONTINUOUS
 62
1
 10
4.84375
 20
5.125
 11
4.46875
 21
5.5
  0
LINE
  8
MountainLine
  6
CONTINUOUS
 62
5
 10
4.46875
 20
5.3125
 11
4.46875
 21
5.5
  0
LINE
  8
MountainLine
  6
CONTINUOUS
 62
5
 10
4.65625
 20
5.875
 11
4.46875
 21
5.5
  0
LINE
  8
MountainLine
  6
CONTINUOUS
 62
5
 10
2.03125
 20
6.0625
 11
2.125
 21
5.96875
  0
LINE
  8
ValleyLine
  6
CONTINUOUS
 62
1
 10
2.125
 20
6.15625
 11
2.21875
 21
6.0625
  0
LINE
  8
ValleyLine
  6
CONTINUOUS
 62
1
 10
2.125
 20
5.96875
 11
2.21875
 21
6.0625
  0
LINE
  8
ValleyLine
  6
CONTINUOUS
 62
1
 10
1.75
 20
5.96875
 11
1.84375
 21
5.875
  0
LINE
  8
MountainLine
  6
CONTINUOUS
 62
5
 10
1.84375
 20
5.3125
 11
1.9375
 21
5.40625
  0
LINE
  8
ValleyLine
  6
CONTINUOUS
 62
1
 10
1.75
 20
5.40625
 11
1.84375
 21
5.5
  0
LINE
  8
ValleyLine
  6
CONTINUOUS
 62
1
 10
1.9375
 20
5.40625
 11
1.84375
 21
5.5
  0
LINE
  8
MountainLine
  6
CONTINUOUS
 62
5
 10
1.75
 20
5.78125
 11
1.84375
 21
5.875
  0
LINE
  8
ValleyLine
  6
CONTINUOUS
 62
1
 10
2.125
 20
5.96875
 11
1.84375
 21
5.875
  0
LINE
  8
ValleyLine
  6
CONTINUOUS
 62
1
 10
1.84375
 20
5.5
 11
1.84375
 21
5.875
  0
LINE
  8
ValleyLine
  6
CONTINUOUS
 62
1
 10
1.9375
 20
5.03125
 11
2.03125
 21
5.125
  0
LINE
  8
MountainLine
  6
CONTINUOUS
 62
5
 10
1.84375
 20
5.5
 11
2.21875
 21
5.5
  0
LINE
  8
MountainLine
  6
CONTINUOUS
 62
5
 10
2.59375
 20
5.125
 11
2.5
 21
5.21875
  0
LINE
  8
ValleyLine
  6
CONTINUOUS
 62
1
 10
2.5
 20
5.03125
 11
2.40625
 21
5.125
  0
LINE
  8
ValleyLine
  6
CONTINUOUS
 62
1
 10
2.5
 20
5.21875
 11
2.40625
 21
5.125
  0
LINE
  8
MountainLine
  6
CONTINUOUS
 62
5
 10
2.125
 20
5.03125
 11
2.03125
 21
5.125
  0
LINE
  8
ValleyLine
  6
CONTINUOUS
 62
1
 10
1.9375
 20
5.40625
 11
2.03125
 21
5.125
  0
LINE
  8
ValleyLine
  6
CONTINUOUS
 62
1
 10
2.40625
 20
5.125
 11
2.03125
 21
5.125
  0
LINE
  8
ValleyLine
  6
CONTINUOUS
 62
1
 10
1.9375
 20
5.40625
 11
2.21875
 21
5.5
  0
LINE
  8
ValleyLine
  6
CONTINUOUS
 62
1
 10
1.84375
 20
5.875
 11
2.21875
 21
5.5
  0
LINE
  8
MountainLine
  6
CONTINUOUS
 62
5
 10
2.03125
 20
5.125
 11
2.21875
 21
5.5
  0
LINE
  8
ValleyLine
  6
CONTINUOUS
 62
1
 10
2.875
 20
5.21875
 11
2.78125
 21
5.3125
  0
LINE
  8
MountainLine
  6
CONTINUOUS
 62
5
 10
2.40625
 20
5.125
 11
2.40625
 21
5.5
  0
LINE
  8
MountainLine
  6
CONTINUOUS
 62
5
 10
2.78125
 20
5.875
 11
2.6875
 21
5.78125
  0
LINE
  8
ValleyLine
  6
CONTINUOUS
 62
1
 10
2.875
 20
5.78125
 11
2.78125
 21
5.6875
  0
LINE
  8
ValleyLine
  6
CONTINUOUS
 62
1
 10
2.6875
 20
5.78125
 11
2.78125
 21
5.6875
  0
LINE
  8
MountainLine
  6
CONTINUOUS
 62
5
 10
2.21875
 20
6.0625
 11
2.21875
 21
5.6875
  0
LINE
  8
ValleyLine
  6
CONTINUOUS
 62
1
 10
2.125
 20
5.96875
 11
2.21875
 21
5.6875
  0
LINE
  8
MountainLine
  6
CONTINUOUS
 62
5
 10
1.84375
 20
5.875
 11
2.21875
 21
5.6875
  0
LINE
  8
MountainLine
  6
CONTINUOUS
 62
5
 10
2.21875
 20
5.5
 11
2.21875
 21
5.6875
  0
LINE
  8
MountainLine
  6
CONTINUOUS
 62
5
 10
2.875
 20
5.40625
 11
2.78125
 21
5.3125
  0
LINE
  8
ValleyLine
  6
CONTINUOUS
 62
1
 10
2.5
 20
5.21875
 11
2.78125
 21
5.3125
  0
LINE
  8
ValleyLine
  6
CONTINUOUS
 62
1
 10
2.78125
 20
5.6875
 11
2.78125
 21
5.3125
  0
LINE
  8
ValleyLine
  6
CONTINUOUS
 62
1
 10
2.5
 20
5.21875
 11
2.40625
 21
5.5
  0
LINE
  8
ValleyLine
  6
CONTINUOUS
 62
1
 10
2.03125
 20
5.125
 11
2.40625
 21
5.5
  0
LINE
  8
MountainLine
  6
CONTINUOUS
 62
5
 10
2.21875
 20
5.5
 11
2.40625
 21
5.5
  0
LINE
  8
MountainLine
  6
CONTINUOUS
 62
5
 10
2.78125
 20
5.3125
 11
2.40625
 21
5.5
  0
LINE
  8
ValleyLine
  6
CONTINUOUS
 62
1
 10
2.6875
 20
6.15625
 11
2.59375
 21
6.0625
  0
LINE
  8
MountainLine
  6
CONTINUOUS
 62
5
 10
2.5
 20
6.15625
 11
2.59375
 21
6.0625
  0
LINE
  8
ValleyLine
  6
CONTINUOUS
 62
1
 10
2.21875
 20
6.0625
 11
2.59375
 21
6.0625
  0
LINE
  8
ValleyLine
  6
CONTINUOUS
 62
1
 10
2.6875
 20
5.78125
 11
2.59375
 21
6.0625
  0
LINE
  8
ValleyLine
  6
CONTINUOUS
 62
1
 10
2.21875
 20
5.6875
 11
2.59375
 21
6.0625
  0
LINE
  8
MountainLine
  6
CONTINUOUS
 62
5
 10
2.78125
 20
5.6875
 11
2.40625
 21
5.6875
  0
LINE
  8
ValleyLine
  6
CONTINUOUS
 62
1
 10
2.6875
 20
5.78125
 11
2.40625
 21
5.6875
  0
LINE
  8
MountainLine
  6
CONTINUOUS
 62
5
 10
2.21875
 20
5.6875
 11
2.40625
 21
5.6875
  0
LINE
  8
ValleyLine
  6
CONTINUOUS
 62
1
 10
2.78125
 20
5.3125
 11
2.40625
 21
5.6875
  0
LINE
  8
MountainLine
  6
CONTINUOUS
 62
5
 10
2.40625
 20
5.5
 11
2.40625
 21
5.6875
  0
LINE
  8
MountainLine
  6
CONTINUOUS
 62
5
 10
2.59375
 20
6.0625
 11
2.40625
 21
5.6875
  0
LINE
  8
MountainLine
  6
CONTINUOUS
 62
5
 10
2.21875
 20
8.125
 11
2.3125
 21
8.03125
  0
LINE
  8
ValleyLine
  6
CONTINUOUS
 62
1
 10
2.3125
 20
8.21875
 11
2.40625
 21
8.125
  0
LINE
  8
ValleyLine
  6
CONTINUOUS
 62
1
 10
2.3125
 20
8.03125
 11
2.40625
 21
8.125
  0
LINE
  8
ValleyLine
  6
CONTINUOUS
 62
1
 10
1.9375
 20
8.03125
 11
2.03125
 21
7.9375
  0
LINE
  8
MountainLine
  6
CONTINUOUS
 62
5
 10
2.03125
 20
7.375
 11
2.125
 21
7.46875
  0
LINE
  8
ValleyLine
  6
CONTINUOUS
 62
1
 10
1.9375
 20
7.46875
 11
2.03125
 21
7.5625
  0
LINE
  8
ValleyLine
  6
CONTINUOUS
 62
1
 10
2.125
 20
7.46875
 11
2.03125
 21
7.5625
  0
LINE
  8
MountainLine
  6
CONTINUOUS
 62
5
 10
1.9375
 20
7.84375
 11
2.03125
 21
7.9375
  0
LINE
  8
ValleyLine
  6
CONTINUOUS
 62
1
 10
2.3125
 20
8.03125
 11
2.03125
 21
7.9375
  0
LINE
  8
ValleyLine
  6
CONTINUOUS
 62
1
 10
2.03125
 20
7.5625
 11
2.03125
 21
7.9375
  0
LINE
  8
ValleyLine
  6
CONTINUOUS
 62
1
 10
2.125
 20
7.09375
 11
2.21875
 21
7.1875
  0
LINE
  8
MountainLine
  6
CONTINUOUS
 62
5
 10
2.03125
 20
7.5625
 11
2.40625
 21
7.5625
  0
LINE
  8
MountainLine
  6
CONTINUOUS
 62
5
 10
2.78125
 20
7.1875
 11
2.6875
 21
7.28125
  0
LINE
  8
ValleyLine
  6
CONTINUOUS
 62
1
 10
2.6875
 20
7.09375
 11
2.59375
 21
7.1875
  0
LINE
  8
ValleyLine
  6
CONTINUOUS
 62
1
 10
2.6875
 20
7.28125
 11
2.59375
 21
7.1875
  0
LINE
  8
MountainLine
  6
CONTINUOUS
 62
5
 10
2.3125
 20
7.09375
 11
2.21875
 21
7.1875
  0
LINE
  8
ValleyLine
  6
CONTINUOUS
 62
1
 10
2.125
 20
7.46875
 11
2.21875
 21
7.1875
  0
LINE
  8
ValleyLine
  6
CONTINUOUS
 62
1
 10
2.59375
 20
7.1875
 11
2.21875
 21
7.1875
  0
LINE
  8
ValleyLine
  6
CONTINUOUS
 62
1
 10
2.125
 20
7.46875
 11
2.40625
 21
7.5625
  0
LINE
  8
ValleyLine
  6
CONTINUOUS
 62
1
 10
2.03125
 20
7.9375
 11
2.40625
 21
7.5625
  0
LINE
  8
MountainLine
  6
CONTINUOUS
 62
5
 10
2.21875
 20
7.1875
 11
2.40625
 21
7.5625
  0
LINE
  8
ValleyLine
  6
CONTINUOUS
 62
1
 10
3.0625
 20
7.28125
 11
2.96875
 21
7.375
  0
LINE
  8
MountainLine
  6
CONTINUOUS
 62
5
 10
2.59375
 20
7.1875
 11
2.59375
 21
7.5625
  0
LINE
  8
MountainLine
  6
CONTINUOUS
 62
5
 10
2.96875
 20
7.9375
 11
2.875
 21
7.84375
  0
LINE
  8
ValleyLine
  6
CONTINUOUS
 62
1
 10
3.0625
 20
7.84375
 11
2.96875
 21
7.75
  0
LINE
  8
ValleyLine
  6
CONTINUOUS
 62
1
 10
2.875
 20
7.84375
 11
2.96875
 21
7.75
  0
LINE
  8
MountainLine
  6
CONTINUOUS
 62
5
 10
2.40625
 20
8.125
 11
2.40625
 21
7.75
  0
LINE
  8
ValleyLine
  6
CONTINUOUS
 62
1
 10
2.3125
 20
8.03125
 11
2.40625
 21
7.75
  0
LINE
  8
MountainLine
  6
CONTINUOUS
 62
5
 10
2.03125
 20
7.9375
 11
2.40625
 21
7.75
  0
LINE
  8
MountainLine
  6
CONTINUOUS
 62
5
 10
2.40625
 20
7.5625
 11
2.40625
 21
7.75
  0
LINE
  8
MountainLine
  6
CONTINUOUS
 62
5
 10
3.0625
 20
7.46875
 11
2.96875
 21
7.375
  0
LINE
  8
ValleyLine
  6
CONTINUOUS
 62
1
 10
2.6875
 20
7.28125
 11
2.96875
 21
7.375
  0
LINE
  8
ValleyLine
  6
CONTINUOUS
 62
1
 10
2.96875
 20
7.75
 11
2.96875
 21
7.375
  0
LINE
  8
ValleyLine
  6
CONTINUOUS
 62
1
 10
2.6875
 20
7.28125
 11
2.59375
 21
7.5625
  0
LINE
  8
ValleyLine
  6
CONTINUOUS
 62
1
 10
2.21875
 20
7.1875
 11
2.59375
 21
7.5625
  0
LINE
  8
MountainLine
  6
CONTINUOUS
 62
5
 10
2.40625
 20
7.5625
 11
2.59375
 21
7.5625
  0
LINE
  8
MountainLine
  6
CONTINUOUS
 62
5
 10
2.96875
 20
7.375
 11
2.59375
 21
7.5625
  0
LINE
  8
ValleyLine
  6
CONTINUOUS
 62
1
 10
2.875
 20
8.21875
 11
2.78125
 21
8.125
  0
LINE
  8
MountainLine
  6
CONTINUOUS
 62
5
 10
2.6875
 20
8.21875
 11
2.78125
 21
8.125
  0
LINE
  8
ValleyLine
  6
CONTINUOUS
 62
1
 10
2.40625
 20
8.125
 11
2.78125
 21
8.125
  0
LINE
  8
ValleyLine
  6
CONTINUOUS
 62
1
 10
2.875
 20
7.84375
 11
2.78125
 21
8.125
  0
LINE
  8
ValleyLine
  6
CONTINUOUS
 62
1
 10
2.40625
 20
7.75
 11
2.78125
 21
8.125
  0
LINE
  8
MountainLine
  6
CONTINUOUS
 62
5
 10
2.96875
 20
7.75
 11
2.59375
 21
7.75
  0
LINE
  8
ValleyLine
  6
CONTINUOUS
 62
1
 10
2.875
 20
7.84375
 11
2.59375
 21
7.75
  0
LINE
  8
MountainLine
  6
CONTINUOUS
 62
5
 10
2.40625
 20
7.75
 11
2.59375
 21
7.75
  0
LINE
  8
ValleyLine
  6
CONTINUOUS
 62
1
 10
2.96875
 20
7.375
 11
2.59375
 21
7.75
  0
LINE
  8
MountainLine
  6
CONTINUOUS
 62
5
 10
2.59375
 20
7.5625
 11
2.59375
 21
7.75
  0
LINE
  8
MountainLine
  6
CONTINUOUS
 62
5
 10
2.78125
 20
8.125
 11
2.59375
 21
7.75
  0
LINE
  8
MountainLine
  6
CONTINUOUS
 62
5
 10
4.65625
 20
4.9375
 11
4.9375
 21
5.03125
  0
LINE
  8
ValleyLine
  6
CONTINUOUS
 62
1
 10
5.03125
 20
4.75
 11
4.9375
 21
5.03125
  0
LINE
  8
MountainLine
  6
CONTINUOUS
 62
5
 10
4.9375
 20
5.21875
 11
5.03125
 21
5.125
  0
LINE
  8
MountainLine
  6
CONTINUOUS
 62
5
 10
5.125
 20
4.84375
 11
5.03125
 21
5.125
  0
LINE
  8
MountainLine
  6
CONTINUOUS
 62
5
 10
5.3125
 20
5.21875
 11
5.03125
 21
5.125
  0
LINE
  8
ValleyLine
  6
CONTINUOUS
 62
1
 10
4.84375
 20
5.125
 11
4.9375
 21
5.03125
  0
LINE
  8
ValleyLine
  6
CONTINUOUS
 62
1
 10
5.03125
 20
5.125
 11
4.9375
 21
5.03125
  0
ENDSEC
  0
EOF
