  0
SECTION
  2
HEADER
  9
$ACADVER
  1
AC1009
  0
ENDSEC
  0
SECTION
  2
ENTITIES
  0
LINE
  8
CutLine
  6
CONTINUOUS
 62
250
 10
4.17704830618292
 20
5.955860688518141
 11
3.907031129586356
 21
5.965986332640512
  0
LINE
  8
CutLine
  6
CONTINUOUS
 62
250
 10
3.0000000000000004
 20
8.0
 11
3.196982806714333
 21
8.0
  0
LINE
  8
CutLine
  6
CONTINUOUS
 62
250
 10
4.336357275838624
 20
8.0
 11
4.069022271901596
 21
8.0
  0
LINE
  8
CutLine
  6
CONTINUOUS
 62
250
 10
4.336357275838624
 20
8.0
 11
4.641357581657316
 21
8.0
  0
LINE
  8
CutLine
  6
CONTINUOUS
 62
250
 10
3.663642724161449
 20
6.0
 11
3.3586424183427166
 21
6.0
  0
LINE
  8
CutLine
  6
CONTINUOUS
 62
250
 10
3.663642724161449
 20
6.0
 11
3.930977728098488
 21
6.0
  0
LINE
  8
MountainLine
  6
CONTINUOUS
 62
5
 10
5.000000000000067
 20
6.000000000000001
 11
4.803017193285725
 21
6.000000000000001
  0
LINE
  8
MountainLine
  6
CONTINUOUS
 62
5
 10
3.901508596642867
 20
7.098491403357187
 11
3.980785280403258
 21
7.195090322016149
  0
LINE
  8
MountainLine
  6
CONTINUOUS
 62
5
 10
3.901508596642867
 20
7.098491403357187
 11
3.804909677983882
 21
6.980785280403225
  0
LINE
  8
ValleyLine
  6
CONTINUOUS
 62
1
 10
3.9015085966428718
 20
7.098491403357162
 11
3.7083107593249163
 21
7.060061964163614
  0
LINE
  8
noname
  6
CONTINUOUS
 62
0
 10
3.8049096779838822
 20
6.980785280403225
 11
3.7083107593249163
 21
7.060061964163612
  0
LINE
  8
ValleyLine
  6
CONTINUOUS
 62
1
 10
3.9015085966428718
 20
7.098491403357162
 11
3.863079157449325
 21
7.291689240675106
  0
LINE
  8
noname
  6
CONTINUOUS
 62
0
 10
3.980785280403258
 20
7.1950903220161475
 11
3.8630791574493246
 21
7.291689240675106
  0
LINE
  8
MountainLine
  6
CONTINUOUS
 62
5
 10
3.708310759324916
 20
7.060061964163613
 11
3.863079157449325
 21
7.291689240675106
  0
LINE
  8
ValleyLine
  6
CONTINUOUS
 62
1
 10
3.7083107593249136
 20
7.0600619641636255
 11
3.6698813201313785
 21
7.253259801481572
  0
LINE
  8
ValleyLine
  6
CONTINUOUS
 62
1
 10
3.6698813201313785
 20
7.253259801481572
 11
3.8630791574493246
 21
7.291689240675106
  0
LINE
  8
MountainLine
  6
CONTINUOUS
 62
5
 10
3.980785280403258
 20
7.1950903220161475
 11
3.93897644082532
 21
7.405277552346275
  0
LINE
  8
ValleyLine
  6
CONTINUOUS
 62
1
 10
3.863079157449325
 20
7.291689240675106
 11
3.9389764408253205
 21
7.405277552346275
  0
LINE
  8
MountainLine
  6
CONTINUOUS
 62
5
 10
3.669881320131394
 20
7.253259801481574
 11
3.7287892104951803
 21
7.363468712768336
  0
LINE
  8
MountainLine
  6
CONTINUOUS
 62
5
 10
3.728789210495193
 20
7.363468712768338
 11
3.938976440825327
 21
7.405277552346276
  0
LINE
  8
MountainLine
  6
CONTINUOUS
 62
5
 10
3.8049096779838822
 20
6.980785280403225
 11
3.6324134759489226
 21
6.946473652492449
  0
LINE
  8
ValleyLine
  6
CONTINUOUS
 62
1
 10
3.7083107593249163
 20
7.060061964163613
 11
3.632413475948923
 21
6.946473652492449
  0
LINE
  8
MountainLine
  6
CONTINUOUS
 62
5
 10
3.669881320131394
 20
7.253259801481574
 11
3.598101848038154
 21
7.118969854527414
  0
LINE
  8
MountainLine
  6
CONTINUOUS
 62
5
 10
3.598101848038155
 20
7.118969854527409
 11
3.6324134759489195
 21
6.946473652492465
  0
LINE
  8
ValleyLine
  6
CONTINUOUS
 62
1
 10
3.6698813201315286
 20
7.253259801481601
 11
3.487892936751377
 21
7.177877744891191
  0
LINE
  8
ValleyLine
  6
CONTINUOUS
 62
1
 10
3.669881320131403
 20
7.253259801481576
 11
3.594499263541048
 21
7.435248184861596
  0
LINE
  8
MountainLine
  6
CONTINUOUS
 62
5
 10
3.487892936751376
 20
7.177877744891193
 11
3.5944992635410467
 21
7.435248184861595
  0
LINE
  8
ValleyLine
  6
CONTINUOUS
 62
1
 10
3.139287878404848
 20
7.414213562373113
 11
3.2487256622319958
 21
7.250428344444056
  0
LINE
  8
ValleyLine
  6
CONTINUOUS
 62
1
 10
3.139287878404848
 20
7.414213562373113
 11
3.303073096333894
 21
7.523651346200253
  0
LINE
  8
MountainLine
  6
CONTINUOUS
 62
5
 10
3.2487256622320073
 20
7.250428344444064
 11
3.3030730963339066
 21
7.523651346200236
  0
LINE
  8
ValleyLine
  6
CONTINUOUS
 62
1
 10
3.4878929367513667
 20
7.177877744891216
 11
3.4125108801609603
 21
7.3598661282713405
  0
LINE
  8
ValleyLine
  6
CONTINUOUS
 62
1
 10
3.5944992635410173
 20
7.4352481848615835
 11
3.4125108801610318
 21
7.359866128271234
  0
LINE
  8
ValleyLine
  6
CONTINUOUS
 62
1
 10
3.2487256622320064
 20
7.250428344444063
 11
3.4125108801610455
 21
7.3598661282712134
  0
LINE
  8
ValleyLine
  6
CONTINUOUS
 62
1
 10
3.3030730963338946
 20
7.523651346200253
 11
3.4125108801610455
 21
7.3598661282712134
  0
LINE
  8
MountainLine
  6
CONTINUOUS
 62
5
 10
3.139287878404867
 20
7.414213562373126
 11
3.1515365481669515
 21
7.538576393489118
  0
LINE
  8
MountainLine
  6
CONTINUOUS
 62
5
 10
3.7287892104951936
 20
7.363468712768338
 11
3.646778221597622
 21
7.561460754428512
  0
LINE
  8
ValleyLine
  6
CONTINUOUS
 62
1
 10
3.5944992635410467
 20
7.435248184861595
 11
3.646778221597621
 21
7.561460754428511
  0
LINE
  8
ValleyLine
  6
CONTINUOUS
 62
1
 10
3.3030730963339066
 20
7.523651346200236
 11
3.329724678031319
 21
7.65763789539525
  0
LINE
  8
MountainLine
  6
CONTINUOUS
 62
5
 10
3.1515365481669533
 20
7.5385763934891195
 11
3.3297246780313046
 21
7.657637895395272
  0
LINE
  8
MountainLine
  6
CONTINUOUS
 62
5
 10
3.412510880161046
 20
7.359866128271213
 11
3.4487861799374744
 21
7.4794497655308945
  0
LINE
  8
MountainLine
  6
CONTINUOUS
 62
5
 10
3.6467782215975886
 20
7.561460754428498
 11
3.448786179937457
 21
7.479449765530921
  0
LINE
  8
MountainLine
  6
CONTINUOUS
 62
5
 10
3.3297246780313006
 20
7.657637895395277
 11
3.448786179937457
 21
7.47944976553092
  0
LINE
  8
MountainLine
  6
CONTINUOUS
 62
5
 10
3.139287878404867
 20
7.414213562373126
 11
3.124362831116001
 21
7.262677014206147
  0
LINE
  8
MountainLine
  6
CONTINUOUS
 62
5
 10
3.598101848038155
 20
7.118969854527409
 11
3.4356139786948092
 21
7.05166517532429
  0
LINE
  8
ValleyLine
  6
CONTINUOUS
 62
1
 10
3.487892936751376
 20
7.177877744891193
 11
3.435613978694808
 21
7.051665175324293
  0
LINE
  8
ValleyLine
  6
CONTINUOUS
 62
1
 10
3.2487256622320073
 20
7.250428344444064
 11
3.222074080534595
 21
7.116441795249047
  0
LINE
  8
MountainLine
  6
CONTINUOUS
 62
5
 10
3.1243628311160014
 20
7.2626770142061465
 11
3.222074080534586
 21
7.116441795249042
  0
LINE
  8
MountainLine
  6
CONTINUOUS
 62
5
 10
3.412510880161046
 20
7.359866128271213
 11
3.3683092994917034
 21
7.214153044667646
  0
LINE
  8
MountainLine
  6
CONTINUOUS
 62
5
 10
3.4356139786948003
 20
7.051665175324311
 11
3.368309299491685
 21
7.2141530446676345
  0
LINE
  8
MountainLine
  6
CONTINUOUS
 62
5
 10
3.2220740805346004
 20
7.1164417952490515
 11
3.3683092994916857
 21
7.2141530446676345
  0
LINE
  8
MountainLine
  6
CONTINUOUS
 62
5
 10
4.0984914033572
 20
6.9015085966428495
 11
4.195090322016143
 21
7.019214719596759
  0
LINE
  8
ValleyLine
  6
CONTINUOUS
 62
1
 10
3.3586424183427246
 20
6.000000000000009
 11
4.019214719596797
 21
6.804909677983874
  0
LINE
  8
MountainLine
  6
CONTINUOUS
 62
5
 10
4.0984914033572
 20
6.9015085966428495
 11
4.019214719596797
 21
6.804909677983874
  0
LINE
  8
MountainLine
  6
CONTINUOUS
 62
5
 10
4.40550073645902
 20
6.564751815138462
 11
4.512107063248662
 21
6.822122255108807
  0
LINE
  8
ValleyLine
  6
CONTINUOUS
 62
1
 10
4.098491403357188
 20
6.901508596642847
 11
4.136920842550733
 21
6.708310759324907
  0
LINE
  8
noname
  6
CONTINUOUS
 62
0
 10
4.0192147195968
 20
6.80490967798386
 11
4.136920842550724
 21
6.708310759324905
  0
LINE
  8
ValleyLine
  6
CONTINUOUS
 62
1
 10
4.098491403357188
 20
6.901508596642847
 11
4.291689240675131
 21
6.939938035836393
  0
LINE
  8
noname
  6
CONTINUOUS
 62
0
 10
4.19509032201619
 20
7.019214719596769
 11
4.291689240675131
 21
6.939938035836396
  0
LINE
  8
MountainLine
  6
CONTINUOUS
 62
5
 10
4.136920842550736
 20
6.708310759324908
 11
4.291689240675131
 21
6.939938035836391
  0
LINE
  8
ValleyLine
  6
CONTINUOUS
 62
1
 10
4.405500736459029
 20
6.56475181513844
 11
4.330118679868679
 21
6.746740198518424
  0
LINE
  8
ValleyLine
  6
CONTINUOUS
 62
1
 10
4.512107063248676
 20
6.822122255108813
 11
4.330118679868673
 21
6.746740198518456
  0
LINE
  8
ValleyLine
  6
CONTINUOUS
 62
1
 10
4.1369208425507225
 20
6.708310759324905
 11
4.330118679868674
 21
6.7467401985184505
  0
LINE
  8
ValleyLine
  6
CONTINUOUS
 62
1
 10
4.291689240675131
 20
6.939938035836393
 11
4.330118679868674
 21
6.7467401985184505
  0
LINE
  8
ValleyLine
  6
CONTINUOUS
 62
1
 10
4.512107063248662
 20
6.822122255108807
 11
4.564386021305229
 21
6.9483348246757135
  0
LINE
  8
MountainLine
  6
CONTINUOUS
 62
5
 10
4.195090322016156
 20
7.0192147195967625
 11
4.367586524051111
 21
7.053526347507544
  0
LINE
  8
ValleyLine
  6
CONTINUOUS
 62
1
 10
4.291689240675131
 20
6.939938035836391
 11
4.367586524051112
 21
7.0535263475075425
  0
LINE
  8
MountainLine
  6
CONTINUOUS
 62
5
 10
4.330118679868676
 20
6.746740198518442
 11
4.401898151961886
 21
6.881030145472556
  0
LINE
  8
MountainLine
  6
CONTINUOUS
 62
5
 10
4.564386021305249
 20
6.948334824675722
 11
4.4018981519618805
 21
6.881030145472581
  0
LINE
  8
MountainLine
  6
CONTINUOUS
 62
5
 10
4.367586524051106
 20
7.0535263475075745
 11
4.40189815196188
 21
6.881030145472588
  0
LINE
  8
MountainLine
  6
CONTINUOUS
 62
5
 10
3.6636427241614364
 20
5.999999999999982
 11
4.061023559174757
 21
6.5947224476537585
  0
LINE
  8
MountainLine
  6
CONTINUOUS
 62
5
 10
4.0192147195968
 20
6.80490967798386
 11
4.061023559174754
 21
6.594722447653758
  0
LINE
  8
ValleyLine
  6
CONTINUOUS
 62
1
 10
4.136920842550736
 20
6.708310759324908
 11
4.061023559174757
 21
6.5947224476537585
  0
LINE
  8
ValleyLine
  6
CONTINUOUS
 62
1
 10
3.930977728098478
 20
5.999999999999982
 11
4.271210789504894
 21
6.636531287231685
  0
LINE
  8
MountainLine
  6
CONTINUOUS
 62
5
 10
4.330118679868676
 20
6.746740198518442
 11
4.271210789504894
 21
6.636531287231685
  0
LINE
  8
MountainLine
  6
CONTINUOUS
 62
5
 10
4.061023559174716
 20
6.59472244765375
 11
4.271210789504863
 21
6.636531287231678
  0
LINE
  8
MountainLine
  6
CONTINUOUS
 62
5
 10
4.171572875253851
 20
5.999999999999982
 11
4.353221778402454
 21
6.438539245571559
  0
LINE
  8
ValleyLine
  6
CONTINUOUS
 62
1
 10
4.40550073645902
 20
6.564751815138462
 11
4.353221778402454
 21
6.438539245571559
  0
LINE
  8
MountainLine
  6
CONTINUOUS
 62
5
 10
4.27121078950487
 20
6.63653128723168
 11
4.353221778402453
 21
6.438539245571559
  0
LINE
  8
ValleyLine
  6
CONTINUOUS
 62
1
 10
4.405500736459029
 20
6.56475181513844
 11
4.587489119838811
 21
6.640133871728704
  0
LINE
  8
ValleyLine
  6
CONTINUOUS
 62
1
 10
4.512107063248676
 20
6.8221222551088125
 11
4.587489119839019
 21
6.640133871728844
  0
LINE
  8
ValleyLine
  6
CONTINUOUS
 62
1
 10
4.5874891198389784
 20
6.640133871728817
 11
4.696926903666124
 21
6.476348653799775
  0
LINE
  8
ValleyLine
  6
CONTINUOUS
 62
1
 10
4.587489119838999
 20
6.64013387172883
 11
4.751274337768027
 21
6.749571655555966
  0
LINE
  8
MountainLine
  6
CONTINUOUS
 62
5
 10
4.696926903666164
 20
6.476348653799802
 11
4.751274337768045
 21
6.74957165555594
  0
LINE
  8
ValleyLine
  6
CONTINUOUS
 62
1
 10
4.696926903666124
 20
6.476348653799775
 11
4.860712121595146
 21
6.585786437626906
  0
LINE
  8
ValleyLine
  6
CONTINUOUS
 62
1
 10
4.751274337768027
 20
6.749571655555966
 11
4.860712121595169
 21
6.58578643762693
  0
LINE
  8
MountainLine
  6
CONTINUOUS
 62
5
 10
4.564386021305249
 20
6.948334824675722
 11
4.631690700508364
 21
6.785846955332388
  0
LINE
  8
MountainLine
  6
CONTINUOUS
 62
5
 10
4.587489119839028
 20
6.64013387172885
 11
4.631690700508356
 21
6.785846955332382
  0
LINE
  8
ValleyLine
  6
CONTINUOUS
 62
1
 10
4.751274337768045
 20
6.74957165555594
 11
4.777925919465453
 21
6.8835582047509565
  0
LINE
  8
MountainLine
  6
CONTINUOUS
 62
5
 10
4.631690700508372
 20
6.785846955332393
 11
4.777925919465434
 21
6.883558204750985
  0
LINE
  8
MountainLine
  6
CONTINUOUS
 62
5
 10
4.860712121595179
 20
6.58578643762694
 11
4.875637168884034
 21
6.737322985793849
  0
LINE
  8
MountainLine
  6
CONTINUOUS
 62
5
 10
4.777925919465434
 20
6.883558204750985
 11
4.875637168884037
 21
6.737322985793853
  0
LINE
  8
ValleyLine
  6
CONTINUOUS
 62
1
 10
4.803017193285723
 20
5.999999999999982
 11
4.848463451833096
 21
6.461423606510918
  0
LINE
  8
MountainLine
  6
CONTINUOUS
 62
5
 10
4.860712121595179
 20
6.58578643762694
 11
4.848463451833096
 21
6.461423606510918
  0
LINE
  8
ValleyLine
  6
CONTINUOUS
 62
1
 10
4.393306632785371
 20
6.000000000000009
 11
4.551213820062582
 21
6.520550234469098
  0
LINE
  8
MountainLine
  6
CONTINUOUS
 62
5
 10
4.353221778402429
 20
6.438539245571549
 11
4.551213820062577
 21
6.520550234469106
  0
LINE
  8
MountainLine
  6
CONTINUOUS
 62
5
 10
4.587489119839028
 20
6.64013387172885
 11
4.551213820062582
 21
6.520550234469098
  0
LINE
  8
MountainLine
  6
CONTINUOUS
 62
5
 10
4.602175265240748
 20
6.000000000000009
 11
4.6702753219687505
 21
6.3423621046047565
  0
LINE
  8
ValleyLine
  6
CONTINUOUS
 62
1
 10
4.696926903666164
 20
6.476348653799802
 11
4.6702753219687505
 21
6.3423621046047565
  0
LINE
  8
MountainLine
  6
CONTINUOUS
 62
5
 10
4.848463451833094
 20
6.461423606510916
 11
4.670275321968735
 21
6.342362104604778
  0
LINE
  8
MountainLine
  6
CONTINUOUS
 62
5
 10
4.55121382006257
 20
6.520550234469116
 11
4.67027532196875
 21
6.3423621046047565
  0
LINE
  8
noname
  6
CONTINUOUS
 62
0
 10
3.901508596642873
 20
7.098491403357157
 11
4.000000000000018
 21
7.000000000000014
  0
LINE
  8
noname
  6
CONTINUOUS
 62
0
 10
4.098491403357189
 20
6.901508596642847
 11
4.000000000000018
 21
7.000000000000014
  0
LINE
  8
MountainLine
  6
CONTINUOUS
 62
5
 10
3.901508596642842
 20
6.9015085966428416
 11
4.098491403357194
 21
7.098491403357187
  0
LINE
  8
MountainLine
  6
CONTINUOUS
 62
5
 10
3.804909677983882
 20
6.980785280403225
 11
3.804909677983882
 21
6.804909677983882
  0
LINE
  8
MountainLine
  6
CONTINUOUS
 62
5
 10
4.019214719596799
 20
6.804909677983867
 11
3.8049096779838822
 21
6.804909677983882
  0
LINE
  8
ValleyLine
  6
CONTINUOUS
 62
1
 10
3.901508596642842
 20
7.098491403357313
 11
3.901508596642842
 21
6.9015085966428416
  0
LINE
  8
ValleyLine
  6
CONTINUOUS
 62
1
 10
4.098491403357163
 20
6.9015085966428416
 11
3.901508596642842
 21
6.9015085966428416
  0
LINE
  8
noname
  6
CONTINUOUS
 62
0
 10
3.8049096779838822
 20
6.980785280403225
 11
3.901508596642842
 21
6.9015085966428416
  0
LINE
  8
noname
  6
CONTINUOUS
 62
0
 10
4.0192147195968
 20
6.80490967798386
 11
3.901508596642842
 21
6.9015085966428416
  0
LINE
  8
ValleyLine
  6
CONTINUOUS
 62
1
 10
3.901508596642842
 20
6.9015085966428416
 11
3.8049096779838822
 21
6.804909677983882
  0
LINE
  8
MountainLine
  6
CONTINUOUS
 62
5
 10
3.980785280403258
 20
7.195090322016148
 11
4.195090322016156
 21
7.1950903220161555
  0
LINE
  8
MountainLine
  6
CONTINUOUS
 62
5
 10
4.19509032201615
 20
7.019214719596761
 11
4.1950903220161555
 21
7.195090322016155
  0
LINE
  8
ValleyLine
  6
CONTINUOUS
 62
1
 10
3.9015085966428673
 20
7.098491403357187
 11
4.098491403357194
 21
7.098491403357187
  0
LINE
  8
ValleyLine
  6
CONTINUOUS
 62
1
 10
4.098491403357194
 20
6.901508596642849
 11
4.098491403357194
 21
7.098491403357187
  0
LINE
  8
noname
  6
CONTINUOUS
 62
0
 10
3.980785280403258
 20
7.1950903220161475
 11
4.098491403357194
 21
7.098491403357187
  0
LINE
  8
noname
  6
CONTINUOUS
 62
0
 10
4.19509032201619
 20
7.019214719596769
 11
4.098491403357194
 21
7.098491403357187
  0
LINE
  8
ValleyLine
  6
CONTINUOUS
 62
1
 10
4.198912367379703
 20
7.198912367379702
 11
4.098491403357194
 21
7.098491403357187
  0
LINE
  8
MountainLine
  6
CONTINUOUS
 62
5
 10
1.0000000000000053
 20
7.999999999999995
 11
1.8010876326202978
 21
7.198912367379702
  0
LINE
  8
CutLine
  6
CONTINUOUS
 62
250
 10
1.6636427241613765
 20
8.0
 11
1.9309777280984042
 21
8.0
  0
LINE
  8
ValleyLine
  6
CONTINUOUS
 62
1
 10
3.1392878784049763
 20
7.414213562373199
 11
3.0
 21
7.274925683968221
  0
LINE
  8
ValleyLine
  6
CONTINUOUS
 62
1
 10
3.139287878404869
 20
7.414213562373126
 11
3.0
 21
7.553501440777994
  0
LINE
  8
MountainLine
  6
CONTINUOUS
 62
5
 10
3.0
 20
7.274925683968221
 11
3.0
 21
7.553501440777994
  0
LINE
  8
MountainLine
  6
CONTINUOUS
 62
5
 10
2.5121070632486244
 20
7.177877744891193
 11
2.405500736458954
 21
7.435248184861595
  0
LINE
  8
MountainLine
  6
CONTINUOUS
 62
5
 10
2.7512743377679927
 20
7.250428344444064
 11
2.6969269036660934
 21
7.523651346200236
  0
LINE
  8
CutLine
  6
CONTINUOUS
 62
250
 10
3.0000000000000004
 20
8.0
 11
2.803017193285668
 21
8.0
  0
LINE
  8
MountainLine
  6
CONTINUOUS
 62
5
 10
3.1515365481669537
 20
7.5385763934891195
 11
3.0
 21
7.690112941656083
  0
LINE
  8
ValleyLine
  6
CONTINUOUS
 62
1
 10
3.0
 20
7.553501440777994
 11
3.0
 21
7.690112941656083
  0
LINE
  8
CutLine
  6
CONTINUOUS
 62
250
 10
1.9309777280984042
 20
8.0
 11
2.171572875253804
 21
8.0
  0
LINE
  8
ValleyLine
  6
CONTINUOUS
 62
1
 10
1.9309777280984237
 20
7.999999999999964
 11
2.271210789504812
 21
7.36346871276835
  0
LINE
  8
MountainLine
  6
CONTINUOUS
 62
5
 10
2.330118679868601
 20
7.253259801481585
 11
2.2712107895048117
 21
7.36346871276835
  0
LINE
  8
ValleyLine
  6
CONTINUOUS
 62
1
 10
2.3301186798685976
 20
7.253259801481576
 11
2.405500736458953
 21
7.435248184861598
  0
LINE
  8
CutLine
  6
CONTINUOUS
 62
250
 10
2.803017193285668
 20
8.0
 11
2.6021752652406653
 21
8.0
  0
LINE
  8
ValleyLine
  6
CONTINUOUS
 62
1
 10
2.803017193285669
 20
7.999999999999991
 11
2.848463451833049
 21
7.538576393489118
  0
LINE
  8
MountainLine
  6
CONTINUOUS
 62
5
 10
2.9999999999999876
 20
7.69011294165607
 11
2.8484634518330463
 21
7.5385763934891195
  0
LINE
  8
MountainLine
  6
CONTINUOUS
 62
5
 10
2.8607121215951334
 20
7.414213562373126
 11
2.848463451833049
 21
7.538576393489118
  0
LINE
  8
CutLine
  6
CONTINUOUS
 62
250
 10
2.171572875253804
 20
8.0
 11
2.3933066327852943
 21
8.0
  0
LINE
  8
CutLine
  6
CONTINUOUS
 62
250
 10
2.602175265240665
 20
8.0
 11
2.3933066327852943
 21
8.0
  0
LINE
  8
MountainLine
  6
CONTINUOUS
 62
5
 10
2.171572875253797
 20
8.000000000000018
 11
2.3532217784023794
 21
7.561460754428511
  0
LINE
  8
MountainLine
  6
CONTINUOUS
 62
5
 10
2.2712107895048073
 20
7.363468712768338
 11
2.3532217784023786
 21
7.561460754428512
  0
LINE
  8
ValleyLine
  6
CONTINUOUS
 62
1
 10
2.4055007364589533
 20
7.435248184861595
 11
2.3532217784023794
 21
7.561460754428511
  0
LINE
  8
MountainLine
  6
CONTINUOUS
 62
5
 10
2.602175265240667
 20
7.999999999999991
 11
2.6702753219686812
 21
7.65763789539525
  0
LINE
  8
ValleyLine
  6
CONTINUOUS
 62
1
 10
2.6969269036660934
 20
7.523651346200236
 11
2.6702753219686812
 21
7.65763789539525
  0
LINE
  8
MountainLine
  6
CONTINUOUS
 62
5
 10
2.8484634518330467
 20
7.5385763934891195
 11
2.6702753219686954
 21
7.657637895395272
  0
LINE
  8
ValleyLine
  6
CONTINUOUS
 62
1
 10
2.393306632785289
 20
8.000000000000018
 11
2.551213820062526
 21
7.4794497655308945
  0
LINE
  8
MountainLine
  6
CONTINUOUS
 62
5
 10
2.5874891198389545
 20
7.359866128271213
 11
2.551213820062526
 21
7.4794497655308945
  0
LINE
  8
MountainLine
  6
CONTINUOUS
 62
5
 10
2.353221778402412
 20
7.561460754428498
 11
2.5512138200625434
 21
7.479449765530921
  0
LINE
  8
MountainLine
  6
CONTINUOUS
 62
5
 10
2.6702753219687
 20
7.657637895395277
 11
2.551213820062543
 21
7.47944976553092
  0
LINE
  8
MountainLine
  6
CONTINUOUS
 62
5
 10
3.1243628311160014
 20
7.262677014206146
 11
3.0
 21
7.138314183090143
  0
LINE
  8
ValleyLine
  6
CONTINUOUS
 62
1
 10
3.0
 20
7.274925683968221
 11
3.0
 21
7.138314183090143
  0
LINE
  8
ValleyLine
  6
CONTINUOUS
 62
1
 10
2.999999999999986
 20
7.274925683968236
 11
2.860712121595137
 21
7.414213562373085
  0
LINE
  8
ValleyLine
  6
CONTINUOUS
 62
1
 10
2.999999999999992
 20
7.553501440777986
 11
2.8607121215951334
 21
7.414213562373128
  0
LINE
  8
ValleyLine
  6
CONTINUOUS
 62
1
 10
2.6969269036660872
 20
7.523651346200266
 11
2.8607121215951334
 21
7.414213562373126
  0
LINE
  8
MountainLine
  6
CONTINUOUS
 62
5
 10
2.330118679868601
 20
7.253259801481585
 11
2.4018981519618494
 21
7.118969854527407
  0
LINE
  8
ValleyLine
  6
CONTINUOUS
 62
1
 10
2.330118679868588
 20
7.253259801481553
 11
2.5121070632486253
 21
7.177877744891191
  0
LINE
  8
ValleyLine
  6
CONTINUOUS
 62
1
 10
2.860712121595137
 20
7.41421356237309
 11
2.751274337767997
 21
7.250428344444044
  0
LINE
  8
MountainLine
  6
CONTINUOUS
 62
5
 10
2.999999999999985
 20
7.138314183090159
 11
2.875637168883999
 21
7.262677014206146
  0
LINE
  8
MountainLine
  6
CONTINUOUS
 62
5
 10
2.8607121215951334
 20
7.414213562373126
 11
2.8756371688839995
 21
7.262677014206147
  0
LINE
  8
ValleyLine
  6
CONTINUOUS
 62
1
 10
2.4055007364589533
 20
7.435248184861595
 11
2.5874891198389447
 21
7.3598661282712445
  0
LINE
  8
ValleyLine
  6
CONTINUOUS
 62
1
 10
2.6969269036660934
 20
7.523651346200236
 11
2.5874891198389545
 21
7.359866128271213
  0
LINE
  8
ValleyLine
  6
CONTINUOUS
 62
1
 10
2.5121070632486244
 20
7.177877744891193
 11
2.5874891198389682
 21
7.359866128271168
  0
LINE
  8
ValleyLine
  6
CONTINUOUS
 62
1
 10
2.7512743377679927
 20
7.250428344444064
 11
2.5874891198389545
 21
7.359866128271214
  0
LINE
  8
MountainLine
  6
CONTINUOUS
 62
5
 10
2.4018981519618454
 20
7.118969854527409
 11
2.564386021305191
 21
7.05166517532429
  0
LINE
  8
ValleyLine
  6
CONTINUOUS
 62
1
 10
2.5121070632486244
 20
7.177877744891193
 11
2.564386021305192
 21
7.051665175324294
  0
LINE
  8
ValleyLine
  6
CONTINUOUS
 62
1
 10
2.7512743377679927
 20
7.250428344444064
 11
2.777925919465406
 21
7.116441795249047
  0
LINE
  8
MountainLine
  6
CONTINUOUS
 62
5
 10
2.8756371688839995
 20
7.2626770142061465
 11
2.777925919465414
 21
7.116441795249042
  0
LINE
  8
MountainLine
  6
CONTINUOUS
 62
5
 10
2.5874891198389545
 20
7.359866128271213
 11
2.6316907005082975
 21
7.214153044667646
  0
LINE
  8
MountainLine
  6
CONTINUOUS
 62
5
 10
2.5643860213052
 20
7.051665175324311
 11
2.631690700508315
 21
7.2141530446676345
  0
LINE
  8
MountainLine
  6
CONTINUOUS
 62
5
 10
2.631690700508315
 20
7.2141530446676345
 11
2.7779259194653996
 21
7.1164417952490515
  0
LINE
  8
MountainLine
  6
CONTINUOUS
 62
5
 10
1.8010876326202974
 20
4.8010876326202965
 11
1.0000000000000053
 21
4.000000000000003
  0
LINE
  8
CutLine
  6
CONTINUOUS
 62
250
 10
1.0
 20
4.663642724161374
 11
1.0
 21
4.930977728098403
  0
LINE
  8
MountainLine
  6
CONTINUOUS
 62
5
 10
1.8221222551088068
 20
5.512107063248623
 11
1.5647518151384046
 21
5.4055007364589525
  0
LINE
  8
MountainLine
  6
CONTINUOUS
 62
5
 10
1.7495716555559362
 20
5.751274337767992
 11
1.4763486537997648
 21
5.696926903666093
  0
LINE
  8
CutLine
  6
CONTINUOUS
 62
250
 10
1.0
 20
4.930977728098403
 11
1.0
 21
5.171572875253802
  0
LINE
  8
ValleyLine
  6
CONTINUOUS
 62
1
 10
1.0000000000000364
 20
4.930977728098422
 11
1.6365312872316489
 21
5.27121078950481
  0
LINE
  8
MountainLine
  6
CONTINUOUS
 62
5
 10
1.7467401985184146
 20
5.330118679868599
 11
1.6365312872316493
 21
5.27121078950481
  0
LINE
  8
ValleyLine
  6
CONTINUOUS
 62
1
 10
1.7467401985184234
 20
5.330118679868596
 11
1.5647518151384037
 21
5.405500736458952
  0
LINE
  8
CutLine
  6
CONTINUOUS
 62
250
 10
1.0
 20
5.803017193285666
 11
1.0
 21
5.602175265240663
  0
LINE
  8
CutLine
  6
CONTINUOUS
 62
250
 10
1.0
 20
5.171572875253802
 11
1.0
 21
5.3933066327852925
  0
LINE
  8
CutLine
  6
CONTINUOUS
 62
250
 10
1.0
 20
5.602175265240663
 11
1.0
 21
5.3933066327852925
  0
LINE
  8
MountainLine
  6
CONTINUOUS
 62
5
 10
0.9999999999999818
 20
5.171572875253794
 11
1.4385392455714885
 21
5.353221778402378
  0
LINE
  8
MountainLine
  6
CONTINUOUS
 62
5
 10
1.6365312872316617
 20
5.271210789504805
 11
1.4385392455714876
 21
5.353221778402377
  0
LINE
  8
ValleyLine
  6
CONTINUOUS
 62
1
 10
1.564751815138405
 20
5.4055007364589525
 11
1.438539245571488
 21
5.353221778402378
  0
LINE
  8
MountainLine
  6
CONTINUOUS
 62
5
 10
1.0000000000000089
 20
5.602175265240665
 11
1.3423621046047507
 21
5.6702753219686794
  0
LINE
  8
ValleyLine
  6
CONTINUOUS
 62
1
 10
1.4763486537997648
 20
5.696926903666093
 11
1.3423621046047507
 21
5.6702753219686794
  0
LINE
  8
ValleyLine
  6
CONTINUOUS
 62
1
 10
0.9999999999999818
 20
5.393306632785287
 11
1.520550234469105
 21
5.551213820062525
  0
LINE
  8
MountainLine
  6
CONTINUOUS
 62
5
 10
1.640133871728786
 20
5.587489119838953
 11
1.5205502344691055
 21
5.551213820062524
  0
LINE
  8
MountainLine
  6
CONTINUOUS
 62
5
 10
1.4385392455715018
 20
5.3532217784024105
 11
1.5205502344690793
 21
5.551213820062542
  0
LINE
  8
MountainLine
  6
CONTINUOUS
 62
5
 10
1.3423621046047223
 20
5.670275321968698
 11
1.5205502344690798
 21
5.551213820062541
  0
LINE
  8
MountainLine
  6
CONTINUOUS
 62
5
 10
1.746740198518415
 20
5.330118679868599
 11
1.8810301454725926
 21
5.4018981519618485
  0
LINE
  8
ValleyLine
  6
CONTINUOUS
 62
1
 10
1.7467401985184465
 20
5.330118679868586
 11
1.8221222551088094
 21
5.512107063248624
  0
LINE
  8
ValleyLine
  6
CONTINUOUS
 62
1
 10
1.5647518151384046
 20
5.4055007364589525
 11
1.640133871728756
 21
5.587489119838944
  0
LINE
  8
ValleyLine
  6
CONTINUOUS
 62
1
 10
1.4763486537997648
 20
5.696926903666093
 11
1.6401338717287866
 21
5.587489119838953
  0
LINE
  8
ValleyLine
  6
CONTINUOUS
 62
1
 10
1.8221222551088063
 20
5.512107063248623
 11
1.6401338717288318
 21
5.587489119838967
  0
LINE
  8
ValleyLine
  6
CONTINUOUS
 62
1
 10
1.7495716555559357
 20
5.751274337767991
 11
1.640133871728786
 21
5.587489119838953
  0
LINE
  8
ValleyLine
  6
CONTINUOUS
 62
1
 10
1.8221222551088068
 20
5.5121070632486235
 11
1.9483348246757064
 21
5.564386021305191
  0
LINE
  8
ValleyLine
  6
CONTINUOUS
 62
1
 10
1.7495716555559362
 20
5.751274337767991
 11
1.883558204750953
 21
5.777925919465405
  0
LINE
  8
MountainLine
  6
CONTINUOUS
 62
5
 10
1.640133871728786
 20
5.587489119838953
 11
1.7858469553323535
 21
5.631690700508296
  0
LINE
  8
ValleyLine
  6
CONTINUOUS
 62
1
 10
1.4763486537997337
 20
5.696926903666086
 11
1.585786437626873
 21
5.860712121595131
  0
LINE
  8
ValleyLine
  6
CONTINUOUS
 62
1
 10
1.7495716555559557
 20
5.751274337767995
 11
1.585786437626783
 21
5.8607121215952205
  0
LINE
  8
CutLine
  6
CONTINUOUS
 62
250
 10
1.0
 20
5.803017193285666
 11
1.0
 21
5.999999999999999
  0
LINE
  8
ValleyLine
  6
CONTINUOUS
 62
1
 10
1.0000000000000084
 20
5.803017193285667
 11
1.4614236065108774
 21
5.848463451833047
  0
LINE
  8
MountainLine
  6
CONTINUOUS
 62
5
 10
1.3423621046047285
 20
5.6702753219686945
 11
1.46142360651088
 21
5.8484634518330445
  0
LINE
  8
MountainLine
  6
CONTINUOUS
 62
5
 10
1.5857864376268722
 20
5.860712121595132
 11
1.4614236065108774
 21
5.848463451833047
  0
LINE
  8
CutLine
  6
CONTINUOUS
 62
250
 10
1.0
 20
7.336357275838623
 11
1.0
 21
7.069022271901594
  0
LINE
  8
CutLine
  6
CONTINUOUS
 62
250
 10
1.0
 20
5.999999999999999
 11
1.0
 21
6.196982806714331
  0
LINE
  8
MountainLine
  6
CONTINUOUS
 62
5
 10
1.0
 20
5.999999999999999
 11
1.309887058343917
 21
5.999999999999999
  0
LINE
  8
MountainLine
  6
CONTINUOUS
 62
5
 10
1.4614236065108797
 20
5.848463451833045
 11
1.3098870583439166
 21
5.999999999999999
  0
LINE
  8
CutLine
  6
CONTINUOUS
 62
250
 10
1.0
 20
7.069022271901594
 11
1.0000000000000004
 21
6.828427124746195
  0
LINE
  8
ValleyLine
  6
CONTINUOUS
 62
1
 10
1.000000000000036
 20
7.069022271901575
 11
1.6365312872316498
 21
6.728789210495187
  0
LINE
  8
CutLine
  6
CONTINUOUS
 62
250
 10
1.0
 20
6.196982806714331
 11
1.0
 21
6.397824734759334
  0
LINE
  8
ValleyLine
  6
CONTINUOUS
 62
1
 10
1.0000000000000089
 20
6.19698280671433
 11
1.4614236065108814
 21
6.15153654816695
  0
LINE
  8
MountainLine
  6
CONTINUOUS
 62
5
 10
1.30988705834393
 20
6.0000000000000115
 11
1.4614236065108797
 21
6.151536548166952
  0
LINE
  8
CutLine
  6
CONTINUOUS
 62
250
 10
1.0
 20
6.828427124746195
 11
1.0
 21
6.606693367214705
  0
LINE
  8
CutLine
  6
CONTINUOUS
 62
250
 10
1.0
 20
6.397824734759334
 11
1.0
 21
6.606693367214705
  0
LINE
  8
MountainLine
  6
CONTINUOUS
 62
5
 10
0.9999999999999813
 20
6.828427124746202
 11
1.4385392455714885
 21
6.64677822159762
  0
LINE
  8
MountainLine
  6
CONTINUOUS
 62
5
 10
1.6365312872316613
 20
6.728789210495192
 11
1.4385392455714885
 21
6.646778221597621
  0
LINE
  8
MountainLine
  6
CONTINUOUS
 62
5
 10
1.0000000000000089
 20
6.397824734759332
 11
1.3423621046047503
 21
6.329724678031318
  0
LINE
  8
MountainLine
  6
CONTINUOUS
 62
5
 10
1.46142360651088
 20
6.151536548166952
 11
1.342362104604728
 21
6.329724678031303
  0
LINE
  8
ValleyLine
  6
CONTINUOUS
 62
1
 10
0.9999999999999813
 20
6.60669336721471
 11
1.5205502344691055
 21
6.448786179937473
  0
LINE
  8
MountainLine
  6
CONTINUOUS
 62
5
 10
1.4385392455715018
 20
6.646778221597588
 11
1.5205502344690793
 21
6.448786179937455
  0
LINE
  8
MountainLine
  6
CONTINUOUS
 62
5
 10
1.3423621046047218
 20
6.329724678031299
 11
1.5205502344690798
 21
6.448786179937456
  0
LINE
  8
MountainLine
  6
CONTINUOUS
 62
5
 10
1.5857864376268718
 20
5.860712121595132
 11
1.7373229857938544
 21
5.875637168883998
  0
LINE
  8
ValleyLine
  6
CONTINUOUS
 62
1
 10
1.5857864376268909
 20
5.860712121595112
 11
1.7250743160317787
 21
6.0
  0
LINE
  8
ValleyLine
  6
CONTINUOUS
 62
1
 10
1.5857864376268735
 20
5.86071212159513
 11
1.4464985592220052
 21
5.999999999999999
  0
LINE
  8
ValleyLine
  6
CONTINUOUS
 62
1
 10
1.309887058343917
 20
5.999999999999999
 11
1.4464985592220057
 21
5.999999999999999
  0
LINE
  8
MountainLine
  6
CONTINUOUS
 62
5
 10
1.7250743160317787
 20
5.999999999999999
 11
1.4464985592220057
 21
5.999999999999999
  0
LINE
  8
MountainLine
  6
CONTINUOUS
 62
5
 10
1.6365312872316493
 20
6.7287892104951865
 11
1.7467401985184625
 21
6.669881320131373
  0
LINE
  8
MountainLine
  6
CONTINUOUS
 62
5
 10
1.4614236065108814
 20
6.15153654816695
 11
1.5857864376269113
 21
6.139287878404863
  0
LINE
  8
ValleyLine
  6
CONTINUOUS
 62
1
 10
1.7250743160317787
 20
5.999999999999999
 11
1.8616858169098562
 21
5.999999999999999
  0
LINE
  8
ValleyLine
  6
CONTINUOUS
 62
1
 10
1.725074316031764
 20
6.000000000000014
 11
1.5857864376269135
 21
6.139287878404862
  0
LINE
  8
ValleyLine
  6
CONTINUOUS
 62
1
 10
1.4464985592220136
 20
6.000000000000007
 11
1.5857864376268713
 21
6.139287878404867
  0
LINE
  8
MountainLine
  6
CONTINUOUS
 62
5
 10
1.8810301454725922
 20
5.4018981519618485
 11
1.94833482467571
 21
5.564386021305192
  0
LINE
  8
MountainLine
  6
CONTINUOUS
 62
5
 10
1.737322985793853
 20
5.875637168883998
 11
1.8835582047509658
 21
5.777925919465407
  0
LINE
  8
MountainLine
  6
CONTINUOUS
 62
5
 10
1.9483348246757064
 20
5.564386021305191
 11
1.7858469553323855
 21
5.6316907005083054
  0
LINE
  8
MountainLine
  6
CONTINUOUS
 62
5
 10
1.883558204750953
 20
5.777925919465405
 11
1.7858469553323535
 21
5.631690700508296
  0
LINE
  8
MountainLine
  6
CONTINUOUS
 62
5
 10
1.7373229857938544
 20
5.875637168883998
 11
1.8616858169098562
 21
5.999999999999999
  0
LINE
  8
ValleyLine
  6
CONTINUOUS
 62
1
 10
1.4385392455714885
 20
6.64677822159762
 11
1.5647518151384046
 21
6.594499263541046
  0
LINE
  8
ValleyLine
  6
CONTINUOUS
 62
1
 10
1.7467401985184465
 20
6.669881320131411
 11
1.5647518151384037
 21
6.594499263541047
  0
LINE
  8
ValleyLine
  6
CONTINUOUS
 62
1
 10
1.3423621046047503
 20
6.329724678031318
 11
1.4763486537997648
 21
6.303073096333906
  0
LINE
  8
ValleyLine
  6
CONTINUOUS
 62
1
 10
1.585786437626874
 20
6.139287878404866
 11
1.4763486537997461
 21
6.303073096333893
  0
LINE
  8
MountainLine
  6
CONTINUOUS
 62
5
 10
1.5647518151384046
 20
6.594499263541046
 11
1.8221222551088068
 21
6.487892936751375
  0
LINE
  8
MountainLine
  6
CONTINUOUS
 62
5
 10
1.4763486537997643
 20
6.303073096333906
 11
1.7495716555559357
 21
6.248725662232006
  0
LINE
  8
MountainLine
  6
CONTINUOUS
 62
5
 10
1.5205502344691055
 20
6.448786179937473
 11
1.6401338717287866
 21
6.412510880161044
  0
LINE
  8
MountainLine
  6
CONTINUOUS
 62
5
 10
1.7467401985184616
 20
6.669881320131373
 11
1.8810301454725926
 21
6.59810184803815
  0
LINE
  8
ValleyLine
  6
CONTINUOUS
 62
1
 10
1.7467401985184465
 20
6.669881320131411
 11
1.822122255108809
 21
6.487892936751374
  0
LINE
  8
ValleyLine
  6
CONTINUOUS
 62
1
 10
1.5857864376269108
 20
6.139287878404863
 11
1.7495716555559557
 21
6.248725662232003
  0
LINE
  8
MountainLine
  6
CONTINUOUS
 62
5
 10
1.5857864376268749
 20
6.139287878404866
 11
1.7373229857938526
 21
6.124362831115999
  0
LINE
  8
MountainLine
  6
CONTINUOUS
 62
5
 10
1.8616858169098562
 20
5.999999999999999
 11
1.737322985793854
 21
6.1243628311160005
  0
LINE
  8
ValleyLine
  6
CONTINUOUS
 62
1
 10
1.5647518151384046
 20
6.594499263541046
 11
1.6401338717287564
 21
6.412510880161054
  0
LINE
  8
ValleyLine
  6
CONTINUOUS
 62
1
 10
1.4763486537997648
 20
6.303073096333906
 11
1.640133871728786
 21
6.412510880161045
  0
LINE
  8
ValleyLine
  6
CONTINUOUS
 62
1
 10
1.8221222551088068
 20
6.487892936751375
 11
1.640133871728831
 21
6.412510880161031
  0
LINE
  8
ValleyLine
  6
CONTINUOUS
 62
1
 10
1.7495716555559357
 20
6.248725662232006
 11
1.640133871728786
 21
6.412510880161045
  0
LINE
  8
ValleyLine
  6
CONTINUOUS
 62
1
 10
1.8221222551088063
 20
6.487892936751376
 11
1.9483348246757068
 21
6.435613978694807
  0
LINE
  8
MountainLine
  6
CONTINUOUS
 62
5
 10
1.8810301454725908
 20
6.598101848038154
 11
1.94833482467571
 21
6.435613978694809
  0
LINE
  8
ValleyLine
  6
CONTINUOUS
 62
1
 10
1.7495716555559362
 20
6.248725662232006
 11
1.883558204750953
 21
6.222074080534593
  0
LINE
  8
MountainLine
  6
CONTINUOUS
 62
5
 10
1.7373229857938535
 20
6.1243628311160005
 11
1.8835582047509578
 21
6.222074080534585
  0
LINE
  8
MountainLine
  6
CONTINUOUS
 62
5
 10
1.6401338717287866
 20
6.412510880161045
 11
1.785846955332353
 21
6.3683092994917025
  0
LINE
  8
MountainLine
  6
CONTINUOUS
 62
5
 10
1.9483348246756877
 20
6.4356139786948
 11
1.7858469553323655
 21
6.368309299491683
  0
LINE
  8
MountainLine
  6
CONTINUOUS
 62
5
 10
1.785846955332365
 20
6.368309299491685
 11
1.8835582047509485
 21
6.2220740805345995
  0
LINE
  8
MountainLine
  6
CONTINUOUS
 62
5
 10
4.198912367379706
 20
4.801087632620299
 11
4.999999999999999
 21
4.000000000000009
  0
LINE
  8
CutLine
  6
CONTINUOUS
 62
250
 10
5.0
 20
4.663642724161382
 11
5.0
 21
4.9309777280984095
  0
LINE
  8
CutLine
  6
CONTINUOUS
 62
250
 10
5.0
 20
4.9309777280984095
 11
5.0
 21
5.171572875253808
  0
LINE
  8
ValleyLine
  6
CONTINUOUS
 62
1
 10
4.999999999999968
 20
4.930977728098426
 11
4.363468712768354
 21
5.2712107895048135
  0
LINE
  8
CutLine
  6
CONTINUOUS
 62
250
 10
5.0
 20
5.171572875253808
 11
5.0
 21
5.393306632785297
  0
LINE
  8
CutLine
  6
CONTINUOUS
 62
250
 10
5.0
 20
5.602175265240668
 11
5.0
 21
5.393306632785297
  0
LINE
  8
MountainLine
  6
CONTINUOUS
 62
5
 10
5.000000000000022
 20
5.1715728752537995
 11
4.561460754428515
 21
5.35322177840238
  0
LINE
  8
MountainLine
  6
CONTINUOUS
 62
5
 10
4.363468712768342
 20
5.271210789504808
 11
4.561460754428515
 21
5.3532217784023794
  0
LINE
  8
ValleyLine
  6
CONTINUOUS
 62
1
 10
5.000000000000022
 20
5.39330663278529
 11
4.479449765530897
 21
5.551213820062527
  0
LINE
  8
MountainLine
  6
CONTINUOUS
 62
5
 10
4.561460754428501
 20
5.353221778402413
 11
4.479449765530924
 21
5.551213820062545
  0
LINE
  8
CutLine
  6
CONTINUOUS
 62
250
 10
4.3245981132137405
 20
5.950327570754485
 11
4.497350786292045
 21
5.943849345514048
  0
LINE
  8
MountainLine
  6
CONTINUOUS
 62
5
 10
4.363468712768354
 20
5.271210789504813
 11
4.253259801481541
 21
5.330118679868628
  0
LINE
  8
ValleyLine
  6
CONTINUOUS
 62
1
 10
4.561460754428515
 20
5.353221778402381
 11
4.4352481848615986
 21
5.405500736458955
  0
LINE
  8
ValleyLine
  6
CONTINUOUS
 62
1
 10
4.253259801481557
 20
5.33011867986859
 11
4.435248184861599
 21
5.405500736458953
  0
LINE
  8
MountainLine
  6
CONTINUOUS
 62
5
 10
4.4352481848615986
 20
5.405500736458955
 11
4.177877744891195
 21
5.512107063248625
  0
LINE
  8
MountainLine
  6
CONTINUOUS
 62
5
 10
4.523651346200238
 20
5.696926903666094
 11
4.2504283444440665
 21
5.751274337767994
  0
LINE
  8
MountainLine
  6
CONTINUOUS
 62
5
 10
4.479449765530897
 20
5.551213820062527
 11
4.359866128271217
 21
5.5874891198389545
  0
LINE
  8
MountainLine
  6
CONTINUOUS
 62
5
 10
4.253259801481541
 20
5.330118679868628
 11
4.11896985452741
 21
5.40189815196185
  0
LINE
  8
ValleyLine
  6
CONTINUOUS
 62
1
 10
4.253259801481557
 20
5.33011867986859
 11
4.177877744891194
 21
5.512107063248626
  0
LINE
  8
ValleyLine
  6
CONTINUOUS
 62
1
 10
4.4352481848615986
 20
5.405500736458955
 11
4.359866128271247
 21
5.587489119838946
  0
LINE
  8
ValleyLine
  6
CONTINUOUS
 62
1
 10
4.523651346200238
 20
5.696926903666094
 11
4.359866128271216
 21
5.587489119838955
  0
LINE
  8
ValleyLine
  6
CONTINUOUS
 62
1
 10
4.1778777448911955
 20
5.512107063248625
 11
4.359866128271171
 21
5.587489119838969
  0
LINE
  8
ValleyLine
  6
CONTINUOUS
 62
1
 10
4.2504283444440665
 20
5.751274337767994
 11
4.359866128271217
 21
5.5874891198389545
  0
LINE
  8
ValleyLine
  6
CONTINUOUS
 62
1
 10
4.177877744891196
 20
5.512107063248624
 11
4.051665175324296
 21
5.564386021305192
  0
LINE
  8
MountainLine
  6
CONTINUOUS
 62
5
 10
4.359866128271216
 20
5.587489119838955
 11
4.214153044667649
 21
5.631690700508298
  0
LINE
  8
CutLine
  6
CONTINUOUS
 62
250
 10
1.6636427241613756
 20
3.9999999999999996
 11
1.9309777280984042
 21
3.999999999999999
  0
LINE
  8
CutLine
  6
CONTINUOUS
 62
250
 10
1.9309777280984042
 20
3.999999999999999
 11
2.171572875253804
 21
3.999999999999999
  0
LINE
  8
ValleyLine
  6
CONTINUOUS
 62
1
 10
1.9309777280984237
 20
4.000000000000036
 11
2.271210789504812
 21
4.636531287231649
  0
LINE
  8
CutLine
  6
CONTINUOUS
 62
250
 10
2.171572875253804
 20
3.999999999999999
 11
2.393306632785295
 21
3.999999999999999
  0
LINE
  8
CutLine
  6
CONTINUOUS
 62
250
 10
2.6021752652406662
 20
3.9999999999999996
 11
2.393306632785295
 21
3.999999999999999
  0
LINE
  8
MountainLine
  6
CONTINUOUS
 62
5
 10
2.171572875253797
 20
3.9999999999999822
 11
2.3532217784023794
 21
4.438539245571488
  0
LINE
  8
MountainLine
  6
CONTINUOUS
 62
5
 10
2.271210789504807
 20
4.636531287231661
 11
2.353221778402379
 21
4.438539245571487
  0
LINE
  8
ValleyLine
  6
CONTINUOUS
 62
1
 10
2.39330663278529
 20
3.9999999999999822
 11
2.551213820062527
 21
4.520550234469105
  0
LINE
  8
MountainLine
  6
CONTINUOUS
 62
5
 10
2.3532217784024123
 20
4.438539245571501
 11
2.551213820062544
 21
4.520550234469079
  0
LINE
  8
MountainLine
  6
CONTINUOUS
 62
5
 10
2.2712107895048117
 20
4.636531287231649
 11
2.3301186798686264
 21
4.746740198518463
  0
LINE
  8
ValleyLine
  6
CONTINUOUS
 62
1
 10
2.35322177840238
 20
4.438539245571488
 11
2.4055007364589542
 21
4.564751815138404
  0
LINE
  8
ValleyLine
  6
CONTINUOUS
 62
1
 10
2.330118679868588
 20
4.746740198518446
 11
2.4055007364589533
 21
4.564751815138404
  0
LINE
  8
MountainLine
  6
CONTINUOUS
 62
5
 10
2.4055007364589542
 20
4.564751815138404
 11
2.5121070632486244
 21
4.822122255108806
  0
LINE
  8
MountainLine
  6
CONTINUOUS
 62
5
 10
2.551213820062527
 20
4.520550234469105
 11
2.587489119838956
 21
4.6401338717287866
  0
LINE
  8
ValleyLine
  6
CONTINUOUS
 62
1
 10
2.330118679868588
 20
4.746740198518446
 11
2.512107063248626
 21
4.822122255108809
  0
LINE
  8
ValleyLine
  6
CONTINUOUS
 62
1
 10
2.4055007364589542
 20
4.564751815138404
 11
2.5874891198389456
 21
4.6401338717287555
  0
LINE
  8
ValleyLine
  6
CONTINUOUS
 62
1
 10
2.512107063248625
 20
4.822122255108806
 11
2.5874891198389687
 21
4.640133871728832
  0
LINE
  8
ValleyLine
  6
CONTINUOUS
 62
1
 10
2.5874891198389554
 20
4.640133871728787
 11
2.6969269036661077
 21
4.476348653799747
  0
LINE
  8
ValleyLine
  6
CONTINUOUS
 62
1
 10
2.587489119838955
 20
4.640133871728786
 11
2.7512743377680056
 21
4.749571655555944
  0
LINE
  8
MountainLine
  6
CONTINUOUS
 62
5
 10
2.696926903666089
 20
4.476348653799734
 11
2.7512743377679976
 21
4.749571655555956
  0
LINE
  8
CutLine
  6
CONTINUOUS
 62
250
 10
2.6021752652406662
 20
3.999999999999999
 11
2.803017193285669
 21
3.999999999999999
  0
LINE
  8
MountainLine
  6
CONTINUOUS
 62
5
 10
2.602175265240668
 20
4.00000000000001
 11
2.670275321968675
 21
4.342362104604714
  0
LINE
  8
MountainLine
  6
CONTINUOUS
 62
5
 10
2.5512138200625434
 20
4.52055023446908
 11
2.670275321968697
 21
4.342362104604729
  0
LINE
  8
ValleyLine
  6
CONTINUOUS
 62
1
 10
2.696926903666089
 20
4.476348653799734
 11
2.6702753219686746
 21
4.342362104604714
  0
LINE
  8
CutLine
  6
CONTINUOUS
 62
250
 10
2.803017193285669
 20
3.999999999999999
 11
3.000000000000002
 21
3.9999999999999982
  0
LINE
  8
ValleyLine
  6
CONTINUOUS
 62
1
 10
2.80301719328567
 20
4.00000000000001
 11
2.84846345183305
 21
4.461423606510879
  0
LINE
  8
MountainLine
  6
CONTINUOUS
 62
5
 10
2.670275321968697
 20
4.342362104604729
 11
2.848463451833047
 21
4.4614236065108805
  0
LINE
  8
CutLine
  6
CONTINUOUS
 62
250
 10
3.000000000000002
 20
3.9999999999999987
 11
3.196982806714335
 21
3.9999999999999982
  0
LINE
  8
MountainLine
  6
CONTINUOUS
 62
5
 10
3.000000000000002
 20
4.000000000000001
 11
3.0000000000000018
 21
4.309887058343918
  0
LINE
  8
CutLine
  6
CONTINUOUS
 62
250
 10
4.069022271901601
 20
3.9999999999999982
 11
3.8284271247462005
 21
3.9999999999999982
  0
LINE
  8
CutLine
  6
CONTINUOUS
 62
250
 10
3.196982806714335
 20
3.9999999999999982
 11
3.397824734759338
 21
3.9999999999999982
  0
LINE
  8
ValleyLine
  6
CONTINUOUS
 62
1
 10
3.1969828067143338
 20
4.000000000000011
 11
3.1515365481669533
 21
4.461423606510882
  0
LINE
  8
CutLine
  6
CONTINUOUS
 62
250
 10
3.8284271247462005
 20
3.9999999999999982
 11
3.6066933672147092
 21
3.9999999999999982
  0
LINE
  8
CutLine
  6
CONTINUOUS
 62
250
 10
3.397824734759338
 20
3.9999999999999982
 11
3.6066933672147092
 21
3.9999999999999982
  0
LINE
  8
MountainLine
  6
CONTINUOUS
 62
5
 10
3.8284271247462067
 20
3.9999999999999836
 11
3.6467782215976228
 21
4.43853924557149
  0
LINE
  8
MountainLine
  6
CONTINUOUS
 62
5
 10
3.397824734759336
 20
4.000000000000011
 11
3.329724678031321
 21
4.342362104604751
  0
LINE
  8
ValleyLine
  6
CONTINUOUS
 62
1
 10
3.606693367214714
 20
3.999999999999983
 11
3.448786179937476
 21
4.520550234469107
  0
LINE
  8
MountainLine
  6
CONTINUOUS
 62
5
 10
2.84846345183305
 20
4.461423606510879
 11
2.8607121215951343
 21
4.585786437626872
  0
LINE
  8
ValleyLine
  6
CONTINUOUS
 62
1
 10
2.696926903666089
 20
4.476348653799734
 11
2.8607121215951334
 21
4.585786437626873
  0
LINE
  8
ValleyLine
  6
CONTINUOUS
 62
1
 10
2.751274337767997
 20
4.749571655555956
 11
2.860712121595224
 21
4.5857864376267825
  0
LINE
  8
MountainLine
  6
CONTINUOUS
 62
5
 10
2.848463451833048
 20
4.4614236065108805
 11
3.0000000000000018
 21
4.309887058343917
  0
LINE
  8
MountainLine
  6
CONTINUOUS
 62
5
 10
3.0000000000000018
 20
4.309887058343918
 11
3.1515365481669533
 21
4.461423606510878
  0
LINE
  8
ValleyLine
  6
CONTINUOUS
 62
1
 10
2.860712121595115
 20
4.585786437626892
 11
3.0000000000000018
 21
4.725074316031779
  0
LINE
  8
ValleyLine
  6
CONTINUOUS
 62
1
 10
3.0000000000000018
 20
4.309887058343918
 11
3.0000000000000018
 21
4.446498559222006
  0
LINE
  8
ValleyLine
  6
CONTINUOUS
 62
1
 10
2.8607121215951326
 20
4.585786437626874
 11
3.0000000000000013
 21
4.446498559222006
  0
LINE
  8
MountainLine
  6
CONTINUOUS
 62
5
 10
3.0000000000000018
 20
4.725074316031779
 11
3.0000000000000018
 21
4.4464985592220065
  0
LINE
  8
MountainLine
  6
CONTINUOUS
 62
5
 10
2.330118679868626
 20
4.746740198518463
 11
2.4018981519618494
 21
4.881030145472591
  0
LINE
  8
ValleyLine
  6
CONTINUOUS
 62
1
 10
2.5121070632486253
 20
4.822122255108806
 11
2.564386021305193
 21
4.948334824675706
  0
LINE
  8
ValleyLine
  6
CONTINUOUS
 62
1
 10
2.751274337767997
 20
4.749571655555956
 11
2.777925919465406
 21
4.883558204750952
  0
LINE
  8
MountainLine
  6
CONTINUOUS
 62
5
 10
2.587489119838955
 20
4.6401338717287866
 11
2.6316907005082975
 21
4.785846955332353
  0
LINE
  8
MountainLine
  6
CONTINUOUS
 62
5
 10
2.8607121215951334
 20
4.585786437626872
 11
2.8756371688840003
 21
4.737322985793854
  0
LINE
  8
MountainLine
  6
CONTINUOUS
 62
5
 10
3.151536548166953
 20
4.461423606510882
 11
3.329724678031329
 21
4.342362104604715
  0
LINE
  8
MountainLine
  6
CONTINUOUS
 62
5
 10
3.6467782215976237
 20
4.43853924557149
 11
3.448786179937488
 21
4.520550234469067
  0
LINE
  8
MountainLine
  6
CONTINUOUS
 62
5
 10
3.3297246780313214
 20
4.342362104604751
 11
3.448786179937476
 21
4.520550234469107
  0
LINE
  8
MountainLine
  6
CONTINUOUS
 62
5
 10
3.151536548166953
 20
4.461423606510882
 11
3.1392878784048652
 21
4.585786437626912
  0
LINE
  8
ValleyLine
  6
CONTINUOUS
 62
1
 10
3.000000000000016
 20
4.7250743160317645
 11
3.139287878404865
 21
4.585786437626915
  0
LINE
  8
ValleyLine
  6
CONTINUOUS
 62
1
 10
3.0000000000000098
 20
4.4464985592220145
 11
3.1392878784048692
 21
4.585786437626872
  0
LINE
  8
ValleyLine
  6
CONTINUOUS
 62
1
 10
3.0000000000000013
 20
4.72507431603178
 11
3.0000000000000013
 21
4.861685816909856
  0
LINE
  8
ValleyLine
  6
CONTINUOUS
 62
1
 10
3.6467782215976237
 20
4.43853924557149
 11
3.5944992635410484
 21
4.564751815138406
  0
LINE
  8
ValleyLine
  6
CONTINUOUS
 62
1
 10
3.3297246780313214
 20
4.342362104604751
 11
3.3030730963339083
 21
4.476348653799765
  0
LINE
  8
ValleyLine
  6
CONTINUOUS
 62
1
 10
3.139287878404869
 20
4.585786437626874
 11
3.3030730963338963
 21
4.476348653799747
  0
LINE
  8
MountainLine
  6
CONTINUOUS
 62
5
 10
3.594499263541049
 20
4.564751815138406
 11
3.4878929367513782
 21
4.822122255108807
  0
LINE
  8
MountainLine
  6
CONTINUOUS
 62
5
 10
3.3030730963339083
 20
4.476348653799764
 11
3.248725662232009
 21
4.749571655555936
  0
LINE
  8
MountainLine
  6
CONTINUOUS
 62
5
 10
3.448786179937476
 20
4.520550234469106
 11
3.412510880161048
 21
4.640133871728787
  0
LINE
  8
ValleyLine
  6
CONTINUOUS
 62
1
 10
3.1392878784048652
 20
4.585786437626912
 11
3.248725662232005
 21
4.749571655555956
  0
LINE
  8
MountainLine
  6
CONTINUOUS
 62
5
 10
3.139287878404869
 20
4.585786437626876
 11
3.1243628311160023
 21
4.737322985793853
  0
LINE
  8
ValleyLine
  6
CONTINUOUS
 62
1
 10
3.594499263541049
 20
4.564751815138406
 11
3.4125108801610566
 21
4.640133871728757
  0
LINE
  8
ValleyLine
  6
CONTINUOUS
 62
1
 10
3.3030730963339083
 20
4.476348653799765
 11
3.4125108801610478
 21
4.640133871728787
  0
LINE
  8
ValleyLine
  6
CONTINUOUS
 62
1
 10
3.4878929367513782
 20
4.822122255108807
 11
3.412510880161034
 21
4.640133871728832
  0
LINE
  8
ValleyLine
  6
CONTINUOUS
 62
1
 10
3.248725662232009
 20
4.749571655555936
 11
3.4125108801610478
 21
4.640133871728787
  0
LINE
  8
ValleyLine
  6
CONTINUOUS
 62
1
 10
3.4878929367513782
 20
4.822122255108807
 11
3.4356139786948097
 21
4.948334824675706
  0
LINE
  8
ValleyLine
  6
CONTINUOUS
 62
1
 10
3.248725662232009
 20
4.749571655555937
 11
3.222074080534596
 21
4.883558204750953
  0
LINE
  8
MountainLine
  6
CONTINUOUS
 62
5
 10
3.4125108801610478
 20
4.640133871728787
 11
3.368309299491705
 21
4.785846955332354
  0
LINE
  8
MountainLine
  6
CONTINUOUS
 62
5
 10
4.11896985452741
 20
5.401898151961851
 11
4.051665175324293
 21
5.564386021305194
  0
LINE
  8
MountainLine
  6
CONTINUOUS
 62
5
 10
4.051665175324295
 20
5.564386021305192
 11
4.214153044667617
 21
5.631690700508308
  0
LINE
  8
MountainLine
  6
CONTINUOUS
 62
5
 10
2.4018981519618494
 20
4.881030145472591
 11
2.564386021305194
 21
4.94833482467571
  0
LINE
  8
MountainLine
  6
CONTINUOUS
 62
5
 10
2.8756371688840003
 20
4.737322985793853
 11
2.7779259194654093
 21
4.883558204750965
  0
LINE
  8
MountainLine
  6
CONTINUOUS
 62
5
 10
2.5643860213051926
 20
4.948334824675706
 11
2.6316907005083072
 21
4.785846955332385
  0
LINE
  8
MountainLine
  6
CONTINUOUS
 62
5
 10
2.7779259194654067
 20
4.883558204750953
 11
2.6316907005082975
 21
4.785846955332353
  0
LINE
  8
MountainLine
  6
CONTINUOUS
 62
5
 10
2.8756371688840003
 20
4.737322985793854
 11
3.0000000000000013
 21
4.861685816909856
  0
LINE
  8
MountainLine
  6
CONTINUOUS
 62
5
 10
3.0000000000000013
 20
4.861685816909856
 11
3.1243628311160014
 21
4.737322985793855
  0
LINE
  8
MountainLine
  6
CONTINUOUS
 62
5
 10
3.598101848038152
 20
4.881030145472594
 11
3.435613978694809
 21
4.948334824675712
  0
LINE
  8
MountainLine
  6
CONTINUOUS
 62
5
 10
3.124362831116002
 20
4.737322985793852
 11
3.2220740805345933
 21
4.883558204750967
  0
LINE
  8
MountainLine
  6
CONTINUOUS
 62
5
 10
3.4356139786948106
 20
4.948334824675707
 11
3.368309299491695
 21
4.785846955332387
  0
LINE
  8
MountainLine
  6
CONTINUOUS
 62
5
 10
3.222074080534596
 20
4.883558204750953
 11
3.368309299491705
 21
4.785846955332353
  0
LINE
  8
CutLine
  6
CONTINUOUS
 62
250
 10
4.069022271901601
 20
3.9999999999999982
 11
4.3363572758386315
 21
3.9999999999999973
  0
LINE
  8
ValleyLine
  6
CONTINUOUS
 62
1
 10
4.06902227190158
 20
4.000000000000038
 11
3.7287892104951834
 21
4.636531287231665
  0
LINE
  8
MountainLine
  6
CONTINUOUS
 62
5
 10
3.646778221597624
 20
4.438539245571488
 11
3.728789210495196
 21
4.636531287231662
  0
LINE
  8
ValleyLine
  6
CONTINUOUS
 62
1
 10
3.5944992635410506
 20
4.564751815138405
 11
3.6698813201313563
 21
4.746740198518305
  0
LINE
  8
ValleyLine
  6
CONTINUOUS
 62
1
 10
3.4878929367513773
 20
4.82212225510881
 11
3.669881320131387
 21
4.7467401985184585
  0
LINE
  8
MountainLine
  6
CONTINUOUS
 62
5
 10
3.5981018480381564
 20
4.881030145472587
 11
3.6698813201313847
 21
4.746740198518448
  0
LINE
  8
MountainLine
  6
CONTINUOUS
 62
5
 10
3.728789210495183
 20
4.636531287231666
 11
3.6698813201313847
 21
4.746740198518449
  0
LINE
  8
CutLine
  6
CONTINUOUS
 62
250
 10
4.171572875253858
 20
6.0
 11
4.393306632785368
 21
6.0
  0
LINE
  8
CutLine
  6
CONTINUOUS
 62
250
 10
4.602175265240747
 20
6.0
 11
4.393306632785368
 21
6.0
  0
LINE
  8
MountainLine
  6
CONTINUOUS
 62
5
 10
5.863079157449349
 20
6.708310759324965
 11
5.70831075932494
 21
6.939938035836438
  0
LINE
  8
ValleyLine
  6
CONTINUOUS
 62
1
 10
5.70831075932494
 20
6.9399380358364375
 11
5.632413475948953
 21
7.053526347507583
  0
LINE
  8
MountainLine
  6
CONTINUOUS
 62
5
 10
5.669881320131407
 20
6.746740198518486
 11
5.598101848038189
 21
6.881030145472595
  0
LINE
  8
MountainLine
  6
CONTINUOUS
 62
5
 10
5.632413475948959
 20
7.053526347507615
 11
5.598101848038195
 21
6.881030145472627
  0
LINE
  8
CutLine
  6
CONTINUOUS
 62
250
 10
6.641357581657495
 20
6.000000000000002
 11
6.336357275838734
 21
6.000000000000002
  0
LINE
  8
CutLine
  6
CONTINUOUS
 62
250
 10
6.336357275838734
 20
6.000000000000002
 11
6.069022271901674
 21
6.000000000000002
  0
LINE
  8
ValleyLine
  6
CONTINUOUS
 62
1
 10
5.70831075932494
 20
6.939938035836438
 11
5.669881320131407
 21
6.746740198518486
  0
LINE
  8
ValleyLine
  6
CONTINUOUS
 62
1
 10
5.863079157449349
 20
6.708310759324965
 11
5.669881320131402
 21
6.746740198518495
  0
LINE
  8
MountainLine
  6
CONTINUOUS
 62
5
 10
6.336357275838688
 20
6.000000000000069
 11
5.938976440825335
 21
6.594722447653819
  0
LINE
  8
ValleyLine
  6
CONTINUOUS
 62
1
 10
5.863079157449349
 20
6.708310759324965
 11
5.938976440825335
 21
6.594722447653819
  0
LINE
  8
CutLine
  6
CONTINUOUS
 62
250
 10
6.069022271901674
 20
6.000000000000002
 11
5.828427124746288
 21
6.000000000000002
  0
LINE
  8
ValleyLine
  6
CONTINUOUS
 62
1
 10
6.0690222719016464
 20
6.0000000000000515
 11
5.72878921049521
 21
6.636531287231705
  0
LINE
  8
MountainLine
  6
CONTINUOUS
 62
5
 10
5.669881320131407
 20
6.746740198518486
 11
5.728789210495209
 21
6.636531287231705
  0
LINE
  8
MountainLine
  6
CONTINUOUS
 62
5
 10
5.938976440825375
 20
6.594722447653812
 11
5.7287892104952185
 21
6.636531287231728
  0
LINE
  8
ValleyLine
  6
CONTINUOUS
 62
1
 10
5.669881320131409
 20
6.7467401985184825
 11
5.5944992635410635
 21
6.564751815138479
  0
LINE
  8
ValleyLine
  6
CONTINUOUS
 62
1
 10
5.669881320131396
 20
6.746740198518506
 11
5.487892936751402
 21
6.8221222551088445
  0
LINE
  8
MountainLine
  6
CONTINUOUS
 62
5
 10
5.594499263541086
 20
6.564751815138469
 11
5.4878929367514075
 21
6.822122255108859
  0
LINE
  8
MountainLine
  6
CONTINUOUS
 62
5
 10
5.303073096333934
 20
6.476348653799821
 11
5.248725662232037
 21
6.749571655555956
  0
LINE
  8
ValleyLine
  6
CONTINUOUS
 62
1
 10
4.8607121215951645
 20
6.5857864376269255
 11
5.00000000000005
 21
6.446498559222049
  0
LINE
  8
ValleyLine
  6
CONTINUOUS
 62
1
 10
4.8607121215951645
 20
6.5857864376269255
 11
5.000000000000042
 21
6.725074316031811
  0
LINE
  8
MountainLine
  6
CONTINUOUS
 62
5
 10
5.0000000000000515
 20
6.44649855922205
 11
5.000000000000042
 21
6.725074316031811
  0
LINE
  8
MountainLine
  6
CONTINUOUS
 62
5
 10
5.598101848038193
 20
6.88103014547262
 11
5.435613978694822
 21
6.948334824675751
  0
LINE
  8
ValleyLine
  6
CONTINUOUS
 62
1
 10
5.487892936751408
 20
6.822122255108859
 11
5.43561397869483
 21
6.94833482467577
  0
LINE
  8
MountainLine
  6
CONTINUOUS
 62
5
 10
5.435613978694822
 20
6.948334824675751
 11
5.368309299491717
 21
6.785846955332412
  0
LINE
  8
MountainLine
  6
CONTINUOUS
 62
5
 10
5.412510880161061
 20
6.640133871728877
 11
5.368309299491725
 21
6.785846955332406
  0
LINE
  8
ValleyLine
  6
CONTINUOUS
 62
1
 10
5.2487256622320375
 20
6.749571655555956
 11
5.222074080534622
 21
6.883558204750971
  0
LINE
  8
MountainLine
  6
CONTINUOUS
 62
5
 10
5.368309299491709
 20
6.785846955332417
 11
5.22207408053464
 21
6.883558204750999
  0
LINE
  8
MountainLine
  6
CONTINUOUS
 62
5
 10
4.875637168884041
 20
6.737322985793856
 11
5.000000000000038
 21
6.861685816909869
  0
LINE
  8
ValleyLine
  6
CONTINUOUS
 62
1
 10
5.000000000000042
 20
6.725074316031811
 11
5.000000000000037
 21
6.861685816909869
  0
LINE
  8
MountainLine
  6
CONTINUOUS
 62
5
 10
5.139287878404913
 20
6.585786437626949
 11
5.1243628311160485
 21
6.737322985793858
  0
LINE
  8
MountainLine
  6
CONTINUOUS
 62
5
 10
5.22207408053464
 20
6.883558204750999
 11
5.124362831116047
 21
6.73732298579386
  0
LINE
  8
MountainLine
  6
CONTINUOUS
 62
5
 10
5.000000000000024
 20
6.861685816909883
 11
5.124362831116041
 21
6.737322985793865
  0
LINE
  8
CutLine
  6
CONTINUOUS
 62
250
 10
5.000000000000067
 20
6.000000000000001
 11
5.196982806714401
 21
6.000000000000001
  0
LINE
  8
ValleyLine
  6
CONTINUOUS
 62
1
 10
5.000000000000052
 20
6.446498559222052
 11
5.139287878404915
 21
6.585786437626922
  0
LINE
  8
ValleyLine
  6
CONTINUOUS
 62
1
 10
5.0000000000000515
 20
6.725074316031801
 11
5.139287878404913
 21
6.585786437626949
  0
LINE
  8
ValleyLine
  6
CONTINUOUS
 62
1
 10
5.248725662232037
 20
6.749571655555956
 11
5.1392878784049145
 21
6.585786437626928
  0
LINE
  8
MountainLine
  6
CONTINUOUS
 62
5
 10
5.000000000000067
 20
5.999999999999999
 11
5.000000000000056
 21
6.309887058343991
  0
LINE
  8
MountainLine
  6
CONTINUOUS
 62
5
 10
4.848463451833094
 20
6.461423606510916
 11
5.000000000000053
 21
6.309887058343989
  0
LINE
  8
ValleyLine
  6
CONTINUOUS
 62
1
 10
5.0000000000000515
 20
6.44649855922205
 11
5.000000000000056
 21
6.309887058343991
  0
LINE
  8
CutLine
  6
CONTINUOUS
 62
250
 10
5.828427124746288
 20
6.000000000000002
 11
5.606693367214769
 21
6.000000000000002
  0
LINE
  8
MountainLine
  6
CONTINUOUS
 62
5
 10
5.828427124746274
 20
6.000000000000036
 11
5.646778221597646
 21
6.438539245571602
  0
LINE
  8
MountainLine
  6
CONTINUOUS
 62
5
 10
5.7287892104952185
 20
6.636531287231728
 11
5.646778221597646
 21
6.438539245571602
  0
LINE
  8
ValleyLine
  6
CONTINUOUS
 62
1
 10
5.594499263541086
 20
6.564751815138469
 11
5.646778221597646
 21
6.438539245571601
  0
LINE
  8
ValleyLine
  6
CONTINUOUS
 62
1
 10
5.5944992635410635
 20
6.564751815138479
 11
5.412510880161079
 21
6.640133871728814
  0
LINE
  8
ValleyLine
  6
CONTINUOUS
 62
1
 10
5.487892936751402
 20
6.8221222551088445
 11
5.412510880161065
 21
6.64013387172886
  0
LINE
  8
ValleyLine
  6
CONTINUOUS
 62
1
 10
5.248725662232029
 20
6.749571655556
 11
5.41251088016106
 21
6.640133871728877
  0
LINE
  8
CutLine
  6
CONTINUOUS
 62
250
 10
5.196982806714401
 20
6.000000000000001
 11
5.397824734759383
 21
6.0
  0
LINE
  8
CutLine
  6
CONTINUOUS
 62
250
 10
5.606693367214769
 20
6.000000000000002
 11
5.397824734759383
 21
6.000000000000002
  0
LINE
  8
ValleyLine
  6
CONTINUOUS
 62
1
 10
5.1392878784049145
 20
6.585786437626936
 11
5.303073096333934
 21
6.476348653799821
  0
LINE
  8
ValleyLine
  6
CONTINUOUS
 62
1
 10
5.412510880161083
 20
6.640133871728803
 11
5.3030730963339465
 21
6.4763486537997546
  0
LINE
  8
ValleyLine
  6
CONTINUOUS
 62
1
 10
5.196982806714402
 20
5.999999999999995
 11
5.1515365481670035
 21
6.461423606510928
  0
LINE
  8
MountainLine
  6
CONTINUOUS
 62
5
 10
5.139287878404913
 20
6.585786437626949
 11
5.1515365481670035
 21
6.461423606510928
  0
LINE
  8
MountainLine
  6
CONTINUOUS
 62
5
 10
5.000000000000038
 20
6.309887058343974
 11
5.151536548167004
 21
6.461423606510927
  0
LINE
  8
ValleyLine
  6
CONTINUOUS
 62
1
 10
5.6066933672147545
 20
6.00000000000005
 11
5.448786179937514
 21
6.520550234469128
  0
LINE
  8
MountainLine
  6
CONTINUOUS
 62
5
 10
5.64677822159767
 20
6.438539245571592
 11
5.448786179937519
 21
6.520550234469136
  0
LINE
  8
MountainLine
  6
CONTINUOUS
 62
5
 10
5.41251088016106
 20
6.640133871728877
 11
5.448786179937514
 21
6.520550234469128
  0
LINE
  8
MountainLine
  6
CONTINUOUS
 62
5
 10
5.397824734759377
 20
6.0000000000000355
 11
5.329724678031355
 21
6.342362104604778
  0
LINE
  8
ValleyLine
  6
CONTINUOUS
 62
1
 10
5.303073096333934
 20
6.476348653799821
 11
5.329724678031355
 21
6.342362104604778
  0
LINE
  8
MountainLine
  6
CONTINUOUS
 62
5
 10
5.151536548167004
 20
6.461423606510927
 11
5.32972467803137
 21
6.3423621046048
  0
LINE
  8
MountainLine
  6
CONTINUOUS
 62
5
 10
5.448786179937526
 20
6.520550234469146
 11
5.329724678031356
 21
6.342362104604779
  0
LINE
  8
ValleyLine
  6
CONTINUOUS
 62
1
 10
6.641357581657401
 20
6.000000000000116
 11
5.980785280403287
 21
6.804909677983931
  0
LINE
  8
MountainLine
  6
CONTINUOUS
 62
5
 10
5.938976440825337
 20
6.594722447653819
 11
5.980785280403281
 21
6.804909677983931
  0
LINE
  8
MountainLine
  6
CONTINUOUS
 62
5
 10
5.632413475948954
 20
7.053526347507586
 11
5.804909677983917
 21
7.019214719596814
  0
LINE
  8
ValleyLine
  6
CONTINUOUS
 62
1
 10
5.708310759324939
 20
6.93993803583644
 11
5.901508596642879
 21
6.901508596642907
  0
LINE
  8
ValleyLine
  6
CONTINUOUS
 62
1
 10
5.86307915744935
 20
6.708310759324961
 11
5.901508596642879
 21
6.901508596642875
  0
LINE
  8
MountainLine
  6
CONTINUOUS
 62
5
 10
5.980785280403287
 20
6.804909677983931
 11
5.901508596642879
 21
6.901508596642901
  0
LINE
  8
MountainLine
  6
CONTINUOUS
 62
5
 10
5.804909677983917
 20
7.01921471959682
 11
5.901508596642879
 21
6.901508596642901
  0
LINE
  8
CutLine
  6
CONTINUOUS
 62
250
 10
6.641357581657495
 20
6.000000000000002
 11
7.000000000000254
 21
6.000000000000002
  0
LINE
  8
CutLine
  6
CONTINUOUS
 62
250
 10
7.0
 20
6.663642724161649
 11
7.0
 21
6.930977728098666
  0
LINE
  8
MountainLine
  6
CONTINUOUS
 62
5
 10
6.2532598014815886
 20
7.33011867986877
 11
6.118969854527455
 21
7.401898151961978
  0
LINE
  8
MountainLine
  6
CONTINUOUS
 62
5
 10
6.118969854527455
 20
7.401898151961978
 11
6.051665175324321
 21
7.564386021305298
  0
LINE
  8
MountainLine
  6
CONTINUOUS
 62
5
 10
6.051665175324294
 20
7.564386021305309
 11
6.214153044667643
 21
7.631690700508443
  0
LINE
  8
MountainLine
  6
CONTINUOUS
 62
5
 10
6.214153044667639
 20
7.631690700508452
 11
6.116441795249037
 21
7.777925919465506
  0
LINE
  8
MountainLine
  6
CONTINUOUS
 62
5
 10
6.116441795249038
 20
7.777925919465506
 11
6.262677014206165
 21
7.8756371688841185
  0
LINE
  8
CutLine
  6
CONTINUOUS
 62
250
 10
7.0
 20
6.930977728098666
 11
7.0
 21
7.171572875254021
  0
LINE
  8
ValleyLine
  6
CONTINUOUS
 62
1
 10
7.000000000000096
 20
6.930977728098615
 11
6.363468712768398
 21
7.271210789504971
  0
LINE
  8
MountainLine
  6
CONTINUOUS
 62
5
 10
6.2532598014815886
 20
7.33011867986877
 11
6.363468712768398
 21
7.271210789504971
  0
LINE
  8
ValleyLine
  6
CONTINUOUS
 62
1
 10
6.2532598014815965
 20
7.33011867986875
 11
6.435248184861607
 21
7.405500736459125
  0
LINE
  8
ValleyLine
  6
CONTINUOUS
 62
1
 10
6.2532598014815886
 20
7.33011867986877
 11
6.177877744891226
 21
7.512107063248753
  0
LINE
  8
ValleyLine
  6
CONTINUOUS
 62
1
 10
6.0516651753242945
 20
7.564386021305309
 11
6.177877744891212
 21
7.512107063248748
  0
LINE
  8
MountainLine
  6
CONTINUOUS
 62
5
 10
6.435248184861617
 20
7.405500736459102
 11
6.177877744891212
 21
7.512107063248747
  0
LINE
  8
ValleyLine
  6
CONTINUOUS
 62
1
 10
6.116441795249067
 20
7.777925919465526
 11
6.250428344444041
 21
7.751274337768136
  0
LINE
  8
MountainLine
  6
CONTINUOUS
 62
5
 10
6.262677014206167
 20
7.875637168884117
 11
6.4142135623730905
 21
7.86071212159527
  0
LINE
  8
MountainLine
  6
CONTINUOUS
 62
5
 10
6.21415304466765
 20
7.631690700508436
 11
6.359866128271259
 21
7.587489119839096
  0
LINE
  8
MountainLine
  6
CONTINUOUS
 62
5
 10
6.250428344444041
 20
7.751274337768136
 11
6.523651346200294
 21
7.6969269036662515
  0
LINE
  8
CutLine
  6
CONTINUOUS
 62
250
 10
7.0
 20
8.000000000000192
 11
7.0
 21
7.803017193285861
  0
LINE
  8
ValleyLine
  6
CONTINUOUS
 62
1
 10
6.2504283444440585
 20
7.751274337768109
 11
6.414213562373099
 21
7.860712121595269
  0
LINE
  8
CutLine
  6
CONTINUOUS
 62
250
 10
7.0
 20
7.171572875254021
 11
7.0
 21
7.393306632785517
  0
LINE
  8
MountainLine
  6
CONTINUOUS
 62
5
 10
7.000000000000082
 20
7.171572875253987
 11
6.5614607544284915
 21
7.353221778402559
  0
LINE
  8
MountainLine
  6
CONTINUOUS
 62
5
 10
6.363468712768374
 20
7.271210789504961
 11
6.5614607544284915
 21
7.353221778402559
  0
LINE
  8
ValleyLine
  6
CONTINUOUS
 62
1
 10
6.435248184861617
 20
7.405500736459103
 11
6.5614607544284915
 21
7.353221778402559
  0
LINE
  8
ValleyLine
  6
CONTINUOUS
 62
1
 10
6.435248184861607
 20
7.405500736459125
 11
6.359866128271248
 21
7.587489119839099
  0
LINE
  8
ValleyLine
  6
CONTINUOUS
 62
1
 10
6.177877744891226
 20
7.512107063248753
 11
6.359866128271201
 21
7.5874891198391134
  0
LINE
  8
ValleyLine
  6
CONTINUOUS
 62
1
 10
6.250428344444041
 20
7.751274337768136
 11
6.359866128271185
 21
7.587489119839118
  0
LINE
  8
CutLine
  6
CONTINUOUS
 62
250
 10
7.0
 20
7.803017193285861
 11
7.0
 21
7.602175265240889
  0
LINE
  8
CutLine
  6
CONTINUOUS
 62
250
 10
7.0
 20
7.393306632785517
 11
7.0
 21
7.602175265240889
  0
LINE
  8
ValleyLine
  6
CONTINUOUS
 62
1
 10
6.4142135623730905
 20
7.86071212159527
 11
6.523651346200229
 21
7.696926903666265
  0
LINE
  8
ValleyLine
  6
CONTINUOUS
 62
1
 10
6.359866128271259
 20
7.587489119839096
 11
6.523651346200294
 21
7.6969269036662515
  0
LINE
  8
ValleyLine
  6
CONTINUOUS
 62
1
 10
7.000000000000043
 20
7.803017193285857
 11
6.538576393489102
 21
7.848463451833197
  0
LINE
  8
MountainLine
  6
CONTINUOUS
 62
5
 10
6.414213562373079
 20
7.860712121595271
 11
6.538576393489102
 21
7.848463451833197
  0
LINE
  8
ValleyLine
  6
CONTINUOUS
 62
1
 10
7.000000000000041
 20
7.393306632785506
 11
6.479449765530939
 21
7.55121382006268
  0
LINE
  8
MountainLine
  6
CONTINUOUS
 62
5
 10
6.5614607544285
 20
7.353221778402535
 11
6.479449765530932
 21
7.551213820062674
  0
LINE
  8
MountainLine
  6
CONTINUOUS
 62
5
 10
6.359866128271185
 20
7.587489119839118
 11
6.479449765530939
 21
7.55121382006268
  0
LINE
  8
MountainLine
  6
CONTINUOUS
 62
5
 10
7.000000000000028
 20
7.6021752652408825
 11
6.6576378953952755
 21
7.670275321968861
  0
LINE
  8
ValleyLine
  6
CONTINUOUS
 62
1
 10
6.523651346200228
 20
7.696926903666265
 11
6.6576378953952755
 21
7.670275321968861
  0
LINE
  8
MountainLine
  6
CONTINUOUS
 62
5
 10
6.5385763934891035
 20
7.8484634518331955
 11
6.657637895395252
 21
7.670275321968846
  0
LINE
  8
MountainLine
  6
CONTINUOUS
 62
5
 10
6.479449765530921
 20
7.551213820062668
 11
6.657637895395274
 21
7.670275321968861
  0
LINE
  8
CutLine
  6
CONTINUOUS
 62
250
 10
7.0
 20
6.000000000000256
 11
7.0
 21
6.358642418342949
  0
LINE
  8
CutLine
  6
CONTINUOUS
 62
250
 10
7.0
 20
6.663642724161649
 11
7.0
 21
6.358642418342949
  0
LINE
  8
MountainLine
  6
CONTINUOUS
 62
5
 10
7.000000000000112
 20
6.6636427241615745
 11
6.405277552346313
 21
7.061023559174849
  0
LINE
  8
MountainLine
  6
CONTINUOUS
 62
5
 10
6.363468712768374
 20
7.271210789504961
 11
6.405277552346311
 21
7.061023559174849
  0
LINE
  8
MountainLine
  6
CONTINUOUS
 62
5
 10
6.11896985452749
 20
7.4018981519619595
 11
5.946473652492502
 21
7.367586524051173
  0
LINE
  8
ValleyLine
  6
CONTINUOUS
 62
1
 10
6.253259801481594
 20
7.3301186798687565
 11
6.060061964163658
 21
7.291689240675201
  0
LINE
  8
ValleyLine
  6
CONTINUOUS
 62
1
 10
5.946473652492502
 20
7.367586524051175
 11
6.060061964163658
 21
7.291689240675202
  0
LINE
  8
ValleyLine
  6
CONTINUOUS
 62
1
 10
6.253259801481606
 20
7.330118679868727
 11
6.291689240675155
 21
7.13692084255082
  0
LINE
  8
ValleyLine
  6
CONTINUOUS
 62
1
 10
6.405277552346313
 20
7.061023559174849
 11
6.291689240675158
 21
7.136920842550821
  0
LINE
  8
MountainLine
  6
CONTINUOUS
 62
5
 10
6.060061964163658
 20
7.291689240675203
 11
6.291689240675158
 21
7.136920842550821
  0
LINE
  8
ValleyLine
  6
CONTINUOUS
 62
1
 10
5.901508596642879
 20
6.901508596642901
 11
6.098491403357233
 21
6.901508596642914
  0
LINE
  8
MountainLine
  6
CONTINUOUS
 62
5
 10
5.804909677983917
 20
7.019214719596814
 11
5.8049096779839005
 21
7.195090322016208
  0
LINE
  8
MountainLine
  6
CONTINUOUS
 62
5
 10
5.946473652492502
 20
7.367586524051173
 11
5.980785280403297
 21
7.195090322016215
  0
LINE
  8
MountainLine
  6
CONTINUOUS
 62
5
 10
5.804909677983901
 20
7.195090322016208
 11
5.980785280403297
 21
7.195090322016215
  0
LINE
  8
ValleyLine
  6
CONTINUOUS
 62
1
 10
5.901508596642879
 20
6.901508596642907
 11
5.901508596642868
 21
7.098491403357254
  0
LINE
  8
MountainLine
  6
CONTINUOUS
 62
5
 10
6.098491403357233
 20
6.901508596642912
 11
5.90150859664286
 21
7.098491403357254
  0
LINE
  8
ValleyLine
  6
CONTINUOUS
 62
1
 10
6.060061964163658
 20
7.291689240675203
 11
6.098491403357215
 21
7.098491403357269
  0
LINE
  8
ValleyLine
  6
CONTINUOUS
 62
1
 10
6.291689240675158
 20
7.136920842550821
 11
6.098491403357249
 21
7.098491403357269
  0
LINE
  8
ValleyLine
  6
CONTINUOUS
 62
1
 10
6.098491403357234
 20
6.901508596642916
 11
6.098491403357222
 21
7.098491403357269
  0
LINE
  8
ValleyLine
  6
CONTINUOUS
 62
1
 10
5.8049096779839005
 20
7.195090322016208
 11
5.90150859664286
 21
7.098491403357254
  0
LINE
  8
MountainLine
  6
CONTINUOUS
 62
5
 10
5.98078528040329
 20
7.195090322016215
 11
6.0984914033572215
 21
7.098491403357269
  0
LINE
  8
ValleyLine
  6
CONTINUOUS
 62
1
 10
5.901508596642876
 20
7.098491403357254
 11
6.098491403357215
 21
7.098491403357269
  0
LINE
  8
MountainLine
  6
CONTINUOUS
 62
5
 10
5.980785280403281
 20
6.804909677983931
 11
6.195090322016201
 21
6.80490967798396
  0
LINE
  8
MountainLine
  6
CONTINUOUS
 62
5
 10
7.0000000000001075
 20
6.000000000000149
 11
6.195090322016201
 21
6.804909677983957
  0
LINE
  8
ValleyLine
  6
CONTINUOUS
 62
1
 10
7.000000000000103
 20
6.358642418342864
 11
6.195090322016203
 21
7.019214719596872
  0
LINE
  8
MountainLine
  6
CONTINUOUS
 62
5
 10
6.40527755234631
 20
7.061023559174849
 11
6.195090322016203
 21
7.01921471959688
  0
LINE
  8
ValleyLine
  6
CONTINUOUS
 62
1
 10
6.098491403357233
 20
6.901508596642912
 11
6.195090322016201
 21
6.804909677983957
  0
LINE
  8
MountainLine
  6
CONTINUOUS
 62
5
 10
6.098491403357222
 20
7.098491403357269
 11
6.195090322016203
 21
7.019214719596873
  0
LINE
  8
MountainLine
  6
CONTINUOUS
 62
5
 10
6.195090322016203
 20
7.01921471959688
 11
6.195090322016201
 21
6.804909677983964
  0
LINE
  8
CutLine
  6
CONTINUOUS
 62
250
 10
6.336357275838186
 20
10.0
 11
6.069022271901189
 21
10.0
  0
LINE
  8
MountainLine
  6
CONTINUOUS
 62
5
 10
5.669881320131162
 20
9.253259801481622
 11
5.598101848037961
 21
9.118969854527485
  0
LINE
  8
CutLine
  6
CONTINUOUS
 62
250
 10
6.069022271901189
 20
10.0
 11
5.828427124745849
 21
10.0
  0
LINE
  8
ValleyLine
  6
CONTINUOUS
 62
1
 10
6.069022271901273
 20
10.000000000000156
 11
5.728789210494955
 21
9.363468712768437
  0
LINE
  8
MountainLine
  6
CONTINUOUS
 62
5
 10
5.669881320131162
 20
9.253259801481622
 11
5.728789210494954
 21
9.363468712768437
  0
LINE
  8
ValleyLine
  6
CONTINUOUS
 62
1
 10
5.669881320131181
 20
9.253259801481631
 11
5.594499263540795
 21
9.435248184861637
  0
LINE
  8
ValleyLine
  6
CONTINUOUS
 62
1
 10
5.669881320131162
 20
9.253259801481622
 11
5.487892936751182
 21
9.177877744891248
  0
LINE
  8
ValleyLine
  6
CONTINUOUS
 62
1
 10
5.435613978694634
 20
9.051665175324313
 11
5.487892936751187
 21
9.177877744891234
  0
LINE
  8
MountainLine
  6
CONTINUOUS
 62
5
 10
5.5944992635408175
 20
9.435248184861646
 11
5.487892936751187
 21
9.177877744891234
  0
LINE
  8
ValleyLine
  6
CONTINUOUS
 62
1
 10
5.222074080534413
 20
9.116441795249068
 11
5.248725662231795
 21
9.250428344444046
  0
LINE
  8
MountainLine
  6
CONTINUOUS
 62
5
 10
5.124362831115813
 20
9.262677014206165
 11
5.139287878404649
 21
9.414213562373089
  0
LINE
  8
MountainLine
  6
CONTINUOUS
 62
5
 10
5.368309299491497
 20
9.214153044667663
 11
5.412510880160829
 21
9.359866128271275
  0
LINE
  8
MountainLine
  6
CONTINUOUS
 62
5
 10
5.248725662231795
 20
9.250428344444046
 11
5.303073096333662
 21
9.523651346200301
  0
LINE
  8
CutLine
  6
CONTINUOUS
 62
250
 10
4.999999999999693
 20
10.0
 11
5.196982806714025
 21
10.0
  0
LINE
  8
ValleyLine
  6
CONTINUOUS
 62
1
 10
5.248725662231822
 20
9.250428344444064
 11
5.139287878404651
 21
9.414213562373096
  0
LINE
  8
CutLine
  6
CONTINUOUS
 62
250
 10
5.828427124745849
 20
10.0
 11
5.60669336721436
 21
10.0
  0
LINE
  8
MountainLine
  6
CONTINUOUS
 62
5
 10
5.8284271247459
 20
10.000000000000124
 11
5.646778221597354
 21
9.561460754428524
  0
LINE
  8
MountainLine
  6
CONTINUOUS
 62
5
 10
5.7287892104949645
 20
9.363468712768414
 11
5.646778221597354
 21
9.561460754428524
  0
LINE
  8
ValleyLine
  6
CONTINUOUS
 62
1
 10
5.5944992635408175
 20
9.435248184861646
 11
5.646778221597355
 21
9.561460754428524
  0
LINE
  8
ValleyLine
  6
CONTINUOUS
 62
1
 10
5.594499263540795
 20
9.435248184861637
 11
5.412510880160825
 21
9.359866128271266
  0
LINE
  8
ValleyLine
  6
CONTINUOUS
 62
1
 10
5.487892936751182
 20
9.177877744891248
 11
5.412510880160811
 21
9.359866128271216
  0
LINE
  8
ValleyLine
  6
CONTINUOUS
 62
1
 10
5.248725662231795
 20
9.250428344444046
 11
5.412510880160806
 21
9.359866128271202
  0
LINE
  8
CutLine
  6
CONTINUOUS
 62
250
 10
5.196982806714025
 20
10.0
 11
5.397824734758995
 21
10.0
  0
LINE
  8
CutLine
  6
CONTINUOUS
 62
250
 10
5.60669336721436
 20
10.0
 11
5.397824734758995
 21
10.0
  0
LINE
  8
ValleyLine
  6
CONTINUOUS
 62
1
 10
5.13928787840465
 20
9.414213562373089
 11
5.303073096333649
 21
9.523651346200236
  0
LINE
  8
ValleyLine
  6
CONTINUOUS
 62
1
 10
5.412510880160829
 20
9.359866128271275
 11
5.303073096333662
 21
9.523651346200301
  0
LINE
  8
ValleyLine
  6
CONTINUOUS
 62
1
 10
5.196982806714028
 20
10.00000000000004
 11
5.151536548166716
 21
9.538576393489098
  0
LINE
  8
MountainLine
  6
CONTINUOUS
 62
5
 10
5.139287878404648
 20
9.414213562373074
 11
5.151536548166716
 21
9.538576393489098
  0
LINE
  8
ValleyLine
  6
CONTINUOUS
 62
1
 10
5.6066933672143815
 20
10.00000000000007
 11
5.448786179937237
 21
9.479449765530958
  0
LINE
  8
MountainLine
  6
CONTINUOUS
 62
5
 10
5.646778221597378
 20
9.561460754428534
 11
5.448786179937242
 21
9.47944976553095
  0
LINE
  8
MountainLine
  6
CONTINUOUS
 62
5
 10
5.412510880160806
 20
9.3598661282712
 11
5.448786179937237
 21
9.479449765530958
  0
LINE
  8
MountainLine
  6
CONTINUOUS
 62
5
 10
5.397824734759003
 20
10.00000000000004
 11
5.329724678031045
 21
9.657637895395284
  0
LINE
  8
ValleyLine
  6
CONTINUOUS
 62
1
 10
5.303073096333649
 20
9.523651346200236
 11
5.329724678031045
 21
9.657637895395284
  0
LINE
  8
MountainLine
  6
CONTINUOUS
 62
5
 10
5.151536548166717
 20
9.5385763934891
 11
5.32972467803106
 21
9.657637895395261
  0
LINE
  8
MountainLine
  6
CONTINUOUS
 62
5
 10
5.329724678031046
 20
9.657637895395283
 11
5.448786179937249
 21
9.479449765530939
  0
LINE
  8
CutLine
  6
CONTINUOUS
 62
250
 10
6.336357275838186
 20
10.0
 11
6.641357581656857
 21
10.0
  0
LINE
  8
MountainLine
  6
CONTINUOUS
 62
5
 10
6.336357275838314
 20
10.000000000000194
 11
5.938976440825074
 21
9.405277552346368
  0
LINE
  8
MountainLine
  6
CONTINUOUS
 62
5
 10
5.7287892104949645
 20
9.363468712768412
 11
5.938976440825074
 21
9.405277552346364
  0
LINE
  8
ValleyLine
  6
CONTINUOUS
 62
1
 10
5.669881320131175
 20
9.25325980148163
 11
5.708310759324742
 21
9.060061964163697
  0
LINE
  8
ValleyLine
  6
CONTINUOUS
 62
1
 10
5.632413475948774
 20
8.946473652492536
 11
5.708310759324741
 21
9.060061964163697
  0
LINE
  8
ValleyLine
  6
CONTINUOUS
 62
1
 10
5.669881320131208
 20
9.253259801481642
 11
5.86307915744911
 21
9.291689240675204
  0
LINE
  8
ValleyLine
  6
CONTINUOUS
 62
1
 10
5.938976440825074
 20
9.405277552346368
 11
5.86307915744911
 21
9.291689240675208
  0
LINE
  8
MountainLine
  6
CONTINUOUS
 62
5
 10
5.708310759324741
 20
9.060061964163697
 11
5.863079157449109
 21
9.291689240675208
  0
LINE
  8
MountainLine
  6
CONTINUOUS
 62
5
 10
6.26267701420616
 20
7.875637168884124
 11
6.13831418309014
 21
8.000000000000112
  0
LINE
  8
ValleyLine
  6
CONTINUOUS
 62
1
 10
6.414213562373079
 20
7.860712121595271
 11
6.274925683968199
 21
8.000000000000124
  0
LINE
  8
ValleyLine
  6
CONTINUOUS
 62
1
 10
6.13831418309014
 20
8.000000000000112
 11
6.274925683968198
 21
8.000000000000124
  0
LINE
  8
ValleyLine
  6
CONTINUOUS
 62
1
 10
6.414213562373105
 20
7.860712121595268
 11
6.553501440777962
 21
8.000000000000153
  0
LINE
  8
MountainLine
  6
CONTINUOUS
 62
5
 10
6.274925683968198
 20
8.000000000000124
 11
6.553501440777966
 21
8.00000000000015
  0
LINE
  8
CutLine
  6
CONTINUOUS
 62
250
 10
7.0
 20
9.069022271901835
 11
7.0
 21
8.828427124746437
  0
LINE
  8
ValleyLine
  6
CONTINUOUS
 62
1
 10
6.051665175324214
 20
8.435613978694896
 11
6.177877744891121
 21
8.487892936751482
  0
LINE
  8
MountainLine
  6
CONTINUOUS
 62
5
 10
6.435248184861505
 20
8.59449926354118
 11
6.17787774489112
 21
8.487892936751484
  0
LINE
  8
ValleyLine
  6
CONTINUOUS
 62
1
 10
6.116441795249024
 20
8.222074080534693
 11
6.2504283444439945
 21
8.24872566223211
  0
LINE
  8
MountainLine
  6
CONTINUOUS
 62
5
 10
6.262677014206144
 20
8.12436283111613
 11
6.414213562373066
 21
8.139287878405007
  0
LINE
  8
MountainLine
  6
CONTINUOUS
 62
5
 10
6.214153044667581
 20
8.368309299491802
 11
6.359866128271182
 21
8.412510880161172
  0
LINE
  8
MountainLine
  6
CONTINUOUS
 62
5
 10
6.2504283444439945
 20
8.248725662232108
 11
6.5236513462002375
 21
8.303073096334048
  0
LINE
  8
CutLine
  6
CONTINUOUS
 62
250
 10
7.0
 20
8.000000000000192
 11
7.0
 21
8.196982806714537
  0
LINE
  8
ValleyLine
  6
CONTINUOUS
 62
1
 10
6.274925683968208
 20
8.000000000000135
 11
6.414213562373053
 21
8.139287878405007
  0
LINE
  8
ValleyLine
  6
CONTINUOUS
 62
1
 10
6.553501440777961
 20
8.000000000000156
 11
6.414213562373078
 21
8.139287878405009
  0
LINE
  8
ValleyLine
  6
CONTINUOUS
 62
1
 10
6.250428344444012
 20
8.248725662232136
 11
6.414213562373073
 21
8.139287878405007
  0
LINE
  8
MountainLine
  6
CONTINUOUS
 62
5
 10
7.000000000000014
 20
8.000000000000192
 11
6.690112941656027
 21
8.000000000000163
  0
LINE
  8
MountainLine
  6
CONTINUOUS
 62
5
 10
6.5385763934891035
 20
7.8484634518331955
 11
6.690112941656023
 21
8.000000000000167
  0
LINE
  8
ValleyLine
  6
CONTINUOUS
 62
1
 10
6.553501440777966
 20
8.00000000000015
 11
6.690112941656027
 21
8.000000000000163
  0
LINE
  8
CutLine
  6
CONTINUOUS
 62
250
 10
7.0
 20
8.828427124746437
 11
7.0
 21
8.60669336721491
  0
LINE
  8
MountainLine
  6
CONTINUOUS
 62
5
 10
6.999999999999927
 20
8.828427124746408
 11
6.56146075442837
 21
8.64677822159775
  0
LINE
  8
ValleyLine
  6
CONTINUOUS
 62
1
 10
6.435248184861505
 20
8.59449926354118
 11
6.561460754428371
 21
8.64677822159775
  0
LINE
  8
ValleyLine
  6
CONTINUOUS
 62
1
 10
6.435248184861496
 20
8.594499263541158
 11
6.359866128271172
 21
8.412510880161168
  0
LINE
  8
ValleyLine
  6
CONTINUOUS
 62
1
 10
6.177877744891134
 20
8.487892936751477
 11
6.359866128271124
 21
8.412510880161154
  0
LINE
  8
ValleyLine
  6
CONTINUOUS
 62
1
 10
6.2504283444439945
 20
8.24872566223211
 11
6.359866128271108
 21
8.412510880161149
  0
LINE
  8
CutLine
  6
CONTINUOUS
 62
250
 10
7.0
 20
8.196982806714537
 11
7.0
 21
8.39782473475952
  0
LINE
  8
CutLine
  6
CONTINUOUS
 62
250
 10
7.0
 20
8.60669336721491
 11
7.0
 21
8.39782473475952
  0
LINE
  8
ValleyLine
  6
CONTINUOUS
 62
1
 10
6.414213562373066
 20
8.139287878405007
 11
6.523651346200172
 21
8.303073096334035
  0
LINE
  8
ValleyLine
  6
CONTINUOUS
 62
1
 10
6.359866128271182
 20
8.412510880161172
 11
6.5236513462002375
 21
8.303073096334048
  0
LINE
  8
ValleyLine
  6
CONTINUOUS
 62
1
 10
7.000000000000006
 20
8.196982806714537
 11
6.538576393489074
 21
8.151536548167106
  0
LINE
  8
MountainLine
  6
CONTINUOUS
 62
5
 10
6.414213562373053
 20
8.139287878405007
 11
6.538576393489074
 21
8.151536548167106
  0
LINE
  8
MountainLine
  6
CONTINUOUS
 62
5
 10
6.690112941656038
 20
8.000000000000153
 11
6.538576393489075
 21
8.151536548167108
  0
LINE
  8
ValleyLine
  6
CONTINUOUS
 62
1
 10
6.999999999999927
 20
8.606693367214888
 11
6.479449765530855
 21
8.44878617993761
  0
LINE
  8
MountainLine
  6
CONTINUOUS
 62
5
 10
6.56146075442838
 20
8.64677822159777
 11
6.479449765530848
 21
8.448786179937615
  0
LINE
  8
MountainLine
  6
CONTINUOUS
 62
5
 10
6.359866128271108
 20
8.412510880161149
 11
6.479449765530855
 21
8.44878617993761
  0
LINE
  8
MountainLine
  6
CONTINUOUS
 62
5
 10
6.999999999999954
 20
8.39782473475951
 11
6.657637895395213
 21
8.329724678031464
  0
LINE
  8
ValleyLine
  6
CONTINUOUS
 62
1
 10
6.523651346200172
 20
8.303073096334035
 11
6.657637895395213
 21
8.329724678031464
  0
LINE
  8
MountainLine
  6
CONTINUOUS
 62
5
 10
6.538576393489075
 20
8.151536548167108
 11
6.657637895395191
 21
8.32972467803148
  0
LINE
  8
MountainLine
  6
CONTINUOUS
 62
5
 10
6.479449765530838
 20
8.448786179937624
 11
6.6576378953952124
 21
8.329724678031464
  0
LINE
  8
CutLine
  6
CONTINUOUS
 62
250
 10
7.0
 20
9.069022271901835
 11
7.0
 21
9.336357275838912
  0
LINE
  8
ValleyLine
  6
CONTINUOUS
 62
1
 10
6.999999999999896
 20
9.06902227190178
 11
6.363468712768233
 21
8.728789210495282
  0
LINE
  8
MountainLine
  6
CONTINUOUS
 62
5
 10
6.561460754428371
 20
8.64677822159775
 11
6.363468712768238
 21
8.728789210495307
  0
LINE
  8
MountainLine
  6
CONTINUOUS
 62
5
 10
5.632413475948776
 20
8.94647365249254
 11
5.598101848037979
 21
9.11896985452752
  0
LINE
  8
MountainLine
  6
CONTINUOUS
 62
5
 10
5.598101848037961
 20
9.118969854527485
 11
5.435613978694645
 21
9.051665175324342
  0
LINE
  8
MountainLine
  6
CONTINUOUS
 62
5
 10
5.435613978694634
 20
9.051665175324313
 11
5.368309299491493
 21
9.21415304466765
  0
LINE
  8
MountainLine
  6
CONTINUOUS
 62
5
 10
5.3683092994914965
 20
9.214153044667663
 11
5.222074080534403
 21
9.116441795249022
  0
LINE
  8
MountainLine
  6
CONTINUOUS
 62
5
 10
5.222074080534413
 20
9.116441795249068
 11
5.124362831115812
 21
9.262677014206158
  0
LINE
  8
MountainLine
  6
CONTINUOUS
 62
5
 10
6.118969854527343
 20
8.59810184803824
 11
6.05166517532424
 21
8.435613978694906
  0
LINE
  8
MountainLine
  6
CONTINUOUS
 62
5
 10
6.051665175324214
 20
8.435613978694896
 11
6.214153044667567
 21
8.368309299491798
  0
LINE
  8
MountainLine
  6
CONTINUOUS
 62
5
 10
6.214153044667581
 20
8.368309299491802
 11
6.116441795248978
 21
8.222074080534684
  0
LINE
  8
MountainLine
  6
CONTINUOUS
 62
5
 10
6.1383141830901256
 20
8.0000000000001
 11
6.262677014206144
 21
8.12436283111613
  0
LINE
  8
MountainLine
  6
CONTINUOUS
 62
5
 10
6.116441795249024
 20
8.222074080534693
 11
6.2626770142061385
 21
8.12436283111613
  0
LINE
  8
ValleyLine
  6
CONTINUOUS
 62
1
 10
6.435248184861496
 20
8.594499263541158
 11
6.253259801481476
 21
8.669881320131493
  0
LINE
  8
ValleyLine
  6
CONTINUOUS
 62
1
 10
6.177877744891135
 20
8.487892936751477
 11
6.253259801481481
 21
8.66988132013152
  0
LINE
  8
MountainLine
  6
CONTINUOUS
 62
5
 10
6.363468712768233
 20
8.72878921049528
 11
6.253259801481473
 21
8.66988132013148
  0
LINE
  8
MountainLine
  6
CONTINUOUS
 62
5
 10
6.1189698545273785
 20
8.598101848038258
 11
6.253259801481473
 21
8.66988132013148
  0
LINE
  8
MountainLine
  6
CONTINUOUS
 62
5
 10
5.632413475948774
 20
8.946473652492536
 11
5.8049096779837335
 21
8.980785280403342
  0
LINE
  8
MountainLine
  6
CONTINUOUS
 62
5
 10
6.1189698545273785
 20
8.598101848038258
 11
5.946473652492385
 21
8.632413475949011
  0
LINE
  8
ValleyLine
  6
CONTINUOUS
 62
1
 10
5.708310759324741
 20
9.060061964163697
 11
5.901508596642674
 21
9.098491403357269
  0
LINE
  8
ValleyLine
  6
CONTINUOUS
 62
1
 10
5.863079157449109
 20
9.291689240675208
 11
5.901508596642674
 21
9.0984914033573
  0
LINE
  8
MountainLine
  6
CONTINUOUS
 62
5
 10
5.8049096779837335
 20
8.980785280403335
 11
5.901508596642674
 21
9.098491403357274
  0
LINE
  8
ValleyLine
  6
CONTINUOUS
 62
1
 10
6.253259801481475
 20
8.669881320131488
 11
6.060061964163526
 21
8.708310759325006
  0
LINE
  8
ValleyLine
  6
CONTINUOUS
 62
1
 10
5.946473652492384
 20
8.63241347594901
 11
6.060061964163525
 21
8.708310759325006
  0
LINE
  8
ValleyLine
  6
CONTINUOUS
 62
1
 10
6.25325980148148
 20
8.669881320131518
 11
6.291689240674994
 21
8.863079157449434
  0
LINE
  8
MountainLine
  6
CONTINUOUS
 62
5
 10
6.060061964163525
 20
8.708310759325004
 11
6.291689240674996
 21
8.863079157449434
  0
LINE
  8
MountainLine
  6
CONTINUOUS
 62
5
 10
5.8049096779837335
 20
8.980785280403342
 11
5.80490967798375
 21
8.804909677983948
  0
LINE
  8
MountainLine
  6
CONTINUOUS
 62
5
 10
5.946473652492385
 20
8.632413475949011
 11
5.980785280403148
 21
8.804909677983982
  0
LINE
  8
MountainLine
  6
CONTINUOUS
 62
5
 10
5.80490967798375
 20
8.804909677983947
 11
5.98078528040314
 21
8.804909677983977
  0
LINE
  8
MountainLine
  6
CONTINUOUS
 62
5
 10
6.098491403357029
 20
9.098491403357304
 11
5.9015085966426915
 21
8.90150859664292
  0
LINE
  8
ValleyLine
  6
CONTINUOUS
 62
1
 10
5.901508596642674
 20
9.098491403357269
 11
5.9015085966426994
 21
8.90150859664292
  0
LINE
  8
ValleyLine
  6
CONTINUOUS
 62
1
 10
5.80490967798375
 20
8.804909677983947
 11
5.9015085966426915
 21
8.90150859664292
  0
LINE
  8
MountainLine
  6
CONTINUOUS
 62
5
 10
5.98078528040314
 20
8.804909677983977
 11
6.098491403357054
 21
8.901508596642946
  0
LINE
  8
ValleyLine
  6
CONTINUOUS
 62
1
 10
6.641357581657027
 20
10.000000000000206
 11
5.980785280403064
 21
9.19509032201626
  0
LINE
  8
MountainLine
  6
CONTINUOUS
 62
5
 10
5.9389764408250745
 20
9.405277552346364
 11
5.980785280403057
 21
9.19509032201626
  0
LINE
  8
MountainLine
  6
CONTINUOUS
 62
5
 10
5.901508596642674
 20
9.098491403357274
 11
5.9807852804030635
 21
9.19509032201626
  0
LINE
  8
CutLine
  6
CONTINUOUS
 62
250
 10
6.641357581656857
 20
10.0
 11
6.999999999999488
 21
10.0
  0
LINE
  8
CutLine
  6
CONTINUOUS
 62
250
 10
7.0
 20
9.336357275838912
 11
7.0
 21
9.641357581657697
  0
LINE
  8
CutLine
  6
CONTINUOUS
 62
250
 10
7.0
 20
10.000000000000512
 11
7.0
 21
9.641357581657697
  0
LINE
  8
MountainLine
  6
CONTINUOUS
 62
5
 10
6.999999999999862
 20
9.33635727583882
 11
6.405277552346138
 21
8.938976440825426
  0
LINE
  8
MountainLine
  6
CONTINUOUS
 62
5
 10
6.363468712768238
 20
8.728789210495307
 11
6.405277552346135
 21
8.938976440825428
  0
LINE
  8
ValleyLine
  6
CONTINUOUS
 62
1
 10
6.291689240674996
 20
8.863079157449434
 11
6.405277552346138
 21
8.938976440825428
  0
LINE
  8
ValleyLine
  6
CONTINUOUS
 62
1
 10
5.901508596642674
 20
9.098491403357274
 11
6.098491403357025
 21
9.0984914033573
  0
LINE
  8
ValleyLine
  6
CONTINUOUS
 62
1
 10
6.060061964163525
 20
8.708310759325006
 11
6.098491403357046
 21
8.901508596642941
  0
LINE
  8
ValleyLine
  6
CONTINUOUS
 62
1
 10
6.291689240674996
 20
8.863079157449434
 11
6.098491403357059
 21
8.901508596642952
  0
LINE
  8
ValleyLine
  6
CONTINUOUS
 62
1
 10
5.901508596642707
 20
8.90150859664292
 11
6.098491403357054
 21
8.901508596642946
  0
LINE
  8
ValleyLine
  6
CONTINUOUS
 62
1
 10
6.098491403357029
 20
9.098491403357304
 11
6.098491403357054
 21
8.901508596642946
  0
LINE
  8
MountainLine
  6
CONTINUOUS
 62
5
 10
6.9999999999997335
 20
10.000000000000245
 11
6.195090322015977
 21
9.195090322016277
  0
LINE
  8
ValleyLine
  6
CONTINUOUS
 62
1
 10
6.999999999999797
 20
9.64135758165753
 11
6.195090322016019
 21
8.980785280403362
  0
LINE
  8
MountainLine
  6
CONTINUOUS
 62
5
 10
5.980785280403057
 20
9.19509032201626
 11
6.195090322015977
 21
9.195090322016274
  0
LINE
  8
ValleyLine
  6
CONTINUOUS
 62
1
 10
6.098491403357028
 20
9.098491403357304
 11
6.195090322015977
 21
9.195090322016277
  0
LINE
  8
MountainLine
  6
CONTINUOUS
 62
5
 10
6.405277552346134
 20
8.938976440825428
 11
6.19509032201602
 21
8.980785280403355
  0
LINE
  8
MountainLine
  6
CONTINUOUS
 62
5
 10
6.098491403357054
 20
8.901508596642946
 11
6.19509032201602
 21
8.980785280403362
  0
LINE
  8
MountainLine
  6
CONTINUOUS
 62
5
 10
6.195090322015977
 20
9.19509032201627
 11
6.19509032201602
 21
8.980785280403357
  0
LINE
  8
ValleyLine
  6
CONTINUOUS
 62
1
 10
5.139287878404648
 20
9.414213562373074
 11
4.999999999999806
 21
9.274925683968188
  0
LINE
  8
ValleyLine
  6
CONTINUOUS
 62
1
 10
5.139287878404651
 20
9.414213562373103
 11
4.999999999999759
 21
9.553501440777946
  0
LINE
  8
MountainLine
  6
CONTINUOUS
 62
5
 10
4.999999999999803
 20
9.274925683968192
 11
4.999999999999761
 21
9.553501440777948
  0
LINE
  8
CutLine
  6
CONTINUOUS
 62
250
 10
3.9309777280980214
 20
10.0
 11
4.171572875253432
 21
10.0
  0
LINE
  8
MountainLine
  6
CONTINUOUS
 62
5
 10
4.405500736458745
 20
9.435248184861464
 11
4.512107063248455
 21
9.177877744891084
  0
LINE
  8
MountainLine
  6
CONTINUOUS
 62
5
 10
4.751274337767825
 20
9.25042834444397
 11
4.696926903665872
 21
9.523651346200209
  0
LINE
  8
CutLine
  6
CONTINUOUS
 62
250
 10
4.999999999999693
 20
10.0
 11
4.8030171932853545
 21
10.0
  0
LINE
  8
ValleyLine
  6
CONTINUOUS
 62
1
 10
4.999999999999799
 20
9.274925683968196
 11
4.86071212159492
 21
9.414213562373034
  0
LINE
  8
ValleyLine
  6
CONTINUOUS
 62
1
 10
4.9999999999997575
 20
9.553501440777946
 11
4.860712121594918
 21
9.41421356237306
  0
LINE
  8
ValleyLine
  6
CONTINUOUS
 62
1
 10
4.751274337767798
 20
9.250428344443987
 11
4.8607121215949185
 21
9.414213562373053
  0
LINE
  8
MountainLine
  6
CONTINUOUS
 62
5
 10
4.999999999999693
 20
9.999999999999998
 11
4.99999999999974
 21
9.690112941656004
  0
LINE
  8
MountainLine
  6
CONTINUOUS
 62
5
 10
5.151536548166717
 20
9.5385763934891
 11
4.999999999999741
 21
9.690112941656004
  0
LINE
  8
ValleyLine
  6
CONTINUOUS
 62
1
 10
4.999999999999761
 20
9.553501440777948
 11
4.99999999999974
 21
9.690112941656002
  0
LINE
  8
CutLine
  6
CONTINUOUS
 62
250
 10
4.171572875253432
 20
10.0
 11
4.393306632784969
 21
10.0
  0
LINE
  8
MountainLine
  6
CONTINUOUS
 62
5
 10
4.171572875253485
 20
9.999999999999872
 11
4.353221778402168
 21
9.561460754428326
  0
LINE
  8
ValleyLine
  6
CONTINUOUS
 62
1
 10
4.405500736458744
 20
9.435248184861464
 11
4.353221778402168
 21
9.561460754428326
  0
LINE
  8
ValleyLine
  6
CONTINUOUS
 62
1
 10
4.405500736458766
 20
9.435248184861454
 11
4.58748911983876
 21
9.35986612827114
  0
LINE
  8
ValleyLine
  6
CONTINUOUS
 62
1
 10
4.51210706324846
 20
9.177877744891099
 11
4.587489119838774
 21
9.35986612827109
  0
LINE
  8
ValleyLine
  6
CONTINUOUS
 62
1
 10
4.751274337767825
 20
9.25042834444397
 11
4.587489119838779
 21
9.359866128271076
  0
LINE
  8
CutLine
  6
CONTINUOUS
 62
250
 10
4.8030171932853545
 20
10.0
 11
4.6021752652403665
 21
10.0
  0
LINE
  8
CutLine
  6
CONTINUOUS
 62
250
 10
4.393306632784969
 20
10.0
 11
4.6021752652403665
 21
10.0
  0
LINE
  8
ValleyLine
  6
CONTINUOUS
 62
1
 10
4.860712121594919
 20
9.414213562373046
 11
4.696926903665885
 21
9.523651346200143
  0
LINE
  8
ValleyLine
  6
CONTINUOUS
 62
1
 10
4.587489119838756
 20
9.35986612827115
 11
4.696926903665872
 21
9.523651346200209
  0
LINE
  8
ValleyLine
  6
CONTINUOUS
 62
1
 10
4.803017193285357
 20
9.999999999999982
 11
4.848463451832814
 21
9.538576393489052
  0
LINE
  8
MountainLine
  6
CONTINUOUS
 62
5
 10
4.86071212159492
 20
9.414213562373032
 11
4.848463451832814
 21
9.538576393489052
  0
LINE
  8
MountainLine
  6
CONTINUOUS
 62
5
 10
4.999999999999759
 20
9.690112941656022
 11
4.848463451832813
 21
9.538576393489054
  0
LINE
  8
ValleyLine
  6
CONTINUOUS
 62
1
 10
4.393306632785004
 20
9.999999999999883
 11
4.551213820062311
 21
9.479449765530822
  0
LINE
  8
MountainLine
  6
CONTINUOUS
 62
5
 10
4.353221778402144
 20
9.561460754428335
 11
4.551213820062306
 21
9.479449765530813
  0
LINE
  8
MountainLine
  6
CONTINUOUS
 62
5
 10
4.5874891198387795
 20
9.359866128271076
 11
4.551213820062311
 21
9.479449765530822
  0
LINE
  8
MountainLine
  6
CONTINUOUS
 62
5
 10
4.6021752652403825
 20
9.999999999999918
 11
4.670275321968447
 21
9.657637895395183
  0
LINE
  8
ValleyLine
  6
CONTINUOUS
 62
1
 10
4.696926903665885
 20
9.523651346200143
 11
4.670275321968447
 21
9.657637895395183
  0
LINE
  8
MountainLine
  6
CONTINUOUS
 62
5
 10
4.848463451832813
 20
9.538576393489054
 11
4.670275321968432
 21
9.657637895395162
  0
LINE
  8
MountainLine
  6
CONTINUOUS
 62
5
 10
4.670275321968447
 20
9.657637895395183
 11
4.551213820062299
 21
9.479449765530802
  0
LINE
  8
CutLine
  6
CONTINUOUS
 62
250
 10
3.9309777280980214
 20
10.0
 11
3.6636427241609275
 21
10.0
  0
LINE
  8
ValleyLine
  6
CONTINUOUS
 62
1
 10
3.9309777280981124
 20
9.99999999999983
 11
4.271210789504645
 21
9.363468712768187
  0
LINE
  8
MountainLine
  6
CONTINUOUS
 62
5
 10
4.353221778402168
 20
9.561460754428326
 11
4.27121078950462
 21
9.363468712768192
  0
LINE
  8
ValleyLine
  6
CONTINUOUS
 62
1
 10
4.405500736458766
 20
9.435248184861454
 11
4.3301186798684395
 21
9.25325980148143
  0
LINE
  8
ValleyLine
  6
CONTINUOUS
 62
1
 10
4.51210706324846
 20
9.177877744891099
 11
4.330118679868412
 21
9.253259801481438
  0
LINE
  8
MountainLine
  6
CONTINUOUS
 62
5
 10
4.271210789504646
 20
9.363468712768187
 11
4.330118679868452
 21
9.25325980148143
  0
LINE
  8
MountainLine
  6
CONTINUOUS
 62
5
 10
3.646778221597621
 20
7.561460754428511
 11
3.8284271247460957
 21
7.999999999999757
  0
LINE
  8
CutLine
  6
CONTINUOUS
 62
250
 10
3.6754018867860014
 20
8.049672429245526
 11
3.5026492137082856
 21
8.05615065448594
  0
LINE
  8
ValleyLine
  6
CONTINUOUS
 62
1
 10
3.1515365481669515
 20
7.538576393489118
 11
3.1969828067142956
 21
7.9999999999996225
  0
LINE
  8
MountainLine
  6
CONTINUOUS
 62
5
 10
3.0
 20
7.690112941656083
 11
3.0
 21
7.999999999999582
  0
LINE
  8
MountainLine
  6
CONTINUOUS
 62
5
 10
3.329724678031319
 20
7.65763789539525
 11
3.3978247347592685
 21
7.999999999999665
  0
LINE
  8
MountainLine
  6
CONTINUOUS
 62
5
 10
3.7495716555559384
 20
8.248725662231728
 11
3.476348653799678
 21
8.303073096333584
  0
LINE
  8
CutLine
  6
CONTINUOUS
 62
250
 10
3.0
 20
8.828427124745723
 11
3.0
 21
8.606693367214245
  0
LINE
  8
ValleyLine
  6
CONTINUOUS
 62
1
 10
3.7495716555559384
 20
8.248725662231728
 11
3.640133871728774
 21
8.412510880160733
  0
LINE
  8
CutLine
  6
CONTINUOUS
 62
250
 10
3.0
 20
8.606693367214245
 11
3.0
 21
8.397824734758887
  0
LINE
  8
ValleyLine
  6
CONTINUOUS
 62
1
 10
3.6401338717287
 20
8.412510880160756
 11
3.476348653799678
 21
8.303073096333584
  0
LINE
  8
ValleyLine
  6
CONTINUOUS
 62
1
 10
2.9999999999998934
 20
8.606693367214277
 11
3.520550234469015
 21
8.448786179937159
  0
LINE
  8
MountainLine
  6
CONTINUOUS
 62
5
 10
3.6401338717287737
 20
8.412510880160733
 11
3.520550234469015
 21
8.448786179937159
  0
LINE
  8
CutLine
  6
CONTINUOUS
 62
250
 10
3.0
 20
8.828427124745723
 11
3.0
 21
9.069022271901051
  0
LINE
  8
MountainLine
  6
CONTINUOUS
 62
5
 10
2.999999999999825
 20
8.828427124745797
 11
3.4385392455714383
 21
8.646778221597271
  0
LINE
  8
MountainLine
  6
CONTINUOUS
 62
5
 10
3.520550234469023
 20
8.448786179937162
 11
3.4385392455714383
 21
8.646778221597271
  0
LINE
  8
MountainLine
  6
CONTINUOUS
 62
5
 10
4.330118679868451
 20
9.25325980148143
 11
4.401898151961699
 21
9.118969854527304
  0
LINE
  8
ValleyLine
  6
CONTINUOUS
 62
1
 10
4.512107063248455
 20
9.177877744891084
 11
4.564386021305048
 21
9.05166517532418
  0
LINE
  8
MountainLine
  6
CONTINUOUS
 62
5
 10
4.587489119838756
 20
9.35986612827115
 11
4.631690700508134
 21
9.214153044667551
  0
LINE
  8
ValleyLine
  6
CONTINUOUS
 62
1
 10
4.751274337767825
 20
9.25042834444397
 11
4.777925919465249
 21
9.116441795249001
  0
LINE
  8
MountainLine
  6
CONTINUOUS
 62
5
 10
5.124362831115812
 20
9.262677014206163
 11
4.9999999999998215
 21
9.138314183090124
  0
LINE
  8
ValleyLine
  6
CONTINUOUS
 62
1
 10
4.999999999999804
 20
9.274925683968192
 11
4.999999999999825
 21
9.138314183090122
  0
LINE
  8
MountainLine
  6
CONTINUOUS
 62
5
 10
4.860712121594919
 20
9.414213562373046
 11
4.875637168883803
 21
9.262677014206126
  0
LINE
  8
MountainLine
  6
CONTINUOUS
 62
5
 10
3.6401338717287004
 20
8.412510880160756
 11
3.7858469553323144
 21
8.368309299491433
  0
LINE
  8
ValleyLine
  6
CONTINUOUS
 62
1
 10
3.64013387172871
 20
8.412510880160752
 11
3.5647518151383286
 21
8.594499263540719
  0
LINE
  8
ValleyLine
  6
CONTINUOUS
 62
1
 10
3.4385392455714383
 20
8.646778221597271
 11
3.5647518151383513
 21
8.59449926354073
  0
LINE
  8
ValleyLine
  6
CONTINUOUS
 62
1
 10
3.640133871728758
 20
8.412510880160738
 11
3.8221222551087233
 21
8.487892936751116
  0
LINE
  8
ValleyLine
  6
CONTINUOUS
 62
1
 10
3.9483348246756607
 20
8.435613978694576
 11
3.822122255108717
 21
8.48789293675113
  0
LINE
  8
MountainLine
  6
CONTINUOUS
 62
5
 10
3.5647518151383513
 20
8.594499263540728
 11
3.822122255108717
 21
8.487892936751132
  0
LINE
  8
ValleyLine
  6
CONTINUOUS
 62
1
 10
3.980785280403258
 20
7.195090322016149
 11
4.641357581657257
 21
7.999999999999929
  0
LINE
  8
MountainLine
  6
CONTINUOUS
 62
5
 10
3.9389764408253205
 20
7.405277552346275
 11
4.336357275838534
 21
7.999999999999865
  0
LINE
  8
ValleyLine
  6
CONTINUOUS
 62
1
 10
3.7287892104951803
 20
7.363468712768336
 11
4.069022271901493
 21
7.999999999999807
  0
LINE
  8
MountainLine
  6
CONTINUOUS
 62
5
 10
4.367586524050939
 20
8.946473652492346
 11
4.4018981519616815
 21
9.11896985452734
  0
LINE
  8
MountainLine
  6
CONTINUOUS
 62
5
 10
4.4018981519617
 20
9.118969854527304
 11
4.564386021305037
 21
9.051665175324208
  0
LINE
  8
MountainLine
  6
CONTINUOUS
 62
5
 10
4.564386021305048
 20
9.051665175324182
 11
4.631690700508138
 21
9.214153044667537
  0
LINE
  8
MountainLine
  6
CONTINUOUS
 62
5
 10
4.631690700508134
 20
9.21415304466755
 11
4.7779259194652575
 21
9.116441795248953
  0
LINE
  8
MountainLine
  6
CONTINUOUS
 62
5
 10
4.999999999999819
 20
9.138314183090127
 11
4.875637168883803
 21
9.262677014206126
  0
LINE
  8
MountainLine
  6
CONTINUOUS
 62
5
 10
4.777925919465249
 20
9.116441795249001
 11
4.875637168883804
 21
9.26267701420612
  0
LINE
  8
MountainLine
  6
CONTINUOUS
 62
5
 10
3.948334824675661
 20
8.435613978694576
 11
3.785846955332328
 21
8.368309299491425
  0
LINE
  8
MountainLine
  6
CONTINUOUS
 62
5
 10
3.9483348246756336
 20
8.435613978694587
 11
3.8810301454724705
 21
8.598101848037924
  0
LINE
  8
ValleyLine
  6
CONTINUOUS
 62
1
 10
4.330118679868445
 20
9.25325980148143
 11
4.291689240674938
 21
9.06006196416348
  0
LINE
  8
ValleyLine
  6
CONTINUOUS
 62
1
 10
4.36758652405094
 20
8.946473652492342
 11
4.291689240674938
 21
9.06006196416348
  0
LINE
  8
ValleyLine
  6
CONTINUOUS
 62
1
 10
4.330118679868411
 20
9.253259801481438
 11
4.136920842550497
 21
9.291689240674941
  0
LINE
  8
MountainLine
  6
CONTINUOUS
 62
5
 10
4.2916892406749385
 20
9.06006196416348
 11
4.136920842550498
 21
9.291689240674945
  0
LINE
  8
ValleyLine
  6
CONTINUOUS
 62
1
 10
3.5647518151383286
 20
8.594499263540719
 11
3.7467401985183253
 21
8.669881320131111
  0
LINE
  8
ValleyLine
  6
CONTINUOUS
 62
1
 10
3.8221222551087233
 20
8.487892936751116
 11
3.74674019851832
 21
8.669881320131138
  0
LINE
  8
MountainLine
  6
CONTINUOUS
 62
5
 10
3.8810301454724456
 20
8.598101848037917
 11
3.7467401985183275
 21
8.669881320131099
  0
LINE
  8
MountainLine
  6
CONTINUOUS
 62
5
 10
3.881030145472445
 20
8.598101848037917
 11
4.053526347507429
 21
8.632413475948722
  0
LINE
  8
CutLine
  6
CONTINUOUS
 62
250
 10
3.6636427241609275
 20
10.0
 11
3.358642418342116
 21
10.0
  0
LINE
  8
MountainLine
  6
CONTINUOUS
 62
5
 10
3.663642724161071
 20
9.999999999999785
 11
4.061023559174497
 21
9.405277552346078
  0
LINE
  8
MountainLine
  6
CONTINUOUS
 62
5
 10
4.27121078950462
 20
9.363468712768192
 11
4.0610235591744965
 21
9.405277552346078
  0
LINE
  8
ValleyLine
  6
CONTINUOUS
 62
1
 10
4.136920842550498
 20
9.291689240674945
 11
4.061023559174497
 21
9.405277552346082
  0
LINE
  8
CutLine
  6
CONTINUOUS
 62
250
 10
3.0
 20
9.069022271901051
 11
3.0
 21
9.33635727583803
  0
LINE
  8
ValleyLine
  6
CONTINUOUS
 62
1
 10
2.9999999999997806
 20
9.069022271901169
 11
3.6365312872315494
 21
8.728789210494865
  0
LINE
  8
MountainLine
  6
CONTINUOUS
 62
5
 10
3.4385392455714383
 20
8.646778221597271
 11
3.6365312872315445
 21
8.728789210494892
  0
LINE
  8
MountainLine
  6
CONTINUOUS
 62
5
 10
3.7467401985183275
 20
8.669881320131099
 11
3.6365312872315494
 21
8.728789210494865
  0
LINE
  8
ValleyLine
  6
CONTINUOUS
 62
1
 10
3.746740198518326
 20
8.669881320131104
 11
3.939938035836263
 21
8.708310759324682
  0
LINE
  8
ValleyLine
  6
CONTINUOUS
 62
1
 10
4.053526347507429
 20
8.63241347594872
 11
3.939938035836263
 21
8.708310759324682
  0
LINE
  8
ValleyLine
  6
CONTINUOUS
 62
1
 10
3.7467401985183204
 20
8.669881320131136
 11
3.708310759324747
 21
8.86307915744904
  0
LINE
  8
MountainLine
  6
CONTINUOUS
 62
5
 10
3.9399380358362635
 20
8.70831075932468
 11
3.7083107593247444
 21
8.863079157449038
  0
LINE
  8
ValleyLine
  6
CONTINUOUS
 62
1
 10
4.195090322016009
 20
8.804909677983701
 11
4.098491403357038
 21
8.901508596642646
  0
LINE
  8
MountainLine
  6
CONTINUOUS
 62
5
 10
4.098491403357038
 20
8.901508596642646
 11
3.901508596642638
 21
9.09849140335697
  0
LINE
  8
CutLine
  6
CONTINUOUS
 62
250
 10
3.358642418342116
 20
10.0
 11
2.9999999999992872
 21
10.0
  0
LINE
  8
CutLine
  6
CONTINUOUS
 62
250
 10
3.0
 20
9.33635727583803
 11
3.0
 21
9.641357581656674
  0
LINE
  8
CutLine
  6
CONTINUOUS
 62
250
 10
3.0
 20
9.999999999999286
 11
3.0
 21
9.641357581656674
  0
LINE
  8
ValleyLine
  6
CONTINUOUS
 62
1
 10
3.3586424183423587
 20
9.999999999999705
 11
4.019214719596572
 21
9.195090322015961
  0
LINE
  8
MountainLine
  6
CONTINUOUS
 62
5
 10
4.0610235591744965
 20
9.405277552346078
 11
4.0192147195965795
 21
9.195090322015961
  0
LINE
  8
MountainLine
  6
CONTINUOUS
 62
5
 10
4.098491403356993
 20
9.098491403356999
 11
4.019214719596573
 21
9.195090322015961
  0
LINE
  8
MountainLine
  6
CONTINUOUS
 62
5
 10
2.999999999999731
 20
9.336357275838209
 11
3.5947224476535795
 21
8.938976440824998
  0
LINE
  8
MountainLine
  6
CONTINUOUS
 62
5
 10
3.6365312872315445
 20
8.728789210494892
 11
3.594722447653582
 21
8.938976440824998
  0
LINE
  8
ValleyLine
  6
CONTINUOUS
 62
1
 10
3.7083107593247444
 20
8.863079157449038
 11
3.5947224476535795
 21
8.938976440824998
  0
LINE
  8
MountainLine
  6
CONTINUOUS
 62
5
 10
2.9999999999996523
 20
9.999999999999634
 11
3.8049096779836598
 21
9.195090322015911
  0
LINE
  8
MountainLine
  6
CONTINUOUS
 62
5
 10
4.0192147195965795
 20
9.195090322015961
 11
3.80490967798366
 21
9.195090322015908
  0
LINE
  8
ValleyLine
  6
CONTINUOUS
 62
1
 10
3.901508596642639
 20
9.098491403356967
 11
3.80490967798366
 21
9.195090322015911
  0
LINE
  8
ValleyLine
  6
CONTINUOUS
 62
1
 10
2.9999999999997007
 20
9.64135758165692
 11
3.804909677983685
 21
8.980785280402998
  0
LINE
  8
MountainLine
  6
CONTINUOUS
 62
5
 10
3.5947224476535826
 20
8.938976440824998
 11
3.8049096779836846
 21
8.98078528040299
  0
LINE
  8
MountainLine
  6
CONTINUOUS
 62
5
 10
3.9015085966426755
 20
8.90150859664261
 11
3.8049096779836846
 21
8.980785280402998
  0
LINE
  8
MountainLine
  6
CONTINUOUS
 62
5
 10
3.80490967798366
 20
9.195090322015906
 11
3.8049096779836846
 21
8.98078528040299
  0
LINE
  8
CutLine
  6
CONTINUOUS
 62
250
 10
3.8284271247461965
 20
8.0
 11
3.6066933672147066
 21
8.0
  0
LINE
  8
ValleyLine
  6
CONTINUOUS
 62
1
 10
3.4487861799374744
 20
7.4794497655308945
 11
3.606693367214618
 21
7.99999999999971
  0
LINE
  8
MountainLine
  6
CONTINUOUS
 62
5
 10
4.367586524050941
 20
8.946473652492342
 11
4.195090322015965
 21
8.980785280403097
  0
LINE
  8
MountainLine
  6
CONTINUOUS
 62
5
 10
4.195090322016008
 20
8.804909677983701
 11
4.19509032201597
 21
8.980785280403094
  0
LINE
  8
ValleyLine
  6
CONTINUOUS
 62
1
 10
4.2916892406749385
 20
9.06006196416348
 11
4.0984914033569995
 21
9.098491403356993
  0
LINE
  8
ValleyLine
  6
CONTINUOUS
 62
1
 10
4.136920842550498
 20
9.291689240674945
 11
4.098491403356989
 21
9.098491403357004
  0
LINE
  8
ValleyLine
  6
CONTINUOUS
 62
1
 10
4.09849140335703
 20
8.901508596642646
 11
4.098491403356993
 21
9.098491403356999
  0
LINE
  8
ValleyLine
  6
CONTINUOUS
 62
1
 10
3.9015085966426417
 20
9.098491403356967
 11
4.098491403356993
 21
9.098491403356999
  0
LINE
  8
MountainLine
  6
CONTINUOUS
 62
5
 10
4.098491403356993
 20
9.098491403356999
 11
4.195090322015965
 21
8.980785280403097
  0
LINE
  8
MountainLine
  6
CONTINUOUS
 62
5
 10
4.053526347507429
 20
8.632413475948722
 11
4.019214719596609
 21
8.80490967798369
  0
LINE
  8
MountainLine
  6
CONTINUOUS
 62
5
 10
4.195090322016009
 20
8.804909677983701
 11
4.019214719596627
 21
8.804909677983677
  0
LINE
  8
ValleyLine
  6
CONTINUOUS
 62
1
 10
3.9399380358362635
 20
8.70831075932468
 11
3.901508596642683
 21
8.901508596642604
  0
LINE
  8
ValleyLine
  6
CONTINUOUS
 62
1
 10
3.7083107593247444
 20
8.863079157449038
 11
3.90150859664267
 21
8.901508596642616
  0
LINE
  8
ValleyLine
  6
CONTINUOUS
 62
1
 10
4.098491403357022
 20
8.901508596642646
 11
3.9015085966426755
 21
8.90150859664261
  0
LINE
  8
ValleyLine
  6
CONTINUOUS
 62
1
 10
3.901508596642638
 20
9.09849140335697
 11
3.9015085966426755
 21
8.90150859664261
  0
LINE
  8
ValleyLine
  6
CONTINUOUS
 62
1
 10
6.262677014206167
 20
7.875637168884117
 11
5.000000000000094
 21
7.999999999999979
  0
LINE
  8
MountainLine
  6
CONTINUOUS
 62
5
 10
3.901508596642683
 20
8.901508596642604
 11
4.019214719596609
 21
8.80490967798369
  0
LINE
  8
CutLine
  6
CONTINUOUS
 62
250
 10
3.0
 20
8.075
 11
3.0
 21
8.196982806713908
  0
LINE
  8
CutLine
  6
CONTINUOUS
 62
250
 10
3.0
 20
8.397824734758887
 11
3.0
 21
8.196982806713908
  0
LINE
  8
MountainLine
  6
CONTINUOUS
 62
5
 10
2.9999999999999325
 20
8.3978247347589
 11
3.3423621046046925
 21
8.32972467803096
  0
LINE
  8
ValleyLine
  6
CONTINUOUS
 62
1
 10
3.476348653799745
 20
8.30307309633357
 11
3.3423621046046925
 21
8.32972467803096
  0
LINE
  8
MountainLine
  6
CONTINUOUS
 62
5
 10
3.5205502344690336
 20
8.448786179937171
 11
3.3423621046046934
 21
8.329724678030958
  0
LINE
  8
ValleyLine
  6
CONTINUOUS
 62
1
 10
3.0
 20
8.196982806713908
 11
3.4614236065108828
 21
8.151536548166625
  0
LINE
  8
MountainLine
  6
CONTINUOUS
 62
5
 10
3.585786437626936
 20
8.139287878404561
 11
3.4614236065108828
 21
8.151536548166625
  0
LINE
  8
MountainLine
  6
CONTINUOUS
 62
5
 10
3.3423621046046947
 20
8.329724678030956
 11
3.461423606510876
 21
8.151536548166618
  0
LINE
  8
ValleyLine
  6
CONTINUOUS
 62
1
 10
3.7495716555559206
 20
8.248725662231752
 11
3.5857864376268793
 21
8.139287878404566
  0
LINE
  8
ValleyLine
  6
CONTINUOUS
 62
1
 10
3.476348653799744
 20
8.30307309633357
 11
3.5857864376269104
 21
8.139287878404563
  0
LINE
  8
ValleyLine
  6
CONTINUOUS
 62
1
 10
3.749571655555938
 20
8.248725662231728
 11
3.8835582047509636
 21
8.222074080534343
  0
LINE
  8
MountainLine
  6
CONTINUOUS
 62
5
 10
3.785846955332315
 20
8.36830929949143
 11
3.883558204750964
 21
8.222074080534343
  0
LINE
  8
MountainLine
  6
CONTINUOUS
 62
5
 10
3.58578643762686
 20
8.13928787840457
 11
3.73732298579385
 21
8.124362831115732
  0
LINE
  8
ValleyLine
  6
CONTINUOUS
 62
1
 10
5.98078528040329
 20
7.195090322016215
 11
5.000000000000028
 21
7.999999999999982
  0
LINE
  8
ValleyLine
  6
CONTINUOUS
 62
1
 10
5.804909677983916
 20
7.019214719596819
 11
5.000000000000016
 21
7.999999999999984
  0
LINE
  8
MountainLine
  6
CONTINUOUS
 62
5
 10
5.946473652492502
 20
7.367586524051175
 11
5.000000000000035
 21
7.999999999999982
  0
LINE
  8
MountainLine
  6
CONTINUOUS
 62
5
 10
6.116441795249067
 20
7.777925919465526
 11
5.000000000000111
 21
7.999999999999973
  0
LINE
  8
ValleyLine
  6
CONTINUOUS
 62
1
 10
6.214153044667649
 20
7.631690700508436
 11
5.000000000000091
 21
7.999999999999977
  0
LINE
  8
MountainLine
  6
CONTINUOUS
 62
5
 10
6.051665175324294
 20
7.564386021305309
 11
5.000000000000046
 21
7.9999999999999805
  0
LINE
  8
ValleyLine
  6
CONTINUOUS
 62
1
 10
6.11896985452749
 20
7.4018981519619595
 11
5.000000000000037
 21
7.999999999999981
  0
LINE
  8
ValleyLine
  6
CONTINUOUS
 62
1
 10
5.1243628311160485
 20
6.737322985793858
 11
5.000000000000019
 21
7.999999999999983
  0
LINE
  8
MountainLine
  6
CONTINUOUS
 62
5
 10
5.222074080534622
 20
6.883558204750971
 11
5.000000000000012
 21
7.999999999999984
  0
LINE
  8
ValleyLine
  6
CONTINUOUS
 62
1
 10
5.368309299491724
 20
6.785846955332406
 11
5.000000000000008
 21
7.999999999999984
  0
LINE
  8
MountainLine
  6
CONTINUOUS
 62
5
 10
5.43561397869483
 20
6.94833482467577
 11
5.000000000000013
 21
7.999999999999984
  0
LINE
  8
ValleyLine
  6
CONTINUOUS
 62
1
 10
5.598101848038189
 20
6.881030145472595
 11
5.000000000000013
 21
7.999999999999984
  0
LINE
  8
MountainLine
  6
CONTINUOUS
 62
5
 10
5.632413475948953
 20
7.053526347507583
 11
5.000000000000014
 21
7.999999999999984
  0
LINE
  8
MountainLine
  6
CONTINUOUS
 62
5
 10
5.801087632620354
 20
7.198912367379755
 11
5.000000000000028
 21
7.999999999999982
  0
LINE
  8
CutLine
  6
CONTINUOUS
 62
250
 10
4.641357581657316
 20
8.0
 11
4.999999999999837
 21
8.0
  0
LINE
  8
MountainLine
  6
CONTINUOUS
 62
5
 10
6.13831418309014
 20
8.000000000000112
 11
4.999999999999796
 21
8.000000000000005
  0
LINE
  8
ValleyLine
  6
CONTINUOUS
 62
1
 10
4.195090322016143
 20
7.019214719596759
 11
4.999999999999998
 21
7.999999999999986
  0
LINE
  8
ValleyLine
  6
CONTINUOUS
 62
1
 10
4.875637168884034
 20
6.737322985793849
 11
4.999999999999995
 21
7.999999999999986
  0
LINE
  8
MountainLine
  6
CONTINUOUS
 62
5
 10
5.000000000000037
 20
6.861685816909869
 11
4.999999999999999
 21
7.999999999999986
  0
LINE
  8
MountainLine
  6
CONTINUOUS
 62
5
 10
4.777925919465453
 20
6.8835582047509565
 11
4.999999999999998
 21
7.999999999999986
  0
LINE
  8
ValleyLine
  6
CONTINUOUS
 62
1
 10
4.631690700508356
 20
6.7858469553323815
 11
5.000000000000004
 21
7.999999999999985
  0
LINE
  8
MountainLine
  6
CONTINUOUS
 62
5
 10
4.564386021305229
 20
6.9483348246757135
 11
4.999999999999998
 21
7.999999999999986
  0
LINE
  8
ValleyLine
  6
CONTINUOUS
 62
1
 10
4.401898151961886
 20
6.881030145472556
 11
4.999999999999998
 21
7.999999999999986
  0
LINE
  8
MountainLine
  6
CONTINUOUS
 62
5
 10
4.367586524051112
 20
7.0535263475075425
 11
4.999999999999997
 21
7.999999999999986
  0
LINE
  8
MountainLine
  6
CONTINUOUS
 62
5
 10
4.198912367379703
 20
7.198912367379702
 11
4.999999999999987
 21
7.999999999999987
  0
LINE
  8
CutLine
  6
CONTINUOUS
 62
250
 10
4.092968870413676
 20
8.034013667359488
 11
4.999999999999746
 21
8.00000000000001
  0
LINE
  8
MountainLine
  6
CONTINUOUS
 62
5
 10
5.801087632620205
 20
8.801087632620401
 11
4.999999999999999
 21
7.999999999999986
  0
LINE
  8
MountainLine
  6
CONTINUOUS
 62
5
 10
5.632413475948776
 20
8.94647365249254
 11
4.999999999999995
 21
7.999999999999986
  0
LINE
  8
ValleyLine
  6
CONTINUOUS
 62
1
 10
5.598101848037979
 20
9.11896985452752
 11
4.999999999999987
 21
7.999999999999987
  0
LINE
  8
MountainLine
  6
CONTINUOUS
 62
5
 10
5.435613978694634
 20
9.051665175324313
 11
4.9999999999999964
 21
7.999999999999986
  0
LINE
  8
ValleyLine
  6
CONTINUOUS
 62
1
 10
5.368309299491497
 20
9.214153044667663
 11
5.0
 21
7.999999999999986
  0
LINE
  8
MountainLine
  6
CONTINUOUS
 62
5
 10
5.222074080534413
 20
9.116441795249068
 11
5.000000000000006
 21
7.999999999999984
  0
LINE
  8
ValleyLine
  6
CONTINUOUS
 62
1
 10
5.124362831115812
 20
9.262677014206163
 11
5.000000000000014
 21
7.999999999999984
  0
LINE
  8
ValleyLine
  6
CONTINUOUS
 62
1
 10
6.1189698545273785
 20
8.598101848038258
 11
4.999999999999985
 21
7.999999999999987
  0
LINE
  8
MountainLine
  6
CONTINUOUS
 62
5
 10
6.051665175324213
 20
8.435613978694896
 11
4.999999999999974
 21
7.999999999999988
  0
LINE
  8
ValleyLine
  6
CONTINUOUS
 62
1
 10
6.21415304466758
 20
8.368309299491802
 11
4.999999999999943
 21
7.999999999999991
  0
LINE
  8
MountainLine
  6
CONTINUOUS
 62
5
 10
6.116441795249024
 20
8.222074080534693
 11
4.9999999999999485
 21
7.999999999999989
  0
LINE
  8
ValleyLine
  6
CONTINUOUS
 62
1
 10
6.262677014206144
 20
8.12436283111613
 11
4.999999999999883
 21
7.9999999999999964
  0
LINE
  8
ValleyLine
  6
CONTINUOUS
 62
1
 10
5.8049096779837335
 20
8.980785280403335
 11
4.999999999999993
 21
7.999999999999986
  0
LINE
  8
MountainLine
  6
CONTINUOUS
 62
5
 10
5.946473652492384
 20
8.632413475949008
 11
4.99999999999999
 21
7.999999999999986
  0
LINE
  8
ValleyLine
  6
CONTINUOUS
 62
1
 10
5.98078528040314
 20
8.804909677983975
 11
4.999999999999995
 21
7.999999999999986
  0
LINE
  8
MountainLine
  6
CONTINUOUS
 62
5
 10
4.999999999999824
 20
9.13831418309012
 11
4.999999999999999
 21
7.999999999999986
  0
LINE
  8
MountainLine
  6
CONTINUOUS
 62
5
 10
4.198912367379555
 20
8.801087632620156
 11
5.000000000000012
 21
7.999999999999984
  0
LINE
  8
MountainLine
  6
CONTINUOUS
 62
5
 10
4.367586524050939
 20
8.946473652492346
 11
5.000000000000018
 21
7.999999999999983
  0
LINE
  8
ValleyLine
  6
CONTINUOUS
 62
1
 10
4.4018981519616815
 20
9.11896985452734
 11
5.000000000000025
 21
7.999999999999982
  0
LINE
  8
MountainLine
  6
CONTINUOUS
 62
5
 10
4.564386021305048
 20
9.05166517532418
 11
4.999999999999984
 21
7.999999999999988
  0
LINE
  8
ValleyLine
  6
CONTINUOUS
 62
1
 10
4.631690700508134
 20
9.214153044667551
 11
4.999999999999995
 21
7.999999999999986
  0
LINE
  8
MountainLine
  6
CONTINUOUS
 62
5
 10
4.777925919465249
 20
9.116441795249001
 11
5.0000000000000036
 21
7.999999999999985
  0
LINE
  8
ValleyLine
  6
CONTINUOUS
 62
1
 10
4.875637168883803
 20
9.262677014206126
 11
4.999999999999995
 21
7.999999999999986
  0
LINE
  8
MountainLine
  6
CONTINUOUS
 62
5
 10
3.9483348246756615
 20
8.435613978694576
 11
5.000000000000055
 21
7.99999999999998
  0
LINE
  8
ValleyLine
  6
CONTINUOUS
 62
1
 10
3.7858469553323153
 20
8.36830929949143
 11
5.000000000000127
 21
7.999999999999972
  0
LINE
  8
ValleyLine
  6
CONTINUOUS
 62
1
 10
3.881030145472445
 20
8.598101848037917
 11
5.000000000000036
 21
7.999999999999982
  0
LINE
  8
MountainLine
  6
CONTINUOUS
 62
5
 10
4.053526347507429
 20
8.63241347594872
 11
5.000000000000025
 21
7.999999999999982
  0
LINE
  8
ValleyLine
  6
CONTINUOUS
 62
1
 10
4.195090322015965
 20
8.980785280403097
 11
5.000000000000037
 21
7.999999999999981
  0
LINE
  8
ValleyLine
  6
CONTINUOUS
 62
1
 10
4.019214719596609
 20
8.80490967798369
 11
5.0000000000000995
 21
7.999999999999975
  0
LINE
  8
MountainLine
  6
CONTINUOUS
 62
5
 10
3.883558204750964
 20
8.222074080534343
 11
5.00000000000018
 21
7.999999999999968
  0
LINE
  8
MountainLine
  6
CONTINUOUS
 62
5
 10
3.883558204750964
 20
8.222074080534343
 11
3.7373229857938504
 21
8.124362831115732
  0
LINE
  8
ValleyLine
  6
CONTINUOUS
 62
1
 10
3.7373229857938512
 20
8.124362831115732
 11
5.0000000000011315
 21
7.999999999999874
  0
LINE
  8
CutLine
  6
CONTINUOUS
 62
250
 10
3.397824734759335
 20
8.0
 11
3.196982806714333
 21
8.0
  0
LINE
  8
CutLine
  6
CONTINUOUS
 62
250
 10
3.8284271247461965
 20
8.0
 11
4.069022271901596
 21
8.0
  0
LINE
  8
CutLine
  6
CONTINUOUS
 62
250
 10
5.0
 20
5.925
 11
5.0
 21
5.803017193285646
  0
LINE
  8
CutLine
  6
CONTINUOUS
 62
250
 10
5.0
 20
5.602175265240668
 11
5.0
 21
5.803017193285646
  0
LINE
  8
MountainLine
  6
CONTINUOUS
 62
5
 10
4.999999999999995
 20
5.6021752652406684
 11
4.657637895395247
 21
5.670275321968683
  0
LINE
  8
MountainLine
  6
CONTINUOUS
 62
5
 10
4.479449765530923
 20
5.551213820062545
 11
4.657637895395249
 21
5.67027532196868
  0
LINE
  8
ValleyLine
  6
CONTINUOUS
 62
1
 10
4.523651346200238
 20
5.696926903666094
 11
4.657637895395247
 21
5.670275321968683
  0
LINE
  8
ValleyLine
  6
CONTINUOUS
 62
1
 10
4.523651346200257
 20
5.696926903666107
 11
4.414213562373136
 21
5.860712121595123
  0
LINE
  8
ValleyLine
  6
CONTINUOUS
 62
1
 10
4.250428344444046
 20
5.751274337767997
 11
4.414213562373079
 21
5.860712121595129
  0
LINE
  8
ValleyLine
  6
CONTINUOUS
 62
1
 10
4.250428344444066
 20
5.751274337767994
 11
4.116441795249049
 21
5.777925919465407
  0
LINE
  8
MountainLine
  6
CONTINUOUS
 62
5
 10
4.21415304466765
 20
5.6316907005082975
 11
4.11644179524905
 21
5.777925919465407
  0
LINE
  8
ValleyLine
  6
CONTINUOUS
 62
1
 10
5.0
 20
5.803017193285646
 11
4.538576393489145
 21
5.848463451833036
  0
LINE
  8
MountainLine
  6
CONTINUOUS
 62
5
 10
4.65763789539527
 20
5.670275321968649
 11
4.538576393489122
 21
5.848463451833012
  0
LINE
  8
MountainLine
  6
CONTINUOUS
 62
5
 10
4.414213562373116
 20
5.8607121215951254
 11
4.538576393489145
 21
5.848463451833035
  0
LINE
  8
MountainLine
  6
CONTINUOUS
 62
5
 10
4.4142135623731145
 20
5.8607121215951254
 11
4.262677014206122
 21
5.875637168883996
  0
LINE
  8
MountainLine
  6
CONTINUOUS
 62
5
 10
4.116441795249051
 20
5.777925919465408
 11
4.262677014206142
 21
5.8756371688839755
  0
LINE
  8
CutLine
  6
CONTINUOUS
 62
250
 10
4.602175265240747
 20
6.0
 11
4.803017193285725
 21
6.000000000000001
  0
LINE
  8
CutLine
  6
CONTINUOUS
 62
250
 10
4.171572875253858
 20
6.0
 11
3.930977728098488
 21
6.0
  0
LINE
  8
CutLine
  6
CONTINUOUS
 62
250
 10
0.9999999999999996
 20
7.999999999999999
 11
1.3586424183428174
 21
7.999999999999999
  0
LINE
  8
CutLine
  6
CONTINUOUS
 62
250
 10
1.6636427241613765
 20
7.999999999999999
 11
1.3586424183428174
 21
7.999999999999999
  0
LINE
  8
CutLine
  6
CONTINUOUS
 62
250
 10
0.9999999999999996
 20
7.999999999999999
 11
1.0
 21
7.6413575816526915
  0
LINE
  8
CutLine
  6
CONTINUOUS
 62
250
 10
1.0
 20
7.336357275838623
 11
1.0
 21
7.6413575816526915
  0
LINE
  8
MountainLine
  6
CONTINUOUS
 62
5
 10
1.8810301454725904
 20
6.598101848038155
 11
2.0535263475075656
 21
6.632413475948924
  0
LINE
  8
MountainLine
  6
CONTINUOUS
 62
5
 10
2.019214719596784
 20
6.804909677983896
 11
2.053526347507563
 21
6.632413475948939
  0
LINE
  8
MountainLine
  6
CONTINUOUS
 62
5
 10
1.0000000000000084
 20
7.336357275838617
 11
1.5947224476537336
 21
6.938976440825314
  0
LINE
  8
MountainLine
  6
CONTINUOUS
 62
5
 10
1.6365312872316617
 20
6.728789210495192
 11
1.594722447653727
 21
6.9389764408253125
  0
LINE
  8
ValleyLine
  6
CONTINUOUS
 62
1
 10
1.0
 20
7.6413575816526915
 11
1.8049096780928902
 21
6.980785280424955
  0
LINE
  8
MountainLine
  6
CONTINUOUS
 62
5
 10
1.5947224476537194
 20
6.938976440825311
 11
1.8049096779838592
 21
6.980785280403269
  0
LINE
  8
ValleyLine
  6
CONTINUOUS
 62
1
 10
1.7467401985183981
 20
6.669881320131528
 11
1.7083107593248914
 21
6.8630791574493335
  0
LINE
  8
ValleyLine
  6
CONTINUOUS
 62
1
 10
1.594722447653734
 20
6.938976440825314
 11
1.7083107593248825
 21
6.863079157449332
  0
LINE
  8
ValleyLine
  6
CONTINUOUS
 62
1
 10
1.746740198518458
 20
6.669881320131383
 11
1.9399380358363745
 21
6.708310759324913
  0
LINE
  8
ValleyLine
  6
CONTINUOUS
 62
1
 10
2.0535263475075682
 20
6.63241347594891
 11
1.9399380358363723
 21
6.708310759324925
  0
LINE
  8
MountainLine
  6
CONTINUOUS
 62
5
 10
1.708310759324882
 20
6.863079157449331
 11
1.9399380358363723
 21
6.708310759324925
  0
LINE
  8
MountainLine
  6
CONTINUOUS
 62
5
 10
2.0192147195630286
 20
6.804909678153594
 11
1.9015085966131222
 21
6.901508596792316
  0
LINE
  8
MountainLine
  6
CONTINUOUS
 62
5
 10
1.8049096780928902
 20
6.980785280424956
 11
1.9015085966131222
 21
6.901508596792317
  0
LINE
  8
ValleyLine
  6
CONTINUOUS
 62
1
 10
1.7083107593249007
 20
6.863079157449335
 11
1.901508596642846
 21
6.901508596642884
  0
LINE
  8
ValleyLine
  6
CONTINUOUS
 62
1
 10
1.9015085966428518
 20
6.901508596642854
 11
1.9399380358363771
 21
6.708310759324901
  0
LINE
  8
MountainLine
  6
CONTINUOUS
 62
5
 10
2.019214719596784
 20
6.804909677983895
 11
2.195090322016103
 21
6.804909677983898
  0
LINE
  8
MountainLine
  6
CONTINUOUS
 62
5
 10
2.401898151961845
 20
7.118969854527409
 11
2.3675865240510747
 21
6.946473652492436
  0
LINE
  8
MountainLine
  6
CONTINUOUS
 62
5
 10
2.195090322016103
 20
6.804909677983849
 11
2.1950903220161044
 21
6.980785280403216
  0
LINE
  8
MountainLine
  6
CONTINUOUS
 62
5
 10
2.195090322016104
 20
6.980785280403216
 11
2.3675865240510623
 21
6.946473652492439
  0
LINE
  8
MountainLine
  6
CONTINUOUS
 62
5
 10
1.8049096779838587
 20
6.980785280403268
 11
1.8049096779838507
 21
7.1950903220161475
  0
LINE
  8
MountainLine
  6
CONTINUOUS
 62
5
 10
1.6636427241613823
 20
7.999999999999991
 11
2.061023559174685
 21
7.405277552346268
  0
LINE
  8
MountainLine
  6
CONTINUOUS
 62
5
 10
2.2712107895048073
 20
7.363468712768338
 11
2.0610235591746857
 21
7.4052775523462735
  0
LINE
  8
ValleyLine
  6
CONTINUOUS
 62
1
 10
1.3586424183428245
 20
7.999999999999991
 11
2.0192147196042587
 21
7.19509032205399
  0
LINE
  8
MountainLine
  6
CONTINUOUS
 62
5
 10
1.804909677983797
 20
7.1950903220161475
 11
2.0192147195967296
 21
7.19509032201614
  0
LINE
  8
MountainLine
  6
CONTINUOUS
 62
5
 10
2.0610235591746866
 20
7.405277552346279
 11
2.0192147195967296
 21
7.1950903220161395
  0
LINE
  8
ValleyLine
  6
CONTINUOUS
 62
1
 10
1.9015085966428216
 20
6.901508596643007
 11
1.9015085966428198
 21
7.098491403357178
  0
LINE
  8
ValleyLine
  6
CONTINUOUS
 62
1
 10
1.8049096779838525
 20
7.1950903220161475
 11
1.901508596642815
 21
7.098491403357178
  0
LINE
  8
ValleyLine
  6
CONTINUOUS
 62
1
 10
1.9015085966428518
 20
6.901508596642854
 11
2.0984914033571433
 21
6.901508596642857
  0
LINE
  8
ValleyLine
  6
CONTINUOUS
 62
1
 10
2.195090322016103
 20
6.804909677983897
 11
2.0984914033571433
 21
6.901508596642857
  0
LINE
  8
MountainLine
  6
CONTINUOUS
 62
5
 10
1.901508596642815
 20
7.098491403357178
 11
2.0984914033571433
 21
6.901508596642857
  0
LINE
  8
ValleyLine
  6
CONTINUOUS
 62
1
 10
2.3301186798685976
 20
7.253259801481576
 11
2.1369208425506647
 21
7.291689240675109
  0
LINE
  8
ValleyLine
  6
CONTINUOUS
 62
1
 10
2.0610235591746844
 20
7.405277552346268
 11
2.136920842550667
 21
7.291689240675119
  0
LINE
  8
ValleyLine
  6
CONTINUOUS
 62
1
 10
2.3301186798686464
 20
7.253259801481695
 11
2.291689240675087
 21
7.0600619641636255
  0
LINE
  8
ValleyLine
  6
CONTINUOUS
 62
1
 10
2.367586524051087
 20
6.9464736524924335
 11
2.291689240675074
 21
7.060061964163628
  0
LINE
  8
MountainLine
  6
CONTINUOUS
 62
5
 10
2.1369208425506665
 20
7.291689240675119
 11
2.291689240675074
 21
7.060061964163628
  0
LINE
  8
MountainLine
  6
CONTINUOUS
 62
5
 10
2.1950903220744573
 20
6.9807852803916095
 11
2.0984914034087794
 21
7.098491403346877
  0
LINE
  8
MountainLine
  6
CONTINUOUS
 62
5
 10
2.0192147196042587
 20
7.19509032205399
 11
2.0984914034087794
 21
7.098491403346877
  0
LINE
  8
ValleyLine
  6
CONTINUOUS
 62
1
 10
1.901508596642766
 20
7.098491403357178
 11
2.0984914033569932
 21
7.098491403357178
  0
LINE
  8
ValleyLine
  6
CONTINUOUS
 62
1
 10
2.0984914033571433
 20
6.901508596642804
 11
2.0984914033571447
 21
7.098491403357148
  0
LINE
  8
ValleyLine
  6
CONTINUOUS
 62
1
 10
2.136920842550663
 20
7.291689240675098
 11
2.098491403357115
 21
7.098491403357154
  0
LINE
  8
ValleyLine
  6
CONTINUOUS
 62
1
 10
2.098491403357145
 20
7.098491403357148
 11
2.2916892406750984
 21
7.060061964163624
  0
LINE
  8
CutLine
  6
CONTINUOUS
 62
250
 10
5.000000000000011
 20
3.9999999999999973
 11
4.641357581643608
 21
3.9999999999999973
  0
LINE
  8
CutLine
  6
CONTINUOUS
 62
250
 10
4.3363572758386315
 20
3.999999999999998
 11
4.641357581643608
 21
3.9999999999999973
  0
LINE
  8
CutLine
  6
CONTINUOUS
 62
250
 10
5.0
 20
4.000000000000008
 11
5.0
 21
4.358642418401774
  0
LINE
  8
CutLine
  6
CONTINUOUS
 62
250
 10
5.0
 20
4.663642724161382
 11
5.0
 21
4.358642418401774
  0
LINE
  8
CutLine
  6
CONTINUOUS
 62
250
 10
1.0000000000000027
 20
4.0
 11
1.3586424184310908
 21
4.0
  0
LINE
  8
CutLine
  6
CONTINUOUS
 62
250
 10
1.663642724161376
 20
3.9999999999999996
 11
1.3586424184310908
 21
4.0
  0
LINE
  8
CutLine
  6
CONTINUOUS
 62
250
 10
1.0
 20
3.9999999999999973
 11
1.0
 21
4.3586424187558075
  0
LINE
  8
CutLine
  6
CONTINUOUS
 62
250
 10
1.0000000000000004
 20
4.663642724161375
 11
1.0
 21
4.3586424187558075
  0
LINE
  8
ValleyLine
  6
CONTINUOUS
 62
1
 10
3.804909677983882
 20
6.980785280403225
 11
2.999999936613704
 21
5.999999922763533
  0
LINE
  8
ValleyLine
  6
CONTINUOUS
 62
1
 10
2.0192147195630294
 20
6.804909678153594
 11
3.0000000155358237
 21
5.999999987533242
  0
LINE
  8
ValleyLine
  6
CONTINUOUS
 62
1
 10
2.195090322074457
 20
6.9807852803916095
 11
3.000000012423205
 21
5.999999984978782
  0
LINE
  8
ValleyLine
  6
CONTINUOUS
 62
1
 10
1.7373229857938526
 20
6.124362831115999
 11
3.00000002743418
 21
5.999999997297969
  0
LINE
  8
ValleyLine
  6
CONTINUOUS
 62
1
 10
2.631690700508297
 20
7.214153044667646
 11
3.0000000061246554
 21
5.9999999798096955
  0
LINE
  8
MountainLine
  6
CONTINUOUS
 62
5
 10
2.7779259194654053
 20
7.116441795249047
 11
3.0000000043120028
 21
5.999999978322091
  0
LINE
  8
MountainLine
  6
CONTINUOUS
 62
5
 10
2.564386021305192
 20
7.051665175324293
 11
3.000000007795208
 21
5.999999981180682
  0
LINE
  8
ValleyLine
  6
CONTINUOUS
 62
1
 10
2.8756371688839995
 20
7.262677014206147
 11
3.000000002297887
 21
5.999999976669148
  0
LINE
  8
ValleyLine
  6
CONTINUOUS
 62
1
 10
2.4018981519618503
 20
7.118969854527407
 11
3.000000009368831
 21
5.999999982472121
  0
LINE
  8
MountainLine
  6
CONTINUOUS
 62
5
 10
3.0
 20
7.138314183090143
 11
3.0
 21
5.9999999747833215
  0
LINE
  8
ValleyLine
  6
CONTINUOUS
 62
1
 10
3.3683092994917034
 20
7.214153044667647
 11
2.999999989815071
 21
5.999999966424766
  0
LINE
  8
MountainLine
  6
CONTINUOUS
 62
5
 10
3.222074080534595
 20
7.116441795249048
 11
2.9999999940055364
 21
5.999999969863792
  0
LINE
  8
MountainLine
  6
CONTINUOUS
 62
5
 10
3.435613978694808
 20
7.051665175324293
 11
2.9999999841756466
 21
5.999999961796609
  0
LINE
  8
ValleyLine
  6
CONTINUOUS
 62
1
 10
3.1243628311160005
 20
7.262677014206147
 11
2.999999997297971
 21
5.999999972565824
  0
LINE
  8
ValleyLine
  6
CONTINUOUS
 62
1
 10
3.5981018480381537
 20
7.118969854527414
 11
2.99999997598848
 21
5.999999955077577
  0
LINE
  8
MountainLine
  6
CONTINUOUS
 62
5
 10
3.6324134759489226
 20
6.946473652492449
 11
2.9999999626932023
 21
5.999999944166424
  0
LINE
  8
ValleyLine
  6
CONTINUOUS
 62
1
 10
1.785846955332353
 20
6.3683092994917025
 11
3.0000000224342647
 21
5.999999993194646
  0
LINE
  8
MountainLine
  6
CONTINUOUS
 62
5
 10
1.883558204750953
 20
6.222074080534593
 11
3.0000000247321488
 21
5.99999999508047
  0
LINE
  8
MountainLine
  6
CONTINUOUS
 62
5
 10
1.9483348246757073
 20
6.435613978694807
 11
3.0000000204201487
 21
5.999999991541704
  0
LINE
  8
ValleyLine
  6
CONTINUOUS
 62
1
 10
1.881030145472593
 20
6.59810184803815
 11
3.0000000186074978
 21
5.9999999900541
  0
LINE
  8
CutLine
  6
CONTINUOUS
 62
250
 10
3.3586424183427166
 20
6.0
 11
3.000000030726612
 21
6.0
  0
LINE
  8
MountainLine
  6
CONTINUOUS
 62
5
 10
3.8049096779838822
 20
6.804909677983882
 11
2.999999859377054
 21
5.999999859377054
  0
LINE
  8
CutLine
  6
CONTINUOUS
 62
250
 10
3.907031129586356
 20
5.965986332640512
 11
3.0000000293839464
 21
5.999999998898102
  0
LINE
  8
ValleyLine
  6
CONTINUOUS
 62
1
 10
1.8810301454725864
 20
5.401898151961845
 11
3.0000000881184987
 21
6.000000047100303
  0
LINE
  8
ValleyLine
  6
CONTINUOUS
 62
1
 10
1.737322985793853
 20
5.875637168883998
 11
3.000000034917083
 21
6.00000000343903
  0
LINE
  8
MountainLine
  6
CONTINUOUS
 62
5
 10
1.9483348246757073
 20
5.564386021305191
 11
3.0000000620389358
 21
6.000000025697359
  0
LINE
  8
MountainLine
  6
CONTINUOUS
 62
5
 10
1.883558204750952
 20
5.777925919465404
 11
3.000000040556511
 21
6.00000000806719
  0
LINE
  8
ValleyLine
  6
CONTINUOUS
 62
1
 10
1.785846955332353
 20
5.631690700508296
 11
3.0000000487436846
 21
6.000000014786229
  0
LINE
  8
MountainLine
  6
CONTINUOUS
 62
5
 10
1.8616858169098562
 20
5.999999999999999
 11
3.000000030726612
 21
6.0
  0
LINE
  8
ValleyLine
  6
CONTINUOUS
 62
1
 10
4.11896985452741
 20
5.401898151961851
 11
3.0000000186074756
 21
5.999999990054082
  0
LINE
  8
MountainLine
  6
CONTINUOUS
 62
5
 10
4.051665175324295
 20
5.564386021305193
 11
3.0000000204201354
 21
5.999999991541693
  0
LINE
  8
ValleyLine
  6
CONTINUOUS
 62
1
 10
4.21415304466765
 20
5.6316907005082975
 11
3.0000000224342545
 21
5.9999999931946375
  0
LINE
  8
ValleyLine
  6
CONTINUOUS
 62
1
 10
2.4018981519618463
 20
4.881030145472586
 11
2.999999975988425
 21
5.999999955077532
  0
LINE
  8
ValleyLine
  6
CONTINUOUS
 62
1
 10
2.8756371688840003
 20
4.737322985793853
 11
2.9999999972979676
 21
5.999999972565821
  0
LINE
  8
MountainLine
  6
CONTINUOUS
 62
5
 10
2.564386021305193
 20
4.948334824675707
 11
2.9999999841756217
 21
5.99999996179659
  0
LINE
  8
MountainLine
  6
CONTINUOUS
 62
5
 10
2.7779259194654062
 20
4.883558204750952
 11
2.9999999940055337
 21
5.99999996986379
  0
LINE
  8
ValleyLine
  6
CONTINUOUS
 62
1
 10
2.6316907005082975
 20
4.785846955332353
 11
2.999999989815053
 21
5.999999966424752
  0
LINE
  8
MountainLine
  6
CONTINUOUS
 62
5
 10
3.0000000000000013
 20
4.861685816909856
 11
3.0000000000000004
 21
5.9999999747833215
  0
LINE
  8
ValleyLine
  6
CONTINUOUS
 62
1
 10
3.598101848038152
 20
4.881030145472594
 11
3.0000000093688524
 21
5.999999982472139
  0
LINE
  8
ValleyLine
  6
CONTINUOUS
 62
1
 10
3.124362831116002
 20
4.737322985793853
 11
3.0000000022978903
 21
5.999999976669152
  0
LINE
  8
MountainLine
  6
CONTINUOUS
 62
5
 10
3.43561397869481
 20
4.948334824675708
 11
3.0000000077952205
 21
5.999999981180693
  0
LINE
  8
MountainLine
  6
CONTINUOUS
 62
5
 10
3.222074080534596
 20
4.883558204750953
 11
3.000000004312006
 21
5.9999999783220925
  0
LINE
  8
ValleyLine
  6
CONTINUOUS
 62
1
 10
3.368309299491705
 20
4.785846955332354
 11
3.000000006124665
 21
5.999999979809704
  0
LINE
  8
MountainLine
  6
CONTINUOUS
 62
5
 10
4.116441795249048
 20
5.777925919465407
 11
3.000000024732146
 21
5.9999999950804686
  0
LINE
  8
ValleyLine
  6
CONTINUOUS
 62
1
 10
4.262677014206121
 20
5.875637168883997
 11
3.0000000274342
 21
5.999999997297987
  0
LINE
  8
MountainLine
  6
CONTINUOUS
 62
5
 10
2.0535263475075682
 20
6.63241347594891
 11
3.0000000169369363
 21
5.999999988683105
  0
LINE
  8
MountainLine
  6
CONTINUOUS
 62
5
 10
2.195090322016103
 20
6.804909677983897
 11
3.000000013850152
 21
5.999999986149847
  0
LINE
  8
MountainLine
  6
CONTINUOUS
 62
5
 10
2.367586524051087
 20
6.9464736524924335
 11
3.000000010881992
 21
5.999999983713941
  0
LINE
  8
MountainLine
  6
CONTINUOUS
 62
5
 10
4.999999999999995
 20
4.663642724161385
 11
4.405277552346252
 21
5.061023559174699
  0
LINE
  8
MountainLine
  6
CONTINUOUS
 62
5
 10
4.363468712768341
 20
5.271210789504808
 11
4.405277552346274
 21
5.0610235591747035
  0
LINE
  8
ValleyLine
  6
CONTINUOUS
 62
1
 10
5.000000000000018
 20
4.35864241840176
 11
4.195090321719746
 21
5.01921471953781
  0
LINE
  8
MountainLine
  6
CONTINUOUS
 62
5
 10
4.1950903220161715
 20
5.019214719596772
 11
4.405277552346304
 21
5.06102355917471
  0
LINE
  8
ValleyLine
  6
CONTINUOUS
 62
1
 10
4.253259801481605
 20
5.330118679868471
 11
4.2916892406751055
 21
5.136920842550699
  0
LINE
  8
ValleyLine
  6
CONTINUOUS
 62
1
 10
4.405277552346251
 20
5.061023559174699
 11
4.291689240675082
 21
5.136920842550695
  0
LINE
  8
ValleyLine
  6
CONTINUOUS
 62
1
 10
4.253259801481545
 20
5.330118679868617
 11
4.060061964163675
 21
5.291689240675097
  0
LINE
  8
MountainLine
  6
CONTINUOUS
 62
5
 10
4.291689240675082
 20
5.136920842550695
 11
4.060061964163687
 21
5.291689240675038
  0
LINE
  8
MountainLine
  6
CONTINUOUS
 62
5
 10
4.195090321719747
 20
5.01921471953781
 11
4.098491403439372
 21
5.098491402944145
  0
LINE
  8
ValleyLine
  6
CONTINUOUS
 62
1
 10
4.29168924067514
 20
5.1369208425507065
 11
4.098491403357218
 21
5.098491403357164
  0
LINE
  8
ValleyLine
  6
CONTINUOUS
 62
1
 10
4.060061964163673
 20
5.291689240675106
 11
4.098491403357217
 21
5.098491403357164
  0
LINE
  8
MountainLine
  6
CONTINUOUS
 62
5
 10
3.0000000138501526
 20
5.999999986149847
 11
3.80490967798385
 21
5.195090322016154
  0
LINE
  8
MountainLine
  6
CONTINUOUS
 62
5
 10
4.118969854527418
 20
5.401898151961847
 11
3.9464736524925104
 21
5.36758652405109
  0
LINE
  8
MountainLine
  6
CONTINUOUS
 62
5
 10
3.000000016936931
 20
5.999999988683101
 11
3.9464736524925224
 21
5.36758652405103
  0
LINE
  8
ValleyLine
  6
CONTINUOUS
 62
1
 10
4.060061964163687
 20
5.291689240675038
 11
3.9464736524925224
 21
5.36758652405103
  0
LINE
  8
ValleyLine
  6
CONTINUOUS
 62
1
 10
3.000000014852376
 20
5.999999986972352
 11
3.9807852804980013
 21
5.195090321539966
  0
LINE
  8
MountainLine
  6
CONTINUOUS
 62
5
 10
4.098491403439372
 20
5.098491402944145
 11
3.9807852804980013
 21
5.195090321539966
  0
LINE
  8
MountainLine
  6
CONTINUOUS
 62
5
 10
3.8049096779839178
 20
5.195090322016154
 11
3.9807852804032815
 21
5.195090322016155
  0
LINE
  8
MountainLine
  6
CONTINUOUS
 62
5
 10
3.9464736524925077
 20
5.367586524051104
 11
3.980785280403286
 21
5.195090322016132
  0
LINE
  8
MountainLine
  6
CONTINUOUS
 62
5
 10
4.195090322016204
 20
5.0192147195967785
 11
4.195090322016209
 21
4.804909677983842
  0
LINE
  8
ValleyLine
  6
CONTINUOUS
 62
1
 10
4.098491403357242
 20
5.09849140335704
 11
4.098491403357242
 21
4.901508596642814
  0
LINE
  8
ValleyLine
  6
CONTINUOUS
 62
1
 10
4.1950903220161635
 20
4.804909677983842
 11
4.098491403357184
 21
4.901508596642814
  0
LINE
  8
ValleyLine
  6
CONTINUOUS
 62
1
 10
4.098491403357212
 20
5.098491403357193
 11
3.9015085966428718
 21
5.098491403357194
  0
LINE
  8
ValleyLine
  6
CONTINUOUS
 62
1
 10
3.8049096779838503
 20
5.195090322016154
 11
3.9015085966428718
 21
5.098491403357132
  0
LINE
  8
MountainLine
  6
CONTINUOUS
 62
5
 10
4.098491403357183
 20
4.901508596642815
 11
3.9015085966428718
 21
5.098491403357132
  0
LINE
  8
MountainLine
  6
CONTINUOUS
 62
5
 10
3.5981018480381564
 20
4.881030145472586
 11
3.6324134759489293
 21
5.0535263475075745
  0
LINE
  8
MountainLine
  6
CONTINUOUS
 62
5
 10
3.000000010881997
 20
5.999999983713945
 11
3.6324134759489066
 21
5.053526347507579
  0
LINE
  8
ValleyLine
  6
CONTINUOUS
 62
1
 10
3.000000012867185
 20
5.9999999853431465
 11
3.8049096784865495
 21
5.019214719496805
  0
LINE
  8
MountainLine
  6
CONTINUOUS
 62
5
 10
3.8049096779839147
 20
5.195090322016154
 11
3.804909677983908
 21
5.019214719596787
  0
LINE
  8
MountainLine
  6
CONTINUOUS
 62
5
 10
3.6324134759489515
 20
5.05352634750757
 11
3.804909677983914
 21
5.019214719596786
  0
LINE
  8
MountainLine
  6
CONTINUOUS
 62
5
 10
4.336357275838623
 20
4.000000000000011
 11
3.9389764408253276
 21
4.594722447653719
  0
LINE
  8
MountainLine
  6
CONTINUOUS
 62
5
 10
3.728789210495196
 20
4.636531287231663
 11
3.9389764408253285
 21
4.594722447653725
  0
LINE
  8
ValleyLine
  6
CONTINUOUS
 62
1
 10
4.6413575816436055
 20
4.0
 11
3.9807852804675146
 21
4.804909678306807
  0
LINE
  8
MountainLine
  6
CONTINUOUS
 62
5
 10
4.19509032201621
 20
4.804909677983842
 11
3.9807852804032757
 21
4.804909677983857
  0
LINE
  8
MountainLine
  6
CONTINUOUS
 62
5
 10
3.9807852804032757
 20
4.804909677983857
 11
3.93897644082533
 21
4.59472244765373
  0
LINE
  8
ValleyLine
  6
CONTINUOUS
 62
1
 10
3.6698813201313807
 20
4.746740198518429
 11
3.8630791574493397
 21
4.708310759324892
  0
LINE
  8
ValleyLine
  6
CONTINUOUS
 62
1
 10
3.9389764408253276
 20
4.59472244765372
 11
3.8630791574493375
 21
4.70831075932488
  0
LINE
  8
ValleyLine
  6
CONTINUOUS
 62
1
 10
3.6698813201313865
 20
4.7467401985184585
 11
3.708310759324922
 21
4.939938035836406
  0
LINE
  8
ValleyLine
  6
CONTINUOUS
 62
1
 10
3.632413475948907
 20
5.053526347507579
 11
3.7083107593249043
 21
4.939938035836409
  0
LINE
  8
MountainLine
  6
CONTINUOUS
 62
5
 10
3.8630791574493397
 20
4.708310759324891
 11
3.708310759324922
 21
4.939938035836406
  0
LINE
  8
ValleyLine
  6
CONTINUOUS
 62
1
 10
4.098491403357242
 20
4.901508596642814
 11
3.901508596643016
 21
4.901508596642821
  0
LINE
  8
ValleyLine
  6
CONTINUOUS
 62
1
 10
3.9015085966428718
 20
5.098491403357196
 11
3.901508596642864
 21
4.901508596642851
  0
LINE
  8
MountainLine
  6
CONTINUOUS
 62
5
 10
3.80490967848655
 20
5.019214719496805
 11
3.901508597085569
 21
4.901508596554792
  0
LINE
  8
MountainLine
  6
CONTINUOUS
 62
5
 10
3.9807852804675146
 20
4.804909678306807
 11
3.901508597085569
 21
4.901508596554792
  0
LINE
  8
ValleyLine
  6
CONTINUOUS
 62
1
 10
3.86307915744934
 20
4.708310759324894
 11
3.901508596642894
 21
4.901508596642845
  0
LINE
  8
ValleyLine
  6
CONTINUOUS
 62
1
 10
3.708310759324922
 20
4.939938035836406
 11
3.901508596642864
 21
4.901508596642851
  0
LINE
  8
ValleyLine
  6
CONTINUOUS
 62
1
 10
1.804909677983817
 20
4.804909677983815
 11
1.9015085966427905
 21
4.901508596642782
  0
LINE
  8
MountainLine
  6
CONTINUOUS
 62
5
 10
1.9015085966427905
 20
4.901508596642783
 11
2.098491403357176
 21
5.098491403357175
  0
LINE
  8
MountainLine
  6
CONTINUOUS
 62
5
 10
1.6636427241613823
 20
4.00000000000001
 11
2.0610235591746857
 21
4.594722447653732
  0
LINE
  8
MountainLine
  6
CONTINUOUS
 62
5
 10
2.2712107895048064
 20
4.636531287231662
 11
2.0610235591746866
 21
4.594722447653726
  0
LINE
  8
ValleyLine
  6
CONTINUOUS
 62
1
 10
1.3586424184310908
 20
4.0
 11
2.0192147202755857
 21
4.804909674571126
  0
LINE
  8
MountainLine
  6
CONTINUOUS
 62
5
 10
1.804909677983817
 20
4.804909677983839
 11
2.0192147195967536
 21
4.8049096779838445
  0
LINE
  8
MountainLine
  6
CONTINUOUS
 62
5
 10
2.0192147195967536
 20
4.8049096779838445
 11
2.0610235591746884
 21
4.594722447653719
  0
LINE
  8
ValleyLine
  6
CONTINUOUS
 62
1
 10
2.330118679868472
 20
4.746740198518398
 11
2.136920842550684
 21
4.7083107593248945
  0
LINE
  8
ValleyLine
  6
CONTINUOUS
 62
1
 10
2.0610235591746853
 20
4.594722447653734
 11
2.136920842550682
 21
4.7083107593249025
  0
LINE
  8
ValleyLine
  6
CONTINUOUS
 62
1
 10
2.330118679868616
 20
4.7467401985184585
 11
2.2916892406750864
 21
4.9399380358363745
  0
LINE
  8
MountainLine
  6
CONTINUOUS
 62
5
 10
2.1369208425506825
 20
4.7083107593249025
 11
2.291689240675075
 21
4.939938035836372
  0
LINE
  8
ValleyLine
  6
CONTINUOUS
 62
1
 10
1.9015085966427905
 20
4.901508596642807
 11
2.098491403357017
 21
4.901508596642805
  0
LINE
  8
ValleyLine
  6
CONTINUOUS
 62
1
 10
2.098491403357173
 20
5.098491403357175
 11
2.098491403357171
 21
4.901508596642835
  0
LINE
  8
MountainLine
  6
CONTINUOUS
 62
5
 10
2.0192147202755857
 20
4.804909674571126
 11
2.0984914080019594
 21
4.901508597566741
  0
LINE
  8
ValleyLine
  6
CONTINUOUS
 62
1
 10
2.1369208425506856
 20
4.708310759324886
 11
2.0984914033571407
 21
4.901508596642829
  0
LINE
  8
ValleyLine
  6
CONTINUOUS
 62
1
 10
2.098491403357171
 20
4.901508596642835
 11
2.2916892406750984
 21
4.939938035836376
  0
LINE
  8
ValleyLine
  6
CONTINUOUS
 62
1
 10
1.7467401985184239
 20
5.330118679868596
 11
1.7083107593248998
 21
5.1369208425507065
  0
LINE
  8
ValleyLine
  6
CONTINUOUS
 62
1
 10
1.7467401985183018
 20
5.3301186798686455
 11
1.9399380358363776
 21
5.291689240675084
  0
LINE
  8
MountainLine
  6
CONTINUOUS
 62
5
 10
1.7083107593249314
 20
5.136920842550699
 11
1.9399380358363758
 21
5.291689240675076
  0
LINE
  8
ValleyLine
  6
CONTINUOUS
 62
1
 10
1.9015085966427905
 20
4.901508596642808
 11
1.9015085966427998
 21
5.098491403357029
  0
LINE
  8
ValleyLine
  6
CONTINUOUS
 62
1
 10
2.098491403357171
 20
5.098491403357175
 11
1.901508596642831
 21
5.098491403357184
  0
LINE
  8
ValleyLine
  6
CONTINUOUS
 62
1
 10
1.7083107593248816
 20
5.136920842550709
 11
1.9015085966428247
 21
5.098491403357154
  0
LINE
  8
ValleyLine
  6
CONTINUOUS
 62
1
 10
1.939938035836382
 20
5.291689240675107
 11
1.9015085966428247
 21
5.098491403357153
  0
LINE
  8
MountainLine
  6
CONTINUOUS
 62
5
 10
1.0000000000000093
 20
4.663642724161381
 11
1.594722447653767
 21
5.061023559174707
  0
LINE
  8
MountainLine
  6
CONTINUOUS
 62
5
 10
1.6365312872316617
 20
5.271210789504805
 11
1.5947224476537314
 21
5.061023559174714
  0
LINE
  8
ValleyLine
  6
CONTINUOUS
 62
1
 10
1.0
 20
4.3586424187558075
 11
1.8049096876953201
 21
5.0192147176650375
  0
LINE
  8
MountainLine
  6
CONTINUOUS
 62
5
 10
1.804909677983817
 20
4.804909677983876
 11
1.8049096779838343
 21
5.019214719596772
  0
LINE
  8
ValleyLine
  6
CONTINUOUS
 62
1
 10
1.708310759324931
 20
5.136920842550699
 11
1.5947224476537682
 21
5.061023559174707
  0
LINE
  8
MountainLine
  6
CONTINUOUS
 62
5
 10
1.901508593994735
 20
5.098491390044306
 11
1.8049096876953206
 21
5.0192147176650375
  0
LINE
  8
MountainLine
  6
CONTINUOUS
 62
5
 10
1.5947224476537087
 20
5.061023559174719
 11
1.8049096779838352
 21
5.019214719596772
  0
LINE
  8
MountainLine
  6
CONTINUOUS
 62
5
 10
2.4018981519618468
 20
4.881030145472587
 11
2.36758652405108
 21
5.053526347507539
  0
LINE
  8
MountainLine
  6
CONTINUOUS
 62
5
 10
2.9999999626931846
 20
5.99999994416641
 11
2.367586524051067
 21
5.053526347507535
  0
LINE
  8
ValleyLine
  6
CONTINUOUS
 62
1
 10
2.2916892406750744
 20
4.939938035836372
 11
2.3675865240510676
 21
5.053526347507536
  0
LINE
  8
ValleyLine
  6
CONTINUOUS
 62
1
 10
2.9999999626931846
 20
5.99999994416641
 11
2.1950903220161324
 21
5.019214714256715
  0
LINE
  8
MountainLine
  6
CONTINUOUS
 62
5
 10
2.0984914080019585
 20
4.901508597566741
 11
2.195090322016132
 21
5.019214714256714
  0
LINE
  8
MountainLine
  6
CONTINUOUS
 62
5
 10
2.367586524051094
 20
5.053526347507542
 11
2.195090322016132
 21
5.019214719596766
  0
LINE
  8
MountainLine
  6
CONTINUOUS
 62
5
 10
2.9999998593770534
 20
5.999999859377053
 11
2.1950903220161315
 21
5.195090322016131
  0
LINE
  8
ValleyLine
  6
CONTINUOUS
 62
1
 10
2.098491403357176
 20
5.098491403357175
 11
2.1950903220161315
 21
5.195090322016131
  0
LINE
  8
MountainLine
  6
CONTINUOUS
 62
5
 10
2.195090322016132
 20
5.01921471959677
 11
2.195090322016134
 21
5.195090322016131
  0
LINE
  8
MountainLine
  6
CONTINUOUS
 62
5
 10
1.8810301454725868
 20
5.401898151961845
 11
2.053526347507549
 21
5.367586524051077
  0
LINE
  8
MountainLine
  6
CONTINUOUS
 62
5
 10
3.0000001653550887
 20
6.0000001104867335
 11
2.0535263475075487
 21
5.367586524051074
  0
LINE
  8
ValleyLine
  6
CONTINUOUS
 62
1
 10
1.9399380358363758
 20
5.291689240675075
 11
2.053526347507548
 21
5.367586524051074
  0
LINE
  8
ValleyLine
  6
CONTINUOUS
 62
1
 10
2.9999999626931846
 20
5.99999994416641
 11
2.0192147165901018
 21
5.195090306900609
  0
LINE
  8
MountainLine
  6
CONTINUOUS
 62
5
 10
1.901508593994735
 20
5.098491390044306
 11
2.0192147165901018
 21
5.195090306900609
  0
LINE
  8
MountainLine
  6
CONTINUOUS
 62
5
 10
2.1950903220161324
 20
5.195090322016131
 11
2.019214719596768
 21
5.195090322016139
  0
LINE
  8
MountainLine
  6
CONTINUOUS
 62
5
 10
2.0535263475075505
 20
5.367586524051085
 11
2.0192147195967634
 21
5.195090322016117
  0
LINE
  8
ValleyLine
  6
CONTINUOUS
 62
1
 10
3.5857864376269264
 20
8.139287878404563
 11
3.675401886786001
 21
8.049672429245526
  0
LINE
  8
MountainLine
  6
CONTINUOUS
 62
5
 10
3.737322985793864
 20
8.124362831115732
 11
3.8173359136723475
 21
8.044349903237286
  0
LINE
  8
CutLine
  6
CONTINUOUS
 62
250
 10
3.6754018867860014
 20
8.049672429245526
 11
3.8173359136723475
 21
8.044349903237286
  0
LINE
  8
CutLine
  6
CONTINUOUS
 62
250
 10
3.8173359136723475
 20
8.044349903237286
 11
4.092968870413676
 21
8.034013667359488
  0
LINE
  8
CutLine
  6
CONTINUOUS
 62
250
 10
3.0
 20
8.075
 11
3.365765657787799
 21
8.061283787832958
  0
LINE
  8
MountainLine
  6
CONTINUOUS
 62
5
 10
3.4614236065108765
 20
8.151536548166618
 11
3.365765657787799
 21
8.061283787832958
  0
LINE
  8
ValleyLine
  6
CONTINUOUS
 62
1
 10
3.5857864376268784
 20
8.139287878404566
 11
3.5026492137082856
 21
8.05615065448594
  0
LINE
  8
CutLine
  6
CONTINUOUS
 62
250
 10
3.365765657787799
 20
8.061283787832958
 11
3.5026492137082856
 21
8.05615065448594
  0
LINE
  8
CutLine
  6
CONTINUOUS
 62
250
 10
3.397824734759335
 20
8.0
 11
3.606693367214618
 21
7.99999999999971
  0
LINE
  8
ValleyLine
  6
CONTINUOUS
 62
1
 10
4.414213562373122
 20
5.860712121595125
 11
4.497350786292045
 21
5.943849345514048
  0
LINE
  8
MountainLine
  6
CONTINUOUS
 62
5
 10
4.53857639348912
 20
5.84846345183301
 11
4.629024522078188
 21
5.938911580422068
  0
LINE
  8
CutLine
  6
CONTINUOUS
 62
250
 10
4.497350786292045
 20
5.943849345514048
 11
4.629024522078188
 21
5.938911580422068
  0
LINE
  8
CutLine
  6
CONTINUOUS
 62
250
 10
5.0
 20
5.925
 11
4.629024522078188
 21
5.938911580422068
  0
LINE
  8
ValleyLine
  6
CONTINUOUS
 62
1
 10
4.4142135623730985
 20
5.860712121595127
 11
4.32459811321374
 21
5.950327570754485
  0
LINE
  8
MountainLine
  6
CONTINUOUS
 62
5
 10
4.262677014206131
 20
5.875637168883986
 11
4.17704830618292
 21
5.955860688518141
  0
LINE
  8
CutLine
  6
CONTINUOUS
 62
250
 10
4.17704830618292
 20
5.955860688518141
 11
4.32459811321374
 21
5.950327570754485
  0
ENDSEC
  0
EOF
